<?xml version="1.0" standalone="no"?>
<!DOCTYPE svg PUBLIC "-//W3C//DTD SVG 1.1//EN" "http://www.w3.org/Graphics/SVG/1.1/DTD/svg11.dtd" >
<svg xmlns="http://www.w3.org/2000/svg">
<metadata>
This is a custom SVG webfont generated by Font Squirrel.
Copyright   : Copyright 2009 Joshua Williams created using wwwfontcapturecom
</metadata>
<defs>
<font id="JoshHandwritingRegular" horiz-adv-x="1540" >
<font-face units-per-em="2048" ascent="1317" descent="-731" />
<missing-glyph horiz-adv-x="700" />
<glyph unicode=" "  horiz-adv-x="700" />
<glyph unicode="&#x09;" horiz-adv-x="700" />
<glyph unicode="&#xa0;" horiz-adv-x="700" />
<glyph unicode="!" horiz-adv-x="715" d="M85 -128q5 41 45 85q39 43 53 43q30 0 100 -19.5t77 -29.5q12 -18 8.5 -80.5t-18.5 -102.5q-21 -51 -57 -59l-69 -14q-41 -9 -64 7.5t-49 69.5q-31 59 -26 100zM270 438q2 116 10 130t14 96q13 191 27 214q7 10 14.5 234.5t22.5 301.5q17 83 8 206.5t-36 184.5 q-51 114 26 155q35 20 52.5 20t70.5 -21q49 -19 71.5 -54t27.5 -100q4 -51 -31 -299.5t-56 -316.5q-19 -63 -33 -220l-24 -241q-10 -99 -19.5 -177.5t-18 -125t-19 -76.5t-21 -40.5t-23.5 -10.5q-42 0 -52.5 25.5t-10.5 114.5z" />
<glyph unicode="&#x22;" horiz-adv-x="1202" d="M84 1334q0 52 9 124t16 85q7 11 10 89q1 47 11 79t35 75q18 31 41.5 58.5t37.5 34.5q21 10 37.5 9t46.5 -13q50 -21 68 -38.5t32 -58.5q14 -43 0 -79t-70 -97q-57 -65 -73 -115.5t-35.5 -95t-19.5 -81.5q0 -29 -25.5 -61t-49.5 -32q-29 0 -50 35.5t-21 81.5z M647.5 1323.5q-2.5 17.5 10.5 53.5t35 78t73 130q75 134 85.5 155t52.5 45q35 22 79.5 18t63.5 -31q44 -56 -24 -131q-78 -90 -149 -233q-42 -85 -58.5 -95.5t-24.5 -45.5q-6 -22 -17 -28.5t-42 -6.5q-33 0 -45 7.5t-26 40.5q-11 26 -13.5 43.5z" />
<glyph unicode="#" horiz-adv-x="2262" d="M94 567q-35 41 42 83q71 37 189 47q96 9 106 24q25 39 60 158t26 128q-9 8 -156 -37q-78 -22 -118.5 -32.5t-68.5 -12t-38.5 7t-17.5 29.5q-33 98 86 148q138 59 266 69q86 7 104 25q22 22 52.5 160t24.5 184q-8 58 -8 105t9 129q7 58 16.5 81t32.5 44q40 31 86 31 q29 0 44.5 -10.5t39.5 -47.5l38 -57l-40 -167q-37 -165 -72 -236q-21 -45 -42 -108t-21 -84q0 -3 14.5 -3t39.5 1.5t55 4.5q110 11 238 21l129 11l4 43q4 42 25.5 106t28 106.5t22.5 91t8 146.5q-6 64 -1.5 87t25.5 48q29 34 76 36t79 -29q38 -37 33 -114t-57 -258 q-64 -220 -73 -244q-2 -7 1.5 -11.5t24.5 -8t53.5 -6t97.5 -6.5q186 -8 339 -31q95 -15 131.5 -25.5t59.5 -34.5q65 -60 17 -127q-32 -45 -59.5 -50.5t-67.5 25.5q-45 33 -155.5 50t-316.5 18h-8q-38 2 -55 2t-43.5 -1.5t-35.5 -1.5t-26.5 -5t-22 -7t-15.5 -12t-14 -16 t-10.5 -23t-11 -27.5t-10.5 -35.5q-1 -3 -3 -4q-25 -79 -33 -93q-26 -40 -17 -49q12 -14 155 -12h30q135 2 211 -11t118.5 -45.5t71.5 -96.5q37 -81 -4.5 -101.5t-121.5 39.5q-42 30 -71 38.5t-111 12.5q-140 5 -336 -32q-28 -6 -51.5 -51.5t-60.5 -160.5q-16 -57 -43 -100 t-27 -71q0 -21 -23 -71t-55 -102q-20 -32 -48 -24t-32 46q-5 37 22 115t32.5 127t33.5 94t28 80t17 52q28 28 -22 28q-31 0 -98 -9q-118 -16 -220 -16q-70 0 -90.5 -6t-41.5 -32q-29 -38 -44 -95q-17 -66 -55 -150t-63 -112q-22 -25 -42 -29.5t-31 13.5q-8 12 5 68t33 91 q13 25 13 42.5t32.5 81t44.5 97.5q8 25 -1 28t-67 -4q-61 -9 -116.5 3.5t-77.5 39.5zM560 699l69 8l228 24q92 10 127 18t39 22q7 23 55 161q14 38 24 70.5t14.5 51t2.5 18.5q-54 9 -224 -4.5t-212 -30.5q-17 -5 -42.5 -88.5t-43 -119t-27.5 -83.5z" />
<glyph unicode="$" horiz-adv-x="1397" d="M45 358q-4 62 0.5 75.5t35.5 25.5q42 17 59.5 5t48.5 -79q22 -55 46 -74.5t95 -48.5q33 -13 123 -15t108 9q20 13 27.5 57.5t14.5 182.5q13 218 28 390q12 123 12 247t-12 135q-14 14 -176 72.5t-184.5 77t-46.5 27.5q-56 19 -75 111t16 166q45 95 142.5 155.5 t227.5 72.5q103 11 119.5 26.5t14.5 116.5v101h81h83l-6 -90q-7 -91 6 -99q17 -10 274 54q160 40 226 -44q21 -26 22.5 -37.5t-14.5 -39.5q-15 -31 -54.5 -48.5t-121.5 -28.5q-62 -9 -191.5 -46t-147 -51t-16.5 -59t-10.5 -175.5t-0.5 -130.5q19 0 101.5 -86.5t120.5 -142.5 q51 -78 66.5 -92t87.5 -109t86 -171q13 -64 10 -128t-21 -96q-15 -31 -7 -56q10 -34 -14.5 -77t-91.5 -106q-73 -68 -173 -126t-190 -83q-78 -24 -85 -35q-11 -17 -28.5 -126t-13.5 -122q7 -19 -9 -167t-15 -172q0 -8 -6.5 -18t-14.5 -12q-20 -7 -20 -29.5t-14 -22.5 q-15 0 -20 89.5t5 200.5q13 144 21 261l7 117l-60 1q-233 1 -350.5 67t-125.5 200zM377 1607q5 -17 98 -66.5t145 -63.5q28 -8 38 23.5t10 136.5v102h-46q-51 -2 -126 -28.5t-100 -51.5q-29 -28 -19 -52zM708.5 396.5q-2.5 -108.5 8.5 -119.5q7 -7 75.5 20.5t85.5 44.5 q18 18 38.5 18t20.5 14.5t23 14.5q9 0 40.5 24.5t64.5 59.5q69 70 87 122.5t4 142.5q-7 52 -38.5 116t-59.5 88q-21 18 -21 45q0 10 -7.5 20.5t-17.5 13.5q-25 8 -52 46q-9 17 -36.5 40.5t-54.5 41.5q-65 42 -75 46.5t-25.5 -115.5t-25 -269.5t-7.5 -221.5q2 -33 -14 -63 q-11 -21 -13.5 -129.5z" />
<glyph unicode="%" horiz-adv-x="1502" d="M42 1284q0 56 12 63.5t52 86.5q42 82 163.5 204.5t199.5 160.5q46 24 93.5 16t85 -32.5t58.5 -68.5t14 -93q-9 -59 -30.5 -75t-21.5 -82.5t-17 -98.5q-14 -25 -62.5 -74t-59.5 -49q-10 0 -40 -30q-20 -18 -104.5 -44.5t-136.5 -29.5q-86 -5 -146 37.5t-60 108.5zM293 -71 q-9 19 6 71t36 76q16 21 70 120l71 136q20 35 52 106.5t52 103.5q21 32 68.5 142t47.5 124t35.5 66.5t35.5 79t30 51.5t21 47.5t11.5 45.5t43.5 92.5t86 215.5q59 138 88.5 255t22.5 183q-7 60 10.5 122.5t49.5 88.5q28 24 87.5 24.5t91 -35t20.5 -91.5q-9 -48 -44 -156.5 t-56 -151.5q-21 -45 -21 -66.5t-21.5 -38.5t-21.5 -43.5t-12 -33.5t-37 -75t-86 -197l-121 -254q-59 -129 -91.5 -172t-41.5 -85q-10 -39 -48 -118.5t-69 -123.5q-29 -42 -103 -199q-87 -180 -113 -228.5t-50 -73.5q-26 -28 -59 -31t-41 23zM328 1358q2 1 4 1q25 10 39 10 q10 0 39.5 31.5t29.5 42.5q0 28 -44 -4q-19 -14 -40 -36q-44 -46 -28 -45zM745 78q-20 91 0.5 156.5t91.5 139.5q53 56 155.5 119.5t179.5 87.5q133 43 191 -7t87 -232q20 -122 -0.5 -195t-95.5 -157q-164 -180 -350 -168q-207 14 -259 256zM938 132q0 -100 63.5 -123.5 t150.5 41.5q51 38 77.5 98.5t8.5 95.5q-13 23 -28 64q-14 35 -40 36.5t-86 -28.5q-68 -33 -107 -83t-39 -101z" />
<glyph unicode="&#x26;" horiz-adv-x="2086" d="M42 -540q0 44 22 85q13 22 49 150q26 87 73.5 189t82.5 144q15 20 39.5 71.5t24.5 67.5q0 19 52 102.5t81 111.5q37 33 37 45q0 9 46.5 73t81.5 103l91 104l66 77l-11 93q-13 94 -13 247q0 98 4.5 128t21.5 38q23 14 23 35q0 40 69.5 130t168.5 181q160 144 305.5 221 t296.5 96q90 11 134 2t78 -44q35 -37 37.5 -77t-25.5 -99.5t-168.5 -231.5t-276.5 -313q-102 -107 -123 -135t-141.5 -133t-167.5 -155q-34 -35 -39.5 -54t-1.5 -74q7 -84 38 -221t56 -194q25 -58 56.5 -104t51.5 -53q16 -7 135 21q132 31 289 36.5t266 -17.5 q173 -33 192 -91q8 -26 -30 -51q-24 -16 -39 -16t-62 16q-85 29 -165.5 37.5t-184.5 -2.5q-128 -13 -165 -31q-15 -7 -39 -34.5t-42 -58.5q-43 -75 -63 -88q-31 -19 -71.5 -11t-69.5 39q-41 44 -55 44q-17 0 -142 -60.5t-187 -99.5q-153 -92 -272 -196q-60 -52 -149 -111 q-54 -35 -84.5 -46.5t-67.5 -11.5q-42 0 -57 8t-35 39q-21 35 -21 79zM210 -476q10 -11 108.5 50.5t248.5 172.5q73 53 240 139l180 94q8 6 -29.5 81.5t-67.5 107.5q-18 21 -27.5 99t-29.5 113.5t-20 110t-13 74.5t-92 -96l-131 -158q-45 -53 -113.5 -166.5t-123.5 -226.5 q-50 -102 -63 -109q-11 -7 -43 -142.5t-24 -143.5zM927 956l1 -54l32 26q77 65 183 163.5t172 167.5q72 74 111.5 110.5t39.5 52.5t50.5 65t100 123t60.5 74t17.5 32.5t17.5 55.5q7 17 -1.5 21.5t-43.5 2.5q-113 -1 -270 -95q-68 -41 -198.5 -147t-130.5 -122q0 -10 -36 -49 q-60 -66 -85.5 -168.5t-19.5 -258.5z" />
<glyph unicode="'" horiz-adv-x="529" d="M102 1323q-43 81 10 227q27 71 39.5 111.5t37.5 68.5q14 16 31.5 21t48.5 0q187 -25 87 -214q-35 -67 -34 -126q4 -110 -76 -144q-42 -17 -81 -2t-63 58z" />
<glyph unicode="(" horiz-adv-x="781" d="M43 1161.5q-2 69.5 8.5 138.5t33.5 130.5t64 134t96.5 146t135.5 166.5q40 48 61 48q28 0 72.5 -32t51.5 -58q8 -36 -7.5 -91.5t-40.5 -71.5q-144 -103 -210.5 -196.5t-86.5 -219.5q-12 -81 -6.5 -186t26.5 -167q35 -102 56 -217q3 -14 17 -35q50 -81 78 -168 q17 -52 54.5 -101.5t60.5 -101.5q21 -46 84.5 -137t101.5 -129q56 -57 45 -106q-10 -41 -63 -28q-32 7 -130 108.5t-98 127.5q0 23 -23.5 41.5t-42.5 62.5q-44 89 -80 131q-24 27 -24 38t-56 126q-99 205 -119.5 266.5t-44.5 223.5q-12 87 -14 156.5z" />
<glyph unicode=")" horiz-adv-x="778" d="M45 -80q10 37 33 55q21 14 104.5 133.5t94.5 153.5q11 29 55.5 94t44.5 75t49 111.5t78 207.5l39 142q11 35 10 220q0 133 -6.5 170.5t-39.5 106.5q-27 54 -55 88.5t-77 73.5l-68 56q-21 17 -44.5 39.5t-29.5 31t-14 25t-8.5 28t-0.5 34.5q-3 51 4 66.5t39 36.5 q49 30 81.5 25.5t70.5 -48.5q43 -49 43 -58.5t45.5 -59.5t112.5 -149q76 -114 109.5 -265t13.5 -287q-26 -178 -56 -272.5t-119 -273.5q-50 -101 -50 -116t-27.5 -44.5t-63.5 -101.5t-57 -89.5t-21 -41.5q0 -25 -98 -126.5t-131 -108.5q-35 -9 -52.5 11.5t-8.5 56.5z" />
<glyph unicode="*" horiz-adv-x="1247" d="M48 1219q-30 82 89 149q39 22 61 25t71 -8q92 -20 221 -129q17 -14 21 -14t8 287q3 203 8 250t26 69q27 28 71.5 31.5t76.5 -18.5q28 -20 37.5 -69.5t-4.5 -104.5q-12 -39 -26 -208.5t-7 -176.5q3 -6 80 63q84 74 118.5 100t115 74.5t119.5 55.5t56 -26q17 -29 15 -64 t-19 -45q-52 -29 -251 -205t-199 -192q0 -6 53.5 -41t95.5 -70l43 -36l-38 -38l-37 -37l68 -95q69 -95 141 -165t72 -84.5t28 -51.5q56 -70 0 -99q-32 -18 -53 -10q-34 14 -164 147l-94 97q-162 165 -168.5 158.5t-13.5 -73.5q-5 -53 -31 -100.5t-50 -47.5q-18 0 -34 57 t-16 123q0 67 -16.5 84t-55.5 -5q-29 -17 -41 -17t-40 17q-17 9 -31 27.5t-18 35.5q-8 29 -11 29q-3 -18 -60 22q-35 26 -54 49q-58 73 -1 125q28 25 28 33.5t-66 35.5q-75 28 -94 41t-30 45zM267 1128.5q0 -5.5 6.5 -10.5t15 -5t14.5 5t6 10.5t-6 9.5t-14.5 4t-15 -4 t-6.5 -9.5z" />
<glyph unicode="+" horiz-adv-x="1180" d="M85 1232q2 13 28 34q37 30 140 49q150 25 168 35q16 8 20 40q1 13 1 16q9 58 14 133q5 57 13 81t36 54q26 30 77.5 25.5t88.5 -37.5q28 -27 32 -45t-2 -83q-8 -91 -44 -151l-37 -61l118 -45q166 -66 242 -127t59 -117q-9 -28 -55 -28t-60 14q-17 17 -123.5 51.5 t-141.5 34.5q-29 0 -34 -6.5t2 -34.5q52 -230 49 -273q-3 -35 -36 -60q-4 -3 -11 -7q-28 -20 -44.5 -23.5t-38.5 5.5q-29 11 -39 32.5t-21 95.5q-9 65 -32 175l-23 111l-78 -3q-79 -1 -160 0l-81 3l-17 57q-12 42 -10 55z" />
<glyph unicode="," horiz-adv-x="715" d="M85 -363.5q9 34.5 65 115.5q59 84 127 234q28 62 59.5 114.5t47.5 66.5q35 29 60.5 29t72.5 -29q46 -31 57 -78.5t-20 -81.5q-28 -29 -28 -39t-44 -56t-149 -182q-66 -87 -103.5 -122t-86.5 -56q-9 -4 -38 24q-29 26 -20 60.5z" />
<glyph unicode="-" horiz-adv-x="852" d="M85 974q9 41 26.5 56.5t64.5 20.5q72 9 94.5 7t37.5 -18q8 -8 61.5 -23t119.5 -27q182 -34 207 -52q18 -13 18 -45q0 -40 -18 -55.5t-208.5 -16.5t-213.5 -3q-75 -10 -138 41.5t-51 114.5z" />
<glyph unicode="." horiz-adv-x="526" d="M86 72.5q-5 17.5 2 64.5q11 67 40.5 129.5t57.5 73.5q34 14 84.5 12.5t71.5 -16.5q23 -18 38.5 -119t-1.5 -133q-14 -24 -86 -61t-105 -37q-13 0 -33.5 12t-36.5 29q-27 28 -32 45.5z" />
<glyph unicode="/" horiz-adv-x="1863" d="M85 -164q5 35 29.5 76.5t101.5 150.5l74 106q24 34 109 140l143 180q99 128 173 198q31 30 31 44.5t33 32t88.5 87t63.5 69.5q13 0 150 129q31 26 46 26q6 0 10.5 8.5t4.5 20.5t6.5 20.5t14.5 8.5q20 0 35.5 27t42 35.5t178.5 121t169.5 112.5t49.5 28q39 35 71 28 q14 -2 14 -16t-46.5 -55t-104.5 -76q-80 -50 -268 -213t-345 -314.5t-157 -173.5q0 -15 -17.5 -34t-45.5 -58.5t-82 -103.5q-104 -122 -195 -286q-35 -63 -130 -208.5t-95 -158t-44 -29.5q-26 -11 -41 -9.5t-37 16.5q-24 16 -29.5 28.5t-0.5 41.5z" />
<glyph unicode="0" horiz-adv-x="1227" d="M46 884q14 173 62 253q31 50 21.5 64t5.5 23t47 75q69 143 202 312q89 112 142.5 152t123.5 46q49 4 67 -1.5t46 -35.5l39 -40l-24 -74q-15 -48 -48 -88.5t-57 -40.5q-11 0 -32 42l-21 43l-47 -33q-55 -37 -144 -148t-131 -195q-60 -124 -86 -243.5t-26 -287.5 q-1 -144 11.5 -212t60.5 -180q19 -43 19 -57t49 -58q63 -54 131.5 -44.5t151.5 86.5q42 38 78.5 90t97.5 161q16 26 37 76t26 75q19 76 45 106q18 21 34.5 98t28.5 93q13 15 36.5 181t15.5 179q-10 14 2.5 21.5t15.5 117.5t4.5 131t-1.5 54q-1 24 -6 25.5t-28 -13.5 q-57 -41 -86.5 -51.5t-51.5 0.5q-16 9 -21.5 14.5t-2.5 19.5t12.5 31.5t35.5 55.5q50 79 107 106q62 27 90 24t66 -41l42 -42l-10 -123q-8 -123 -14 -230q-8 -149 -46 -351.5t-66 -247.5q-20 -31 -29 -92q-7 -42 -76 -184t-123 -229q-52 -80 -129.5 -154t-128.5 -93 q-144 -49 -271 16q-56 26 -99.5 78t-43.5 90q0 22 -21 53q-51 80 -74 252t-9 345z" />
<glyph unicode="1" horiz-adv-x="869" d="M53.5 1118.5q24.5 39.5 110.5 75.5q89 39 168 121q60 63 81 95.5t62 125.5l49 113q19 42 33 105q13 58 35.5 81.5t75.5 33.5t70 1q19 -9 54 -64t35 -74q0 -45 -57 -324q-31 -152 -23 -540t47 -643q19 -128 13 -187.5t-44 -101.5q-22 -23 -34 -28.5t-26 2.5 q-23 14 -40.5 64.5t-18.5 105.5q0 60 -15.5 98.5t-21.5 103.5t-14 136t-13.5 191t-7.5 134t1 135q1 108 -6 225.5t-15 125.5q-3 3 -5 1t-2 -9q0 -16 -143.5 -138.5t-178.5 -134.5q-40 -16 -90 8t-76 70q-28 53 -3.5 92.5z" />
<glyph unicode="2" horiz-adv-x="1709" d="M42 1434q0 36 33.5 144.5t51.5 130.5q28 37 28 55t85.5 103.5t144.5 126.5q67 46 161 91.5t154 60.5q71 18 220 16q130 -5 193 -29.5t119 -95.5q34 -42 40 -70t9 -129q3 -112 -16 -184t-70 -152.5t-172 -223.5q-86 -103 -119 -138t-43 -35q-14 0 -52 -45.5t-116 -131.5 q-151 -165 -175.5 -194.5t-86.5 -117.5q-54 -78 -81.5 -140.5t-14.5 -82.5q9 -16 115 -5t180 38q126 44 481 50t478 -36q46 -16 61 -28t17.5 -34t-6 -32t-37.5 -20q-48 -15 -122 -9.5t-126 -7.5q-84 -21 -227.5 -26.5t-277.5 7.5q-84 7 -117 4t-75 -21q-112 -50 -270 -62 t-209 24q-42 31 -56 67.5t-3 86.5q17 81 25 105.5t23 41.5q20 23 59 100.5t54 88.5q80 51 80 76q0 18 42 50t42 43.5t179.5 188.5t190.5 177q12 0 12 15q0 13 38 65.5t51 58.5q11 5 11 22.5t43 62.5q17 18 29.5 39t12.5 32q0 27 21 67.5t21 63t10 32.5q11 11 6 84.5 t-17 97.5q-13 24 -53 44t-80 24q-119 10 -288.5 -58t-238.5 -153q-51 -66 -71 -87q-28 -32 -59.5 -86.5t-49.5 -102.5q-14 -38 -31 -58t-42 -33q-32 -14 -45.5 -14t-37.5 16q-15 9 -25.5 22t-10.5 20z" />
<glyph unicode="3" horiz-adv-x="1467" d="M42 347q0 52 6.5 72.5t27.5 35.5q49 38 93.5 18.5t48.5 -80.5q3 -37 54 -45.5t184 5.5q216 24 359 70t273 133q47 32 84.5 77.5t27.5 59.5q-7 13 7 22t14 69q0 49 -44 132.5t-100 141.5q-35 37 -134.5 88t-164.5 65q-44 8 -94.5 37.5t-103.5 57.5q-51 27 -62 45t-14 80 q-4 66 21 89t257 94.5t239 76.5q2 3 -12 13q-9 5 -23 11q-41 18 -233 18h-90q-27 0 -65 -4t-52 -8.5t-46 -19t-53 -28.5l-69 -45q-92 -60 -142 -72t-96 16q-94 56 -94 140q0 39 30 83.5t57 44.5t109 28q63 22 170 45t172 30q64 7 109 5.5t160 -12.5q144 -14 233 -44t159 -90 q172 -146 92 -244q-18 -22 -115.5 -54.5t-147.5 -32.5q-41 0 -110 -16t-89 -30q-17 -12 18 -35q24 -17 98 -57q111 -59 172 -107.5t94 -102.5l77 -121q69 -105 90 -170q5 -17 -8 -64t-59 -173q-40 -108 -160 -190q-60 -40 -67 -59q-3 -9 -16.5 -15t-27.5 -6q-36 0 -96 -34 q-44 -25 -171 -64t-213 -55q-71 -11 -225 -8t-200 17q-58 16 -98 50q-28 21 -34.5 40t-6.5 76z" />
<glyph unicode="4" horiz-adv-x="1444" d="M50 577q13 68 50 152t71 121q32 35 72 116t50.5 81t41 60.5t72 121t41.5 72.5t11 18q13 5 53.5 64t76.5 125q47 84 65 106q24 28 49.5 80t34.5 87q10 45 22.5 45t12.5 28t44 78t65 50t90 -37q33 -19 51.5 -34t24.5 -39t-2.5 -50t-35.5 -72t-65.5 -98t-104.5 -134 q-60 -77 -91.5 -113t-31.5 -53.5t-46 -67.5q-59 -65 -99.5 -122t-115.5 -178q-96 -157 -122.5 -194.5t-26.5 -49t-29 -64.5t-22 -53q2 -1 0.5 -7t-5 -17t-9.5 -24q-36 -86 24 -144.5t199 -69.5q81 -7 135.5 7t68.5 45q16 35 47.5 193t35.5 223q4 68 20 99t57 48 q82 35 151 -38q29 -32 28 -73.5t-36 -118.5q-27 -60 -62 -173q-31 -100 -24 -111q3 -4 16 -7q26 -4 54 11.5t133 35t158 41.5q125 53 150 -15q17 -44 -13 -78t-103 -55q-76 -21 -97.5 -30t-133.5 -47q-99 -34 -137 -50.5t-55 -34t-26 -54.5q-16 -59 -32 -150.5t-32 -120 t-30 -86.5q-9 -35 -18.5 -46t-33.5 -14q-53 -7 -75 59t-3 172q11 70 16 127l6 58h-160q-113 -2 -148.5 5t-100.5 40q-110 56 -152 142t-19 212z" />
<glyph unicode="5" horiz-adv-x="1736" d="M50 213q-26 52 21.5 96.5t118.5 33.5q45 -7 133 22l331 107q239 77 310.5 110t86.5 33q35 2 112 77t77 109q0 29 10 39.5t13.5 33.5t11.5 53q6 26 -1.5 41.5t-36.5 22t-78 4.5t-127 -12q-221 -28 -346 -57.5t-249 -85.5q-79 -34 -128.5 -32.5t-88.5 40.5 q-35 35 -39.5 72.5t19.5 84.5q23 42 13 42t12 25q21 26 89 237t65 241q-1 7 28.5 89.5t44.5 116.5q20 42 46 55t77 8q48 -5 153.5 12t157.5 38q37 14 107 27q201 37 229 61q17 13 43 4.5t44 4.5q15 9 145.5 8t154.5 -13q21 -8 53 -56.5t32 -70.5q0 -24 -21 -73 q-14 -35 -27.5 -41t-67.5 -6q-76 0 -100 18q-19 15 -140 13.5t-151 -17.5q-24 -13 -151 -30.5t-198.5 -48.5t-108.5 -40q-33 -9 -71.5 -62t-72 -138.5t-63.5 -148.5q-56 -126 -50 -147q5 -17 46 -17q50 -1 120 11q220 38 316.5 48.5t211.5 12.5q98 0 146.5 -8t75.5 -28 t50 -65q25 -51 21 -135t-35 -133q-35 -56 -31 -81q3 -11 -1.5 -18t-12.5 -7t-23.5 -17.5t-29.5 -41.5q-63 -112 -156 -159q-50 -26 -71 -42q-36 -31 -503 -178q-141 -45 -168 -59q-36 -21 -103 -38t-112 -17q-51 0 -98.5 22t-64.5 50z" />
<glyph unicode="6" horiz-adv-x="1141" d="M43 21.5q2 56.5 33 168.5l47 174q13 46 51 95q22 31 26 46.5t-4 30.5q-29 56 1 116.5t138 162.5q109 103 124 136l73 155q59 122 59 143.5t22.5 39t15.5 36t5 26.5q28 18 85 201t65 279q7 74 15.5 97.5t36.5 46.5q33 28 57.5 29t86.5 -23q39 -14 57.5 -61.5t6.5 -102.5 q-11 -49 -53.5 -146t-58.5 -107q-7 -4 -52.5 -91t-54.5 -114q-13 -39 -91 -201q-58 -121 -58 -133.5t95 -8.5q69 3 91.5 -3t65.5 -40q60 -48 89.5 -99.5t57.5 -153.5q21 -79 23 -117.5t-9 -122.5q-14 -103 -28 -148t-70 -158q-95 -194 -347 -364q-123 -83 -123 -94t-102 -20 q-164 -15 -222 55q-19 22 -36 22q-7 0 -20.5 15.5t-24.5 36.5l-52 95q-23 45 -21 101.5zM233.5 129q-17.5 -140 12.5 -172q21 -21 41 -49q22 -33 86.5 -26.5t141.5 48.5q56 31 158.5 126t102.5 116q0 11 38.5 69.5t58.5 150.5t17 193q-1 72 -8.5 102.5t-33.5 68.5 q-33 49 -71 59t-102 -14q-63 -23 -123.5 -65t-67.5 -68q-9 -31 -20.5 -31t-29.5 -46q-13 -31 -56 -111t-83 -141q-44 -70 -61.5 -210z" />
<glyph unicode="7" horiz-adv-x="1339" d="M42 1808q1 40 19.5 74.5t60.5 53t95 11.5q57 -7 130 -23q49 -12 93 -8.5t176 29.5q197 37 260 40q192 11 267.5 7.5t103.5 -24.5q37 -29 47 -99q8 -56 -7 -91q-21 -48 -177 -253l-26 -35q-145 -191 -212 -288t-101 -165q-37 -75 -51 -75q-5 0 -9 -5t-4 -13q0 -19 -53 -91 q-151 -209 -175 -304q-13 -52 -45 -95.5t-57 -43.5q-20 0 -59 31q-27 21 -32 37t2 72q10 80 11 101t46.5 88t57.5 67q7 0 24 25.5t34 58.5q40 82 105 181l288 430q91 134 129 201l36 68l-32 1q-55 3 -123.5 -2t-79.5 -13q-14 -12 -108.5 -20t-238.5 -52q-121 -35 -185 -40 t-111 18q-47 25 -73.5 65.5t-25.5 80.5z" />
<glyph unicode="8" horiz-adv-x="1649" d="M50 658q-19 84 9.5 140.5t126.5 128.5q170 123 287 183q31 16 55.5 33.5t28 25.5t-7.5 30.5t-31 47.5q-87 108 -84 225.5t92 194.5l121 103q108 92 283 179q49 24 84 47q25 16 137.5 54.5t167.5 49.5q134 28 220 -28q36 -25 46.5 -43.5t17.5 -71.5q11 -84 -10 -138.5 t-88 -113.5q-70 -63 -103 -79t-55 2q-21 18 -15.5 67t36.5 118q26 62 20.5 71.5t-59.5 2t-112 -25.5q-101 -34 -251 -121t-199 -138q-26 -31 -43 -31q-21 0 -49 -65t-21 -98q10 -35 66 -63t117 -28q39 -1 112.5 23t136.5 56q38 19 62 19t112 30q97 31 139.5 10t17.5 -87 q-9 -24 -20.5 -24t-99 -49t-104.5 -49t-45 -21q-20 -15 -17.5 -20t32.5 -19q63 -27 133 -126.5t98 -199.5q14 -55 -0.5 -157t-46.5 -165q-37 -70 -123 -145t-187 -123q-107 -52 -175 -70t-170 -24q-157 -8 -329 70q-83 38 -186.5 175.5t-126.5 236.5zM259 640 q18 -101 105.5 -172.5t213.5 -86.5q311 -41 522 178q66 67 83 103.5t18 115.5q4 96 -49 170t-144 102q-43 13 -125 24q-54 7 -83 1.5t-96 -38.5q-98 -46 -143.5 -88.5t-55.5 -42.5q-14 0 -88.5 -58t-112.5 -99q-37 -39 -44.5 -56.5t-0.5 -52.5z" />
<glyph unicode="9" horiz-adv-x="1468" d="M43 1242q7 110 33 158q21 42 98.5 136t129.5 141q320 297 508 370q46 18 121.5 17.5t110.5 -17.5q35 -20 63 -98.5t16 -129.5q-10 -42 -14 -107q-6 -74 -56.5 -100t-104.5 18q-27 21 -36.5 42.5t-15.5 73.5q-8 67 -23.5 75.5t-75.5 -23.5q-94 -51 -218 -151.5t-218 -201 t-106 -149.5q-17 -63 -9.5 -123.5t35.5 -91.5q89 -94 253.5 -85.5t309.5 114.5q118 86 172.5 169t64.5 191q5 52 35.5 136.5t41.5 135.5q21 88 35.5 114t49.5 44q100 50 156 -9q22 -23 26 -43t-1 -74q-14 -123 -33.5 -189t-108.5 -283q-29 -69 -41.5 -121.5t-18.5 -126.5 q-32 -418 70 -666q23 -52 20.5 -85t-25.5 -55q-55 -51 -118 32q-60 77 -90 225q-16 87 -23 149.5t-19 216.5q-8 127 -12 131.5t-73 -43.5q-83 -59 -167.5 -99t-141.5 -47q-72 -8 -100 -15q-42 -10 -142.5 12.5t-158.5 54.5q-113 65 -160 153.5t-39 223.5z" />
<glyph unicode=":" horiz-adv-x="501" d="M87 1621q8 42 22 59.5t74 17.5q108 0 156 -116q17 -39 14.5 -49t-32.5 -32q-42 -30 -86 -38q-29 -6 -46 2.5t-55 50.5q-35 39 -44 59t-3 46zM89 463q12 40 61 48q63 13 121.5 10.5t72.5 -14.5q26 -25 16.5 -70t-46.5 -81q-124 -118 -206 16q-31 51 -19 91z" />
<glyph unicode=";" horiz-adv-x="628" d="M87 -1q10 33 77 142q85 139 85 149.5t41 48.5q36 35 91.5 35t84.5 -37q27 -32 20.5 -55.5t-59.5 -81.5q-62 -66 -147 -168q-71 -84 -114 -106.5t-67 10.5q-22 30 -12 63zM250 1646q-8 47 15 97q12 22 86.5 22t100.5 -22q24 -20 24.5 -72.5t-21.5 -96.5 q-14 -30 -27.5 -37.5t-48.5 -7.5q-49 0 -85 35t-44 82z" />
<glyph unicode="&#x3c;" horiz-adv-x="1418" d="M88.5 774.5q12.5 38.5 97.5 124.5q102 102 116 121.5t71 104.5t75 97q46 30 237 247q40 47 88.5 90.5t74.5 58.5q79 44 173.5 34t151.5 -67q60 -59 -18 -144q-31 -34 -54 -43t-86 -15q-88 -8 -131.5 -28.5t-100.5 -80.5q-161 -168 -161 -188q0 -11 -73 -82 q-48 -48 -78.5 -101t-18.5 -69q11 -14 175 -65q69 -21 99 -40t100.5 -43t98.5 -35q187 -73 265 -131t90 -129q14 -101 -52 -154q-53 -44 -111 -16q-47 25 -66 94q-8 35 -43 62.5t-64 21.5q-26 -4 -26 10q0 11 -126.5 74.5t-183.5 82.5q-90 28 -329 15q-82 -4 -109 10t-58 75 q-36 70 -23.5 108.5z" />
<glyph unicode="=" horiz-adv-x="1220" d="M82.5 514.5q-1.5 11.5 9.5 32.5q19 35 45.5 52t82.5 32q63 16 120 35q73 24 427 76q86 13 146 14q49 1 95 -20t57 -49q20 -46 13.5 -67t-43.5 -47q-35 -24 -68 -30.5t-135 -7.5q-150 -4 -187 -18q-23 -9 -192 -46t-240 -48q-32 -6 -54 6t-58 54q-17 20 -18.5 31.5z M180 1252q2 49 37 77q22 18 45.5 22t70.5 1q79 -7 135.5 -23.5t269.5 -23.5q129 -3 185.5 -12t77.5 -29.5t21 -66.5q0 -28 -8.5 -42t-36.5 -31q-29 -17 -88 -21.5t-259 -6.5q-304 -1 -350 10q-45 11 -73.5 54t-26.5 92z" />
<glyph unicode="&#x3e;" horiz-adv-x="1216" d="M87 1655q-7 67 7.5 94.5t72.5 55.5q67 30 94 31.5t53 -24.5q26 -28 144 -58q99 -25 188.5 -68.5t138.5 -88.5q42 -40 49 -40q13 0 191 -153q54 -47 54 -84q0 -35 -23.5 -84.5t-44.5 -58.5q-23 -8 -41.5 -26t-39 -18t-20.5 -11.5t-90 -67.5q-89 -57 -254.5 -213 t-165.5 -186q0 -17 -30 -39q-31 -21 -61 -21.5t-51 17t-32.5 42.5t-6 58t29.5 62q32 39 105.5 145.5t148 156.5t92.5 64l60 49q84 68 105 93.5t11 43.5q-16 32 -52 56t-113 56q-99 40 -149 67.5t-171 35.5q-112 9 -153 32t-46 82z" />
<glyph unicode="?" horiz-adv-x="1320" d="M84 1327q0 35 24.5 83.5t59.5 83.5q42 42 42.5 56.5t59 56.5t94.5 72q63 50 251 110q64 20 174 15.5t173 -29.5q42 -17 103.5 -77.5t86.5 -112.5q59 -114 7 -277q-32 -98 -51 -125.5t-19 -48.5q0 -27 -189 -305.5t-224 -304.5q-29 -21 -55.5 -71.5t-26.5 -81.5 q0 -34 -24.5 -124t-45.5 -134q-14 -30 -61 -47.5t-82 -6.5q-41 14 -57.5 37t-23.5 84.5t0 172.5q8 206 23 245q13 31 94 99.5t175 125.5q35 23 71 53.5t50 53.5q35 54 86 124q54 74 100 175t56 163q7 49 0.5 65.5t-46.5 55.5q-54 51 -112.5 62t-155.5 -11 q-89 -20 -172.5 -74.5t-185.5 -159.5q-109 -113 -125 -113q-17 0 -45.5 43t-28.5 67zM271 -272q12 28 68 51q47 21 81.5 21t79.5 -18q73 -31 89.5 -94t-33.5 -116q-56 -58 -143 -32.5t-129 110.5q-25 50 -13 78z" />
<glyph unicode="@" horiz-adv-x="2171" d="M43 652q-5 42 7.5 101t33.5 83q11 14 11 36q0 32 73 161.5t130 199.5q125 153 230.5 249t258.5 197q87 57 137 84.5t144 69.5q66 29 192 67.5t200 51.5q63 11 199 4q112 -6 187.5 -32t158.5 -87q89 -67 113 -153.5t-3 -249.5l-21 -150q-4 -44 -48.5 -216t-58.5 -203 q-14 -29 -54 -122q-36 -84 -85 -147t-97 -85q-47 -22 -102.5 -21.5t-90.5 24.5q-215 145 -235 145q-15 0 -38.5 24.5t-72.5 51.5l-50 28l-83 -71q-274 -238 -506 -125q-98 46 -150 155.5t-30 216.5q34 146 114 230t269 168q137 63 144 74t72.5 34.5t113.5 30.5 q36 5 84.5 -11t63.5 -40q9 -14 63 -5q38 5 51.5 -0.5t35.5 -37.5q28 -41 33 -71t-10.5 -75.5t-64.5 -147.5q-36 -76 -47 -83q-20 -12 -6.5 -42.5t55.5 -66.5l85 -74q25 -21 35 -21t59 -34q59 -40 93 -44.5t61 23.5q64 73 122 238t84 343.5t5 283.5q-15 75 -120 111t-279 28 q-157 -8 -206 -25q-169 -60 -255 -100t-145 -88q-50 -40 -95 -66q-112 -61 -310 -269t-249 -316q-31 -64 -49 -85t-46 -121q-35 -127 -69 -121q-28 4 -42 93zM618 974.5q-55 -102.5 8 -180.5q24 -28 42 -35t68 -7q69 1 121 26.5t113 89.5q42 43 52.5 64t10.5 68 q0 68 19.5 115.5t29.5 80.5q6 19 1.5 25.5t-25.5 4.5q-32 0 -53 -11q-74 -40 -197 -87q-135 -51 -190 -153.5z" />
<glyph unicode="A" horiz-adv-x="1803" d="M42 -98q-1 1 -1 5q0 15 29 72q46 93 105 243q54 136 54 157q0 2 -1 3q-8 13 6 21.5t6 21.5t9 13t8 9q-2 2 -2 6q0 16 28 69q70 133 145 342q70 193 91 241.5t110 217.5q44 85 44 104t27.5 57.5t52 101.5t57.5 107t33 58t58.5 106t86.5 121q20 18 53 26q18 4 34 4 q13 0 25 -2q26 -6 26 -25q0 -27 12.5 -34.5t21.5 -53.5q10 -47 39 -93q22 -35 22 -64q0 -9 -2 -17q-2 -9 -2 -27q0 -34 8 -100q13 -102 28 -142q60 -161 92 -292q21 -83 63 -192t65 -188q47 -156 59 -175t47 -23q17 -2 21 -3q87 -13 87 -38q1 -13 -22 -31q-33 -26 -65 -26 q-21 0 -25 -6.5t0 -26.5q8 -32 18.5 -46t21 -70.5t34.5 -127.5t28 -85t17.5 -49.5t22 -78t27.5 -70.5q18 -25 18 -41q0 -3 -1 -5q-4 -16 -36 -24l-21.5 -6t-16 -5t-6.5 -2q-1 1 -13 25q-12 26 -23 60t-15 55q-9 34 -39.5 125.5t-42.5 112.5q-12 24 -12 51t-14 35.5t-14 45 t-25 78.5l-24 42l-114 -10q-113 -8 -134.5 -14.5t-98.5 -11.5q-258 -23 -390 -59q-85 -23 -225 -25l-141 -2l-48 -120q-48 -121 -52 -143q-8 -39 -33.5 -84.5t-41.5 -51.5q-26 -8 -78.5 -30t-60.5 -16zM448 529q6 -28 84 -39q33 -5 66 -5q47 0 96 9q97 17 474 51 q180 16 225 22.5t45 17.5q0 16 -29 107t-43.5 122.5t-44.5 118t-43 135.5q-15 58 -39.5 107.5t-34.5 105t-51 108t-41 71.5q0 30 -40 101t-72 99q-44 38 -49 38q-20 0 -147.5 -271t-279.5 -635q-36 -84 -58 -162q-19 -66 -19 -93q0 -5 1 -8z" />
<glyph unicode="B" horiz-adv-x="1790" d="M45 1676q-3 54 -3 96q0 47 4 77q6 41 38 60q16 9 31 9q16 0 32 -10q15 -10 29 -5.5t45 26.5q48 35 76 42q25 7 64 6q37 1 87 -5q101 -12 161 -39q42 -18 155 -58q97 -34 229.5 -98.5t132.5 -76.5t33 -30q31 -15 107.5 -107.5t104.5 -145.5q25 -51 61 -115q40 -67 42 -105 v-5q0 -35 -32 -59q-36 -28 -81 -41t-156 -83l-112 -71l45 -31q44 -31 146 -67q178 -62 265.5 -118.5t152.5 -151.5q33 -46 44 -132q4 -31 3 -57q0 -48 -12 -81q-15 -38 -39 -119q-19 -70 -54 -101.5t-131 -66.5q-84 -31 -98 -41.5t-84.5 -36t-174 -73t-120.5 -48t-45 -21 t-52.5 -20.5t-70.5 -19q-92 -40 -140 -46q-10 -1 -22 -1q-42 0 -97 16q-57 15 -85 32t-63 56q-56 64 -66 126q-5 32 -5 63q0 34 6 68q11 64 38 103.5t62 39.5q59 0 59 -91q0 -19 -3 -43q-4 -29 -4 -49q0 -12 2 -22q4 -24 25 -62l34 -57h91q92 0 171 29l120 43q42 17 128 55 l236 106q83 37 126.5 60t72 49t37.5 49.5t12 64.5q1 16 1 30q0 119 -93 190q-45 35 -99.5 56t-165.5 47q-76 19 -138 43.5t-171 77.5q-38 18 -67 18h-3q-30 -1 -103 -27q-102 -36 -200 -42q-17 -1 -33 0q-74 0 -115 21t-56.5 11.5t-6.5 -53.5q8 -44 10 -303v-74 q0 -118 -2 -150q-4 -42 -24 -56q-18 -13 -31 -13q-17 0 -25 24q-18 49 -21 274q0 199 -14 327l-28 268q-9 122 -30 265t-31 168q-10 24 -42 33q-14 3 -29 18t-22 31q-12 33 -19 149zM278 1665q2 -33 7 -83l19 -153q14 -106 23 -261.5t17 -209.5l10 -55l39 31q33 25 69 26 q8 0 16 -2q12 -2 28 -2q42 0 110 14q92 20 188 28q85 7 115 17t76 43q47 34 100.5 65t114.5 84q42 39 49 53q3 5 3 13q0 13 -8 33q-23 69 -80 137.5t-118 103.5q-63 36 -144.5 72.5t-133.5 50.5l-155 48q-127 38 -185 42q-9 1 -18 1q-46 0 -70 -21q-35 -28 -57 -28 q-9 0 -13 -7q-3 -5 -3 -24q1 -7 1 -16z" />
<glyph unicode="C" horiz-adv-x="1519" d="M48 587q-6 28 -6 58.5t6 61.5q42 214 42 276q0 36 44.5 130t99.5 175q45 64 178 202t207 197q101 80 226 140t237 83q61 12 109 12q45 0 77 -10q68 -22 105 -95q19 -35 21 -137q0 -13 1 -25q0 -81 -15 -109q-15 -30 -15 -56q0 -23 -56.5 -112.5t-70.5 -89.5q-13 0 -34 -8 q-18 -7 -40.5 12.5t-36 48t-17.5 56.5t14 39q9 6 23.5 51t25.5 98q4 22 20 61q10 23 13.5 35t2.5 23t-5 15t-20 6.5t-33.5 1.5t-52.5 -4q-112 -7 -146 -25l-55 -28q-84 -36 -161 -95.5t-208 -189.5q-144 -143 -210.5 -265.5t-107.5 -324.5q-14 -73 -16 -121v-13 q0 -47 9 -128q15 -147 43 -205t28 -72t77 -98q146 -157 341 -169q23 -2 46 -1q118 0 218 43q119 52 259 185q89 84 153 121q42 24 66 24q13 0 22 -7q21 -18 21 -42q0 -31 -178.5 -209.5t-238.5 -207.5q-136 -67 -308 -67h-14q-180 3 -312 75q-49 28 -121.5 91t-72.5 79 q0 10 -42 71q-40 60 -64 122t-43 158z" />
<glyph unicode="D" horiz-adv-x="1636" d="M42 1636q0 21 14 48q38 72 111 72q35 0 54.5 23t82.5 63q38 26 66.5 33.5t81.5 7.5q149 0 307 -76q78 -37 88.5 -37t48.5 -27l101 -67q138 -91 281 -274t256 -415q41 -83 51 -120t10 -97q0 -91 -29 -181.5t-67 -122.5q-16 -14 -50.5 -61.5t-62.5 -95.5 q-25 -42 -115.5 -122.5t-140.5 -106.5q-78 -39 -208 -75q-104 -29 -150 -29q-11 0 -19 2q-46 8 -247.5 10t-217.5 20q-5 9 -27 14.5t-43 5.5q-49 0 -87.5 22.5t-38.5 50.5q0 25 28 39.5t76 14.5q50 0 58 14q3 5 3 31q0 49 -10 171q-16 188 -19.5 237.5t-15.5 113t-15 98.5 q-18 236 -54.5 437.5t-79.5 306.5q-21 49 -21 72zM287 1592l10 -212q14 -294 22.5 -392t26.5 -212q14 -84 14 -145v-8q0 -42 19.5 -220t32.5 -242q5 -29 54 -38.5t206 -10.5h20q224 0 356 66q138 68 261 248q71 103 100 180q24 64 24 126q0 13 -1 25q-11 164 -68 262 q-82 136 -139 207q-36 44 -64 84t-93 98q-106 101 -207 162t-223 99q-97 29 -153 29h-13q-56 -4 -116 -52z" />
<glyph unicode="E" horiz-adv-x="1699" d="M44 1572q8 70 50 114q26 29 42.5 34.5t55.5 -1.5q15 -2 28 -2q34 0 47 16q38 45 129 45q37 0 83 -8q51 -9 117 -9q57 0 126 7q434 42 633 51q163 5 171 13q4 5 12 5q7 1 16 -3q20 -8 60 -8q45 0 44 -31q-3 -32 -56 -77q-34 -28 -62.5 -37t-103.5 -15q-113 -8 -155 -22 q-36 -13 -305 -50t-319 -37q-45 0 -85.5 14t-150.5 18l-107 3l-9 -121q-4 -67 -4 -131q1 -51 3 -101q6 -113 8 -234l4 -120l206 67q238 80 408 82h8q164 0 280 -74q64 -40 108 -127q28 -54 28 -87q0 -20 -10 -33q-21 -26 -49.5 -16t-84.5 60q-30 27 -67 50t-61 30 q-49 15 -115 15q-47 0 -101 -8q-132 -18 -229 -66q-71 -35 -144.5 -60t-107.5 -25h-46l-3 -202q-3 -201 -3.5 -260t-11.5 -70q-21 -22 2 -25h7q34 0 66 28q21 18 128 53q65 21 131.5 29.5t220.5 13.5q248 12 352 28q117 21 242 22h12q115 0 138 -19q17 -12 19 -22t-8 -32 q-8 -21 -28 -32.5t-63 -19.5l-217 -51q-95 -23 -197.5 -38t-302.5 -33q-134 -11 -221 -31.5t-160 -53.5q-102 -49 -137 -49q-39 0 -63 27q-20 22 -19 49q0 7 1 13q1 11 -28 37q-21 16 -24 28t6 39q11 31 11 111q0 23 -1 50q-10 309 -22.5 562t-19.5 274t-13 84 q-8 86 -26.5 156t-39.5 100q-25 34 -25 85q0 13 2 28z" />
<glyph unicode="F" horiz-adv-x="1425" d="M45 1774q-3 36 -3 64q0 47 9 72q15 40 65 58q28 9 42 7.5t35 -18.5q27 -21 40 -40t25 -52q2 -9 6.5 -11.5t17.5 2.5t32 16l56 32q105 64 173 77q49 9 99 9q36 0 72 -4q88 -10 217 -53q143 -44 193 -79q46 -32 46 -78v-9q-6 -53 -42 -65q-14 -5 -36 -4q-34 0 -87 11 q-95 21 -133.5 41.5t-151.5 34.5q-58 8 -91 8q-10 0 -17 -1q-32 -3 -87 -22q-97 -35 -132 -45t-53.5 -8t-42.5 20l-41 31l-10 -105q-4 -47 -4 -116q0 -56 2 -126q6 -157 23 -307q23 -211 34 -558q8 -259 17 -280q3 -7 3 -15q-1 -21 -21 -45q-28 -32 -61 -33q-42 0 -54 17 q-13 16 -29 197t-23 374q-4 117 -31.5 445t-39.5 405q-7 42 -17 153zM400 946q-4 13 -4 23q0 15 8 25q13 17 65.5 40.5t85.5 25.5h5q34 0 109 -18q131 -31 305 -31q89 0 188 8q96 8 134 8h13q32 -2 50 -18q24 -22 24 -52q1 -8 -1 -17q-8 -41 -51 -66q-77 -46 -303 -50h-44 q-200 0 -371 37q-123 27 -163.5 43t-49.5 42z" />
<glyph unicode="G" horiz-adv-x="1667" d="M46 598q14 192 91 407q46 129 70 181.5t76 140.5q75 132 92.5 158t44.5 48q31 25 31 39q0 16 56 67.5t108 83.5q56 37 63 46.5t127 85.5t165.5 110t106.5 54q41 12 86 12q17 0 35 -1q66 -7 104 -35q74 -53 108 -135q17 -38 17 -66q0 -31 -21 -47q-26 -18 -51 -18l-19 2 q-35 9 -91 60q-31 26 -61 44.5t-43 18.5q-69 0 -330 -192q-167 -123 -258 -219t-155 -215l-73 -133q-35 -59 -128 -346q-29 -93 -29 -169q0 -27 4 -52q14 -95 81 -144q79 -59 128 -75t148 -16q128 0 211 37t190 142q82 81 113 126t31 84q0 24 -9 28t-47 0q-58 -6 -58 -23 q0 -8 -16.5 -18t-41.5 -18q-42 -13 -55 -9.5t-38 33.5q-42 52 -42 78t53 72q63 53 76.5 53t91.5 54q45 31 87 48t105 31q231 48 323 48q17 0 29 -2q47 -7 72 -31q22 -23 22 -48q0 -28 -30 -51q-29 -21 -77 -21q-59 0 -139.5 -30t-99.5 -60q-21 -29 -21 -75.5t-15 -54.5 t-15 -35q0 -36 -42.5 -115.5t-87.5 -123.5q-42 -42 -47.5 -57.5t5.5 -53.5l38 -132q22 -78 71 -130q41 -42 50 -87q2 -13 2 -24q0 -29 -18 -48q-17 -19 -47 -19q-12 0 -25 3q-49 10 -81.5 46.5t-58.5 109.5q-28 84 -53.5 134t-38.5 47.5t-105 -41.5q-63 -27 -103 -34 q-31 -4 -103 -4h-49q-162 3 -206 18q-56 22 -137.5 82.5t-107.5 99.5q-43 66 -43 200q0 35 4 76z" />
<glyph unicode="H" horiz-adv-x="1444" d="M44 1744q-2 3 -2 6q0 6 8 12q12 8 20 47q4 17 16 33t26 23q30 15 58 15q40 0 75 -31l38 -33l-18 -98q-10 -55 -20 -148.5t-15.5 -191t-7.5 -186.5q-1 -40 -1 -73q-1 -41 1 -72q2 -56 12 -57q11 0 39 21q69 47 412 50q127 0 193.5 -6t94.5 -22.5t28 -46.5q0 -41 -45 -60.5 t-175 -39.5q-155 -22 -241 -38q-47 -8 -95 -8q-25 0 -49 2q-74 6 -129 29q-50 21 -55.5 15.5t-9.5 -276.5q-10 -441 -40 -478q-16 -21 -46.5 -18.5t-45.5 27.5q-14 21 -19 191q-1 47 -1 84q0 93 9 106q7 13 15 272q8 260 12 380q1 33 1 66q0 88 -9 175l-19 220 q-9 99 -15 109zM1137 140q-1 2 -1 10q0 24 8 98q12 100 19 170.5t14 105.5q7 32 17 237.5t10 313.5q-1 419 -28 510q-19 60 -19 98q1 6 1 11q4 39 32 69q38 36 81 36q4 -1 8 -1q48 -4 83 -48q35 -43 40 -78q2 -11 2 -30q0 -43 -8 -126q-14 -148 -35 -547 q-6 -128 -21.5 -254.5t-27.5 -162.5q-13 -35 -21 -135q-21 -262 -38 -262q-4 0 -5.5 -2.5t0 -8t5.5 -12.5q7 -14 7 -45q0 -15 -2 -35q-6 -58 -20 -76q-15 -20 -30 -20q-17 0 -33 26q-20 32 -27 92q-7 58 -11 66z" />
<glyph unicode="I" horiz-adv-x="337" d="M43 1764q-1 15 -1 28q0 36 10 54q14 24 77 57q37 20 50 20q1 -1 2 -1q12 -2 46 -32q41 -40 59 -88q10 -28 11 -53q0 -19 -6 -38q-15 -48 -19 -161q-19 -465 -31 -566l-21 -164q-15 -100 -14 -185v-15q2 -92 18 -221q10 -77 10 -106v-7q-2 -26 -16 -41q-16 -15 -36 -15 q-15 0 -33 8q-41 20 -47 64q-18 119 -35 194q-9 38 -9 105q0 86 15 219q8 65 15 394q2 124 2 201v79q-2 78 -17 123q-23 74 -30 147z" />
<glyph unicode="J" horiz-adv-x="1296" d="M52 763q20 42 49 42q10 0 20 -4q43 -18 68 -98q15 -46 61.5 -120.5t79.5 -105.5q26 -23 30.5 -34.5t115.5 -113.5l60 -54q21 -19 44 -32t37 -14.5t34 7t36.5 22.5t43.5 42q70 70 153 195t83 160q0 13 49 123q42 91 52.5 175t13.5 342v45q0 108 -8 168q-10 73 -36 103.5 t-78 30.5q-47 0 -77 18.5t-51 57.5q-21 41 -21 76q0 36 26 92q17 39 33 55t43 25q44 12 68 12h7q24 -3 65 -29q116 -70 158.5 -208t42.5 -439q-1 -308 -40 -477.5t-144 -313.5q-47 -63 -47 -81t-25.5 -43.5t-73.5 -96t-66.5 -91t-41.5 -52.5q-24 -36 -90.5 -77.5 t-101.5 -41.5q-67 0 -137 56t-235 241q-46 53 -63.5 79t-73.5 122q-72 124 -72 195q0 24 9 42z" />
<glyph unicode="K" horiz-adv-x="1481" d="M42 1719q0 91 78 111q34 8 45 8t42.5 -12.5t74.5 -49.5t43 -54q0 -13 21 -57q15 -37 32.5 -158.5t26.5 -246.5q5 -106 16 -147l12 -41l149 126q171 143 357.5 256.5t340.5 168.5q51 18 83.5 18t57.5 -20q19 -15 19 -32q0 -46 -134 -113q-103 -52 -103 -63.5t-19 -11.5 q-29 0 -240 -144q-77 -53 -234 -183t-164 -147q-1 -3 -1 -6q0 -19 38 -51q44 -36 76 -36q34 0 98 -58q30 -27 48 -55.5t35 -73t33.5 -134t34 -200.5t45.5 -313q5 -29 33.5 -99t45.5 -89q26 -30 26 -63q0 -9 -2 -19q-10 -42 -52 -42q-27 0 -90 43q-59 39 -88 110t-62 251 q-40 229 -58.5 314t-30.5 108q-20 32 -45 56.5t-42 24.5q-20 0 -64 18q-35 15 -59 15q-17 0 -29 -9q-26 -21 -34 -109q-8 -66 -20 -136l-21 -123q-28 -202 -95 -233q-9 -4 -18 -4q-20 0 -42 21q-17 17 -17 49t17 136q5 42 13 134q9 91 23 155q9 40 9 97q1 33 -3 73 q-7 86 -7 139v23q3 61 3 122q0 92 -6 186q-10 156 -34 229q-18 62 -18 71q0 24 -22 59q-24 38 -45 49q-35 19 -56 63.5t-21 98.5z" />
<glyph unicode="L" horiz-adv-x="1206" d="M42 434q-1 8 -1 18q1 51 19 141q22 107 49 170q42 95 110.5 228t108.5 193q123 191 140 303q14 92 67 178t109 109q16 6 35 6t45 -6q48 -12 73 -39q29 -36 29 -76q0 -6 -1 -12q-5 -47 -49 -117q-164 -255 -202 -294q-29 -32 -29 -40.5t-49 -85.5q-83 -127 -178 -318 q-30 -58 -62 -162q-29 -96 -30 -128q0 -3 1 -6q3 -21 5 -80.5t34 -97.5q24 -28 43 -31q4 -1 12 -1q26 0 91 8q112 14 189.5 38t218.5 25q5 0 10 1q136 0 198 -28q64 -28 123 -116q14 -21 14 -30.5t-17 -28.5q-25 -26 -51.5 -25.5t-98.5 27.5q-73 29 -172 29h-4 q-102 0 -182 -31q-63 -22 -158.5 -39t-155.5 -17q-115 0 -192.5 92t-91.5 243z" />
<glyph unicode="M" horiz-adv-x="1723" d="M42 184v11q0 42 25 61q17 16 88.5 159.5t71.5 164.5q0 16 19 47t37.5 109.5t49.5 254.5q34 191 49.5 254.5t23.5 127.5q7 55 20.5 76t45.5 28q32 5 54 5q12 0 22 -2q26 -4 55 -32q30 -27 43 -65.5t41 -179.5q45 -237 88.5 -338t100.5 -101q21 0 103 52.5t82 66.5 q0 16 86 112q35 40 63 79.5t30 55.5q10 38 18 52t10 33q9 45 23 68t47 44q34 23 57 23h7q24 -4 58 -42q16 -16 22 -56t9 -133q6 -164 14 -199q10 -49 48.5 -171.5t46.5 -132.5q10 -14 51 -140q31 -96 31 -113q0 -18 -19 -31q-15 -11 -31 -11q-60 0 -138 155q-56 111 -66 140 l-46 127q-37 98 -37 120.5t-19 50.5q-16 20 -23 18t-30 -33q-34 -42 -140 -153q-121 -126 -207 -158q-35 -13 -71 -13q-52 0 -105 27q-42 21 -91.5 82t-49.5 90q0 32 -12 32t-29.5 78t-32.5 88q-6 4 -8 2t2 -9q9 -16 -5 -24.5t-14 -47.5t-20.5 -98t-21.5 -68 q-3 -31 -47 -169t-86 -250q-37 -95 -42 -134q-6 -48 -20 -69t-48 -35q-25 -10 -49 -10q-51 0 -98 45q-32 29 -36 79z" />
<glyph unicode="N" horiz-adv-x="1626" d="M45 207q3 27 13.5 54t21.5 40q28 31 64 102l79 156q100 198 100 240q0 23 19 54.5t36.5 152t26 155.5t5.5 46v6q0 23 14 97q17 88 25 98q10 14 28 107l26 127q7 35 11.5 96.5t44.5 102.5q39 42 83 42q2 -1 6 -1q48 -4 81 -55q28 -40 28 -67q0 -6 -1 -11q-7 -30 -14 -86 t-21 -148q-8 -56 -8 -147q0 -106 11 -259q21 -284 59 -409l46 -155q19 -69 62 -135t79 -82q30 -14 52 11t77 136q59 116 128 317.5t95 328.5q5 26 14 40.5t15 63.5t27 109q20 66 28 144q3 28 3 47q0 33 -8 39q-15 8 -15 62t35 82q23 18 51 18q14 0 28 -4q44 -14 65 -63 q17 -41 19 -113v-12q0 -64 -15 -112q-12 -42 -21 -96q-9 -69 -78 -286q-27 -85 -57 -198t-42.5 -128t-71.5 -177l-75 -205q-17 -45 -57 -110t-62 -85q-27 -23 -77 -27q-8 -1 -15 -1q-40 0 -72 16q-48 22 -114.5 96t-104.5 144q-54 104 -97 265.5t-52 299.5q-3 46 -13 36 q-11 -11 -24 -77q-17 -90 -49.5 -167.5t-57 -145.5t-36.5 -75t-12 -35t-43 -117.5t-52 -138t-42 -92.5t-70 -46h-4q-36 0 -85 37q-33 25 -39 40q-3 8 -4 23q0 14 3 35z" />
<glyph unicode="O" horiz-adv-x="1481" d="M46 445q10 98 56 298q27 112 49.5 176t75.5 179q33 70 43 105.5t29 56.5t62 106q91 182 257 339.5t303 191.5q43 11 75 11q10 0 18 -1q38 -4 123 -32q168 -55 233.5 -182.5t68.5 -397.5v-28q1 -109 -13 -227q-16 -133 -32 -143q-12 -7 -12 -35q0 -61 -93 -227 t-222.5 -339.5t-223.5 -256.5q-115 -99 -174.5 -132t-168.5 -57q-45 -10 -87 -10q-154 0 -274 129q-41 44 -58.5 93.5t-28.5 151.5q-10 82 -10 150q0 43 4 81zM212 444q-7 -72 -7 -129q0 -99 22 -150q42 -101 114 -131q35 -15 81 -16q48 0 107 17q56 15 91 39.5t114 100.5 q119 115 175 193q155 214 228 346t103.5 256.5t37.5 311.5q2 62 2 111q0 81 -6 124q-10 69 -48 121q-22 30 -32 30h-2q-10 -2 -2 -38q2 -9 2 -19q0 -35 -22 -81q-18 -36 -32 -47.5t-39 -11.5q-41 0 -70 29t-29 68q0 68 -53 68q-9 0 -20 -2q-41 -9 -60 7q-6 5 -16 5 q-35 0 -116 -68q-104 -87 -182 -199q-59 -83 -136.5 -249.5t-123.5 -306.5q-61 -181 -81 -379z" />
<glyph unicode="P" horiz-adv-x="1576" d="M70 505q22 142 32 240.5t16 254.5q5 128 15 254q4 52 4 85q-1 14 -1 25q-2 37 -14 67q-19 43 -19 102q0 17 2 36q7 82 45 174q32 83 120 83q13 0 35.5 16t41.5 40q48 54 101 68q40 10 129 10q57 0 135 -4q198 -11 300 -38q195 -49 330.5 -133.5t172.5 -178.5 q21 -55 21 -130q0 -36 -5 -78q-15 -128 -61 -197q-28 -38 -28 -45q0 -5 -85.5 -89t-131.5 -123q-42 -35 -113 -58q-100 -30 -340 -36q-43 -1 -83 -1q-177 0 -261 20q-14 5 -28.5 17.5t-21.5 27.5q-10 21 -8 33t19 30q16 17 36 22.5t62 4.5q25 -1 57 -1q92 1 234 9 q192 12 240 24q144 38 257 206q59 86 79 162q10 36 10 67q0 34 -12 62q-21 48 -59.5 83.5t-85.5 50.5q-55 19 -83 31q-131 59 -330 59q-119 0 -180 -8.5t-94 -31t-55 -71.5q-17 -33 -32.5 -49t-37.5 -21q-27 -5 -41 -29.5t-25 -82.5t-27 -190q-22 -192 -36 -262.5 t-34 -289.5q-32 -352 -42.5 -428.5t-29.5 -97.5q-23 -26 -47 -26h-3q-26 2 -47 32q-21 29 -21 81q0 55 28 222z" />
<glyph unicode="Q" horiz-adv-x="1664" d="M49 678q17 161 57 212q27 34 27 61q0 19 22.5 61t99.5 171q78 130 211 271.5t268 241.5t221 117q57 11 155 11t107 -12q8 -14 32 -15t94.5 -35t85.5 -36q24 -1 83.5 -65.5t80.5 -112.5q30 -67 30 -195q0 -34 -2 -71q-10 -182 -57 -298l-37 -99q-35 -104 -132 -256 t-205 -271l-66 -72l65 -86q63 -84 63 -93.5t63.5 -91t63.5 -100.5q0 -21 -33 -53.5t-55 -32.5q-23 0 -107.5 82.5t-108.5 127.5q-28 56 -77 85q-26 16 -42 16t-24 -13q-9 -15 -93 -56.5t-152 -63.5q-64 -21 -131 -21q-57 0 -115 15q-127 33 -232 129q-63 59 -99.5 123.5 t-54.5 152.5q-13 64 -13 145q0 59 7 127zM211 566v-17q0 -107 12 -153q15 -59 60.5 -117t100.5 -87q65 -37 142 -37q95 0 208 58q89 45 106.5 64.5t-3.5 50.5q-31 48 -31 84q0 27 16 47q21 30 88 31h2q66 0 95 -27q21 -19 31.5 -15t47.5 46q91 101 184.5 267.5t121.5 278.5 l37 149q20 80 20 165q0 31 -3 63q-7 57 -22 52q-18 -16 -11 -34t-7 -57.5t-31 -48.5q-16 -12 -38 -12t-39 12q-17 9 -40 101t-34 103q-7 8 -18 8q-34 0 -103 -68q-56 -55 -98 -55q-18 0 -33 10q-14 10 -14 39q0 11 2 23q6 49 30.5 87.5t17.5 44.5q0 1 -2 1q-15 0 -116 -49 q-64 -31 -114.5 -69t-118.5 -105q-122 -119 -156 -167l-64 -84q-35 -43 -82.5 -123t-63.5 -120q-47 -128 -62.5 -191.5t-17.5 -148.5z" />
<glyph unicode="R" horiz-adv-x="1533" d="M44 1701q-1 10 -1 20q0 33 7 51q9 23 38 41q46 27 84 27q32 0 45.5 14.5t-3.5 31.5q-7 7 -7 21q0 32 32 103q5 9 34 28.5t67 39.5q67 33 104.5 38.5t178.5 5.5l190 -1l107 -56q116 -60 193.5 -140t131.5 -190l44 -96q13 -25 13 -77q0 -16 -2 -36q-6 -80 -30 -157 q-20 -63 -41 -97t-71 -85q-77 -78 -159 -116.5t-211 -58.5q-222 -32 -222 -95q0 -34 69 -107.5t164 -137.5l175 -127q96 -72 258 -180q146 -99 206 -157q52 -52 53 -90q0 -5 -1 -10q-9 -40 -43 -56q-15 -7 -30 -7q-19 0 -37 12q-292 185 -652 460q-146 112 -192.5 150.5 t-79.5 71.5q-81 87 -102 175q-6 26 -6 50q0 54 34 92q34 36 109.5 70.5t122.5 34.5t56 9.5t69 12.5q86 3 181 59t151 134q22 32 29 59q6 24 6 64v12q-3 75 -32.5 137.5t-100.5 137.5q-76 82 -132 105.5t-186 29.5q-40 2 -71 2q-58 -1 -84 -9q-38 -14 -56 -66 q-11 -39 -50.5 -72.5t-71.5 -33.5q-25 0 -32 -7t-7 -33q1 -49 1 -147q0 -223 -6 -699q-9 -688 -15 -696q-8 -16 -50 -31q-25 -9 -40.5 -6t-38.5 20l-36 28l8 187l12 321q1 23 1 51q-1 137 -17 390q-20 305 -39 427q-17 106 -19 154z" />
<glyph unicode="S" horiz-adv-x="1656" d="M59 88q-17 48 -17 86q0 62 45 100q43 37 56 37q19 0 52 -36.5t37 -63.5q3 -21 15 -30t46 -16q35 -7 104 -7q46 0 107 3q153 8 239 29q279 68 363.5 94.5t129.5 61.5q50 38 50 60t-29 74q-47 83 -199 184.5t-350 182.5q-175 71 -273.5 116.5t-161.5 90t-82.5 81.5 t-19.5 89q0 40 7 65.5t35 52.5t72 52.5t129 67.5q121 58 364.5 140t502.5 151q86 23 114 23q4 0 7 -1q22 -4 74 -12q54 -9 96 -54.5t42 -95.5q0 -31 -9 -50t-34 -40q-39 -33 -59 -34h-1q-20 0 -66 27q-34 20 -60 24q-10 1 -25 1q-27 0 -71 -4q-189 -15 -432 -101 q-153 -54 -253 -96q-98 -41 -146 -71q-44 -28 -45 -46q0 -12 42 -38q43 -26 137 -75q174 -91 314 -148q110 -44 263.5 -141t182.5 -142q28 -42 38 -42t62 -85q34 -60 42 -86q5 -17 6 -46q0 -16 -2 -35q-6 -60 -27.5 -120.5t-45.5 -78.5q-17 -12 -176.5 -63.5t-181.5 -52.5 q-25 0 -86 -21q-105 -36 -408 -70q-93 -9 -171 -9q-103 0 -181 16q-137 29 -162 102z" />
<glyph unicode="T" horiz-adv-x="2111" d="M43 1357q5 65 41 89.5t141 31.5q86 7 174 27.5t406 105.5q361 97 609.5 150t488.5 84q41 4 65 7h4q23 0 59 -31l38 -33l-26 -55q-20 -42 -37 -50.5t-89 -13.5q-100 -10 -248.5 -38t-212 -38t-202.5 -46l-137 -36l28 -54q16 -30 18.5 -52t-4.5 -54q-32 -147 -39 -425 q-2 -61 -2 -113q0 -186 20 -264q13 -47 12 -64q0 -7 -2 -9q-8 -8 15 -35q21 -22 38 -105q12 -56 12 -91q0 -16 -3 -27q-9 -33 -37 -49q-14 -7 -29 -7q-24 0 -49 18q-42 30 -77 103q-54 115 -74 298q-16 152 -17 432q0 57 1 120q1 81 1 142q0 182 -9 182q-7 0 -227 -64 q-141 -42 -232 -75t-216 -86q-45 -19 -76 -19q-5 1 -9 1q-34 4 -72 35q-33 29 -40 46q-5 13 -5 43v19z" />
<glyph unicode="U" horiz-adv-x="1768" d="M43 489q-1 27 -1 52q0 94 12 159q15 83 93 368q27 100 62 249.5t47 222.5q10 53 20.5 76t32.5 39q41 28 88 28q17 0 35 -4q68 -14 87 -69q16 -43 16.5 -89.5t-13.5 -55.5t-5.5 -23t-14.5 -49t-15.5 -48.5t-4.5 -20.5q-14 -9 -60.5 -95.5t-75.5 -160.5q-59 -145 -92 -291 t-33 -256q2 -56 9.5 -89.5t29.5 -75.5q66 -122 134 -150q23 -9 50 -9q53 0 120 37q62 33 208 171t146 162q0 20 66.5 91t101 135t72.5 120q57 85 82.5 149.5t37 155.5t21.5 280q3 70 5 100l4 58q2 30 8.5 41t12 18.5t19.5 20.5q39 33 79 33q13 1 27 -3q54 -16 86 -85 q16 -37 20 -67q1 -10 2 -23q0 -27 -5 -69q-11 -100 -28.5 -163.5t-22.5 -84.5l-28 -119q-20 -84 -20 -178q0 -39 4 -79q12 -138 58 -254q17 -42 44.5 -118.5t79.5 -123.5q82 -74 82 -125q0 -26 -26.5 -46t-61.5 -20q-39 0 -110.5 67.5t-106.5 135.5l-57 110q-27 49 -56 144 l-28 94l-49 -75q-115 -168 -253.5 -324.5t-239.5 -232.5q-52 -38 -66.5 -56t-105.5 -54q-75 -31 -134 -31q-1 1 -2 1q-60 0 -121 31q-51 27 -117.5 100.5t-100.5 141.5q-27 53 -35 93t-13 133z" />
<glyph unicode="V" horiz-adv-x="1521" d="M46 1592q-4 32 -4 56q0 30 7 43q17 30 39.5 53t40.5 30q26 9 50 9q97 0 171 -151q30 -60 34 -109q1 -9 1 -17q0 -37 -18 -58q-12 -13 -12 -76q-1 -49 7 -128q16 -180 61 -403q14 -70 23 -131.5t21.5 -84.5t36.5 -108q36 -122 49.5 -158t31.5 -65q10 -15 26 -27t27 -12 q23 0 96.5 71.5t73.5 92.5q0 16 20 33t48 69q117 221 131 229q9 7 39 86q40 112 103 229q13 24 13 44.5t21.5 38.5t15.5 43.5t5 32.5q17 12 28 104q5 46 5.5 76t-5.5 45q-14 35 -14 95q0 66 15 108q13 36 52 57q33 18 71 18q6 -1 12 -1q44 -4 68 -31q26 -28 38 -79 q6 -25 6 -42q0 -18 -7 -26q-21 -23 -48 -218q-3 -21 -11 -42l-50 -148q-93 -271 -153 -397q-46 -99 -92 -247q-30 -97 -49.5 -136t-61.5 -84q-66 -72 -103.5 -117.5t-53 -45.5t-38.5 -37q-9 -14 -25.5 -29.5t-27.5 -21.5q-31 -12 -66 -33q-28 -17 -64 -17q-8 0 -17 1 q-39 7 -92 43t-53 55q0 18 -23 60q-46 90 -131.5 396.5t-85.5 386.5q0 59 -61.5 290t-89.5 276q-21 35 -31 109z" />
<glyph unicode="W" horiz-adv-x="2063" d="M42 1785q0 32 25 58t69 39q40 12 49 14h1q18 0 58 -56q40 -58 44 -94q9 -55 23 -111q35 -141 38 -181v-8q0 -36 -20 -77q-21 -42 -23 -77v-17q0 -41 6 -137q11 -172 18 -206q9 -32 18.5 -241t11.5 -355q1 -151 9.5 -159.5t45.5 25t37 50.5q0 15 35 42q27 21 108 173 t91 201q7 39 47.5 63.5t98.5 24.5q43 1 57.5 -6t30.5 -36q14 -24 18 -54q1 -11 1 -27q0 -27 -4 -67q-2 -31 -2 -57q1 -29 3 -51q6 -42 27 -112q32 -107 74 -164t105 -84q56 -25 110 -25q21 0 42 4q75 13 173 74q77 48 187.5 160t138.5 171q43 88 43 185q0 65 -20 134 q-48 171 -213 347q-25 28 -51 68t-37 71q-17 47 -18.5 65.5t12.5 44.5q23 42 49.5 58t72.5 16q39 0 52.5 -14.5t53.5 -101.5q56 -116 79.5 -135.5t23.5 -39t11 -19.5t66.5 -85.5t76.5 -133.5q22 -54 26 -204q1 -23 1 -44q0 -116 -16 -169q-24 -71 -24 -87q0 -15 -56.5 -97 t-87.5 -111q-195 -188 -205 -188q-7 0 -72 -46q-108 -77 -180 -90l-96 -18q-28 -5 -57 -5q-73 -1 -155 31q-112 44 -180 125q-31 38 -75 120.5t-58 133.5q-7 22 -14 27.5t-17.5 -4t-26.5 -37.5q-32 -55 -109.5 -155t-128.5 -153q-74 -79 -141 -79l-1 -1q-66 0 -115 75 q-16 21 -22 103t-13 326q-13 395 -20.5 408t-14.5 83q-20 202 -30 360q-15 245 -43 392q-21 111 -21 147z" />
<glyph unicode="X" horiz-adv-x="1696" d="M42 388q0 28 33.5 75.5t75.5 78.5l150 109q97 71 104.5 71t86 56t95.5 56q21 0 48 34.5t16 45.5q-13 14 -86.5 162.5t-99.5 215.5l-45 109q-15 35 -18 56q-11 114 -100 166q-67 39 -73 75q-1 4 -1 7q0 32 48 70q53 44 84 53q32 11 63 11q4 -1 8 -1q35 -2 53 -15 q30 -25 56 -71.5t34 -88.5q13 -73 48 -201t54 -177q46 -108 87.5 -187t52.5 -79q14 0 107 68t145 116q42 40 88.5 63t64.5 50.5t30 27.5t71 41l93 63q35 22 97 65q60 44 97 44q6 1 12 -1q33 -7 33 -53q0 -8 -1 -18q-2 -29 -13.5 -44.5t-43.5 -33.5q-53 -29 -89 -60 t-47.5 -31t-45.5 -36.5t-126 -110t-163 -139t-138 -116.5q-28 -22 -47.5 -44.5t-19.5 -33.5q0 -25 42.5 -79t42.5 -64t39 -50q65 -69 147.5 -215.5t82.5 -193.5q0 -27 -28 -74t-43 -47q-55 0 -104 107q-28 60 -101 173.5t-113 158.5q-32 35 -77.5 109.5t-50.5 74.5t-24 -18 t-183 -126.5t-182 -131t-35 -22.5q-14 0 -75 -56.5t-61 -70.5t-40 -14q-34 0 -74.5 32t-40.5 59z" />
<glyph unicode="Y" horiz-adv-x="1271" d="M43 1592q-2 6 -2 13q0 28 29 67q36 50 80 65q42 16 43 16q1 1 2 1q10 0 43 -21q38 -24 57 -43q27 -24 86.5 -135.5t59.5 -137.5q0 -23 35 -79.5t35 -93.5t49 -161t57.5 -164t28.5 -56t20 -47q0 -19 6 -21q8 0 15 38q6 31 48 119q57 125 72 160.5t15 50.5q0 17 47 125.5 t62 129.5q13 17 36 73.5t38 110.5q23 71 83 106q30 17 55 17q26 0 47 -18q39 -36 39 -82q0 -7 -1 -13q-6 -55 -66 -148q-28 -42 -42 -77t-27 -57q-75 -134 -107 -211q-26 -65 -65 -150q-99 -214 -99 -241q0 -21 -10.5 -21t-37.5 -66q-75 -192 -116 -259q-21 -35 -56 -113 q-53 -118 -140 -286.5t-106 -195.5q-19 -24 -27 -26h-2q-8 0 -23 14q-16 16 -16 26t14 38q23 41 39 101t65 161.5t49 126.5t19.5 72t44 135.5t44.5 104.5q21 17 19 46.5t-28 64.5q-29 41 -48.5 94.5t-56.5 123t-37 90t-33 87t-53 122.5q-18 58 -63 110.5t-88 66.5 q-88 30 -88 91q0 33 -23 51q-8 7 -13.5 23t-4.5 31q2 37 -3 51z" />
<glyph unicode="Z" horiz-adv-x="1710" d="M50 1468q-9 24 -9 46q1 22 9 44q18 42 63 62q42 19 76 19q5 -1 11 -1q38 -4 100 -34q75 -36 164 -41.5t323 -27.5t283 -23h10q56 0 150 10q104 10 162 22q68 16 141 23q25 2 42 2q20 0 27 -3q14 -6 40 -47q26 -42 26 -56.5t-13 -40.5q-23 -42 -33.5 -49t-64.5 -79 q-73 -97 -195.5 -215.5t-199.5 -165.5q-162 -101 -176 -121q-7 -11 -48 -21q-42 -11 -189.5 -97.5t-213.5 -140t-133 -115.5t-67 -69q0 -9 19.5 -9.5t47.5 5t50 13.5q45 21 94 30q122 19 181 36q47 13 171 13q5 0 10 1q115 0 128 -12t77 -30q62 -18 136.5 -73.5t83.5 -87.5 q6 -24 6 -43q1 -40 -27 -56q-14 -8 -30 -9q-32 0 -74 33q-46 33 -81 43.5t-83 45.5q-42 32 -128 37q-18 1 -40 1q-83 0 -221 -15q-94 -12 -140 -23.5t-103 -42.5q-134 -70 -222 -74h-9q-81 0 -103 60q-13 36 -13 63q0 16 4 28q12 35 71 92q77 73 85 97q3 10 12 17t17.5 7 t22.5 9t24 21q27 33 118.5 110.5t98.5 85.5q14 13 78.5 55.5t71.5 42.5q10 0 54 33t79.5 50t92.5 52.5t92 52.5q91 43 232 176q88 83 97 97q11 21 -26 25q-17 2 -102 2h-64q-58 -1 -105 -1q-126 -1 -168 9q-56 14 -367 22l-312 7l-56 41q-47 34 -65 82z" />
<glyph unicode="[" horiz-adv-x="935" d="M45 113q-6 30 2 62t37 94q49 106 49.5 127t9.5 56q11 49 29 143q10 56 30 283q7 91 15 141l11 86q10 58 21 190.5t11 180.5q0 67 14 84.5t26 60.5q7 32 56 91.5t77 73.5q43 19 155 6t176 -45q52 -25 93.5 -84.5t34.5 -98.5q-7 -41 -29.5 -65.5t-72.5 -46.5 q-54 -24 -91 -15t-86 60l-52 51l-29 -29q-31 -29 -32.5 -56t-24.5 -119q-41 -161 -85 -476t-33 -371q4 -25 -7 -93t-31 -131q-14 -45 2 -73q14 -28 72.5 -42t102.5 0q36 11 93.5 12t88.5 -9q28 -8 40.5 -46t4 -77t-35.5 -53q-28 -14 -80.5 -21t-99.5 -23q-35 -11 -151.5 -7 t-190.5 18q-36 7 -73 57t-47 104z" />
<glyph unicode="\" horiz-adv-x="1562" d="M90 1560q-14 51 4 96t64 66q65 28 95 6.5t66 -122.5q24 -70 33 -84t87 -163t160 -267l104 -148l125 -167q106 -143 127 -168q17 -22 64 -88l105 -142q63 -84 86 -109q49 -56 170 -231q58 -82 44 -115q-6 -9 -17 -9q-20 0 -164 146t-248 269q-112 138 -123.5 138 t-25.5 31.5t-38 67.5l-56 83q-51 78 -221 280q-55 64 -90.5 137t-58 97.5t-38.5 50.5q-37 67 -101 151t-96 110q-43 33 -57 84z" />
<glyph unicode="]" horiz-adv-x="936" d="M45 1522q-7 38 7 68.5t59 71.5q36 32 71 49t99 31q56 12 145 8q63 -3 82.5 -11.5t54.5 -47.5q50 -56 66 -98.5t30 -68.5t14 -106q-1 -109 34 -350q29 -203 41 -382q7 -84 30 -190.5t27 -127.5q13 -85 60 -168q21 -36 26 -60t-1 -60q-8 -60 -44.5 -111.5t-75.5 -59.5 q-76 -14 -191.5 -18t-144.5 7q-43 18 -155 29q-27 3 -44.5 31.5t-17.5 69.5q0 36 17 67t38 32q9 2 56 7t106 -14q91 -26 150 11t32 106q-15 40 -25.5 105t-8.5 103q3 39 -32 322t-57 394q-55 280 -95 322q-16 15 -28.5 11t-51.5 -41q-55 -50 -92 -58t-89 19 q-50 25 -67.5 45.5t-24.5 62.5z" />
<glyph unicode="^" horiz-adv-x="1330" d="M83 721q18 56 37.5 82.5t68.5 60.5q59 39 155.5 133t96.5 110q0 13 42 47q17 15 47 56.5t54 84.5q61 106 70.5 106t46.5 82l63 131q10 20 27.5 39.5t31.5 26.5q32 17 73.5 17.5t68.5 -13.5q57 -31 85 -297q15 -147 21 -155q7 -13 66 -284q14 -63 18 -96t20 -49t16 -74 q0 -56 -25.5 -82.5t-74.5 -20.5q-61 5 -100.5 81t-81.5 267q-48 217 -65 238q-10 14 -24.5 6t-55.5 -52q-65 -68 -148 -171q-263 -323 -325 -371q-45 -35 -90.5 -29t-82.5 52q-17 21 -27.5 42.5t-7.5 31.5z" />
<glyph unicode="_" horiz-adv-x="1780" d="M45 -135.5q-10 26.5 17 48.5q18 14 130 50t140 37q29 0 129 28q64 18 120 21.5t199 -0.5q218 -8 303.5 -21t254.5 -22q234 -13 308.5 -23t86.5 -29q14 -24 -10 -51q-16 -16 -53.5 -22.5t-158.5 -10.5q-187 -6 -215 -21q-19 -10 -197.5 -27t-416.5 -29q-104 -6 -113 -11.5 t-145 -15.5q-105 -7 -168.5 3.5t-160.5 51.5q-40 17 -50 43.5z" />
<glyph unicode="`" horiz-adv-x="456" d="M42 1508.5q1 24.5 22 45.5q34 34 78 26t71 -53q29 -47 89.5 -117t60.5 -85.5t21 -30.5q23 -17 29 -67.5t-13 -74.5q-29 -36 -80 -11.5t-144 116.5q-46 46 -80 88t-37 56q-18 83 -17 107.5z" />
<glyph unicode="a" d="M50 678q20 107 97 270q8 19 51.5 69.5t94.5 101.5q71 70 116 103.5t95 54.5q91 38 176 38q18 1 38 -1q104 -10 170 -76q70 -68 99 -205q4 -15 16.5 -31t28.5 -25q29 -15 38 -69q4 -21 3 -44q0 -36 -8 -79q-4 -19 -4 -38q0 -51 26 -107q36 -78 104 -129 q59 -43 102.5 -63.5t100.5 -28.5q58 -10 80.5 -32t23.5 -68v-8q0 -25 -6 -39q-7 -16 -28 -33q-25 -19 -45 -19h-1q-21 0 -95 14q-153 31 -209 85l-56 51q-30 25 -73.5 87t-43.5 79q0 13 -20 30q-12 9 -26 1.5t-42 -39.5q-136 -153 -224.5 -214.5t-197.5 -81.5q-51 -8 -86 -8 q-17 0 -29 2q-40 6 -95 34q-66 37 -105 86.5t-57 122.5q-17 60 -17 122q0 43 8 87zM231 526q21 -74 91 -99q27 -10 57 -10q55 0 120 34q99 52 193 171q117 146 117 207q0 9 -3 17q-2 5 -2 11q0 19 16 50q15 28 15 40t-29 46q-36 43 -36 55.5t-45.5 41.5t-76.5 29 q-63 0 -182 -92t-159 -170q-21 -44 -31 -51t-34 -96q-19 -67 -20 -120q1 -35 9 -64z" />
<glyph unicode="b" horiz-adv-x="1352" d="M42 1259q6 58 66 92q39 22 72 22q8 1 16 -1q38 -6 78 -48q35 -35 45 -74q13 -53 27 -364q7 -155 14.5 -163t38.5 12q271 169 503 177q12 0 24 1q213 0 309 -147q53 -83 69 -180q7 -41 6 -80q0 -53 -12 -101q-21 -84 -76.5 -149.5t-135.5 -87.5q-60 -17 -173 -17 q-37 0 -77 2q-170 7 -284 36l-9 3q-107 28 -147 40l-84 24q-44 12 -60.5 23l-29 20t-34.5 30l-2 1l-60 59l8 93q9 99 9 198q0 82 -6 165q-14 183 -52 260q-44 86 -44 141q0 7 1 13zM427 424h7q25 -1 83 -24q56 -21 163 -39q88 -15 140 -15q12 0 21 1q65 3 140.5 21t96.5 34 q46 34 46 106v20q-8 88 -70 147q-32 31 -52.5 38.5t-70.5 7.5q-85 -3 -147.5 -19t-143.5 -57q-121 -60 -196 -145q-34 -39 -34 -58q0 -14 17 -18z" />
<glyph unicode="c" horiz-adv-x="1152" d="M59 386q18 54 35 70.5t17 29.5q0 18 53.5 89.5t100.5 114.5l100 94q42 41 163.5 120t181.5 104q73 31 81 43t64 31q55 20 102 20q29 0 55 -8q68 -20 90 -83q9 -27 9 -50q0 -17 -5 -33q-11 -36 -53 -77q-45 -43 -87 -51q-10 -2 -18 -2q-31 0 -55 22q-31 30 -57 20 q-62 -20 -160 -74.5t-115 -76.5q-8 -11 -63 -41q-64 -35 -130 -110q-67 -74 -106 -154q-32 -65 -32 -108q0 -10 2 -18q10 -48 68 -86q81 -54 183 -76.5t311 -29.5l86 -5q34 -2 60 -6.5t40 -9t23 -13t10.5 -18.5t0.5 -25q-11 -87 -297 -87h-38q-174 3 -255 15 q-131 21 -228.5 92.5t-134.5 172.5q-19 52 -19 104q0 50 17 100z" />
<glyph unicode="d" horiz-adv-x="1346" d="M47 378q20 158 87 221q27 25 27 39q0 13 91.5 104.5t104.5 91.5q11 0 59.5 36t77 36.5t55.5 20.5q32 23 91 23q32 0 72 -6q114 -20 180 -75q42 -35 52.5 -53t10.5 -60q0 -35 -8 -55.5t-30 -39.5q-26 -26 -53 -26q-6 -1 -12 1q-32 6 -93 57q-51 44 -121 44q-7 -1 -13 -1 q-78 -4 -142 -57q-122 -99 -179.5 -184t-65.5 -177q-3 -25 -3 -45q1 -43 13 -67q18 -34 80 -59q51 -22 108 -22q87 0 187 51q73 38 166.5 125t93.5 116q0 18 10.5 23t54.5 96q26 60 34 95q6 28 6 82v29q-1 115 -26 312q-19 144 -19 262q0 122 20 216q39 186 147 231 q46 19 71 19h5q24 -2 57 -33q37 -35 49 -73q11 -33 11 -93q1 -7 1 -15q-2 -70 -17 -238q-7 -63 -14 -155q-6 -89 -35.5 -282.5t-43.5 -241.5q-6 -21 -6 -66q0 -49 7 -129q13 -152 38 -252q21 -84 25.5 -150.5t12.5 -78.5q9 -14 -11 -31q-13 -11 -25 -11q-6 0 -10 3 q-18 11 -64.5 97.5t-69.5 154.5q-33 86 -48 92q-7 1 -38.5 -24t-67.5 -63q-252 -253 -511 -253h-12q-242 4 -340 190q-33 63 -33 160q0 41 6 88z" />
<glyph unicode="e" horiz-adv-x="1248" d="M43 346q-1 8 -1 18q0 48 34 134q40 104 100 191q47 66 140.5 159t146.5 126q35 23 72 52q66 58 206.5 127t210.5 79t89 12h3q19 0 54 -19q71 -36 96 -97q13 -32 13 -70q0 -33 -10 -70q-14 -47 -86 -134.5t-131 -128.5q-57 -39 -149 -84.5t-113 -45.5q-22 0 -35.5 -13.5 t-127 -52t-121 -50t-94.5 -21.5q-63 -7 -75.5 -15t-19.5 -40q-3 -17 -3 -33q0 -48 30 -83q40 -46 147 -84q74 -27 183 -33q26 -1 51 0q84 0 172 13q44 8 66 8h5q22 -1 32 -12q11 -12 7.5 -24t-26.5 -40q-38 -45 -51.5 -45t-69.5 -27q-77 -37 -152 -47q-35 -5 -75 -5 q-46 0 -100 6q-98 13 -158.5 36.5t-128.5 79.5q-45 35 -83 103t-48 130zM445 732l55 10q54 10 141 40t142 57q81 39 148 109q51 53 51 78q0 8 -5 13q-6 6 -21 6q-12 1 -29 -3q-39 -8 -39 -23q0 -11 -35 -19.5t-106.5 -51t-78.5 -42.5q-9 0 -65 -42t-103 -84z" />
<glyph unicode="f" horiz-adv-x="1281" d="M44 1266q-2 14 -2 26q0 35 10 49q8 16 74 46q39 20 57.5 23t33.5 -6q25 -16 39 -16q17 0 17 25t42 92t42 84t59 66.5t102 69.5q45 21 137 38q58 10 110 10q58 0 109 -13q95 -24 170 -100q121 -120 121 -149q0 -17 26 -69q23 -41 39 -140q9 -54 9 -81q0 -23 -6 -27 q-11 -7 -2 -28q2 -4 2 -10q0 -20 -19 -59q-25 -50 -42 -50q-24 0 -38 26.5t-25 88.5q-10 63 -43 154.5t-47 97.5q-11 4 -11 21t-34.5 54t-60.5 52q-49 27 -121 34q-20 2 -40 2q-46 0 -84 -12q-81 -24 -129.5 -70.5t-97.5 -149.5q-59 -123 -73 -191q-5 -23 -5 -44 q0 -40 18 -71q16 -31 16 -47q0 -9 -5 -13q-17 -12 -32.5 -49.5t-15.5 -65.5v-16q0 -47 -8 -176q-10 -156 -10 -283q0 -145 13 -252q7 -53 7 -76v-12q-4 -17 -35 -43q-41 -34 -83 -34l-47 11q-65 31 -77 123q-9 54 -9 157q0 16 1 33q1 127 12 256q10 120 14 319q1 41 1 75 q0 93 -8 138q-11 60 -52 107q-15 19 -19 75zM371 477q0 26 87.5 58.5t177.5 42.5q110 11 126 14h7q23 0 61 -18q42 -20 52 -39q5 -10 5 -22q0 -22 -16 -51q-18 -29 -36.5 -39t-74.5 -17q-34 -4 -66 -4q-45 0 -84 9q-47 11 -67 11q-8 0 -12 -2q-6 -3 -16 -3q-24 0 -73 18 q-71 26 -71 42z" />
<glyph unicode="g" horiz-adv-x="1264" d="M45 267q10 51 15 87q9 45 62.5 148t100.5 162q58 74 144 154l109 102q17 17 87 73.5t91 70.5q14 10 63 52q21 18 54 33.5t59 20.5q49 9 103 9q27 0 55 -2q10 -1 34 -18t45 -39q53 -56 98 -77q47 -25 55 -68q2 -11 2 -28q0 -48 -17 -141q-1 -7 -20.5 -42t-22.5 -64 q-4 -43 -50 -155q-28 -66 -64 -187t-41 -168q-37 -301 -40 -586q-1 -158 -6.5 -198t-33.5 -86q-52 -84 -154 -163.5t-244 -142.5q-38 -16 -101 -16q-18 0 -38 1q-90 6 -144 34q-44 22 -85 66t-59 86q-24 56 -38 126q-9 43 -9 68q0 17 4 26q11 35 42.5 26t52.5 -54 q36 -78 74.5 -133.5t68.5 -72.5q35 -17 85 -17q2 -1 3 -1q50 0 110 19q62 19 119.5 47.5t108 68.5t76.5 82q2 1 3 4q31 48 38 90t20 246v21q10 160 10 255q0 121 -16 136q-1 1 -4 1q-15 0 -72 -29q-68 -34 -167 -66t-129 -52q-24 -15 -100 -15q-19 0 -42 1q-183 9 -248 98 q-26 38 -41 102q-9 39 -9 70q0 19 3 35zM202 262v-11q0 -51 44 -85q49 -36 130 -38h10q78 0 177 29q64 19 98.5 39.5t77.5 65.5q133 133 133 239q0 49 22 112t23 153v12q0 87 -14 157q-3 17 -28 17q-26 0 -77 -20q-94 -35 -167 -96q-68 -58 -81 -58q-17 0 -108.5 -96.5 t-134.5 -159.5q-96 -138 -105 -260z" />
<glyph unicode="h" horiz-adv-x="1412" d="M44 1664q-2 8 -2 17q0 24 15 54q10 21 24 37.5t24 19.5q24 8 45 20q13 8 32 7q10 -1 24 -3q36 -8 62 -30.5t52 -85.5q21 -50 22 -73q0 -6 -2 -10q-10 -27 -21 -503q-6 -250 -6 -371q0 -110 5 -114q4 -5 148 141q86 88 129 122.5t85 49.5q86 30 159 30q112 0 194 -70 q193 -164 220 -219q21 -39 43 -74q48 -77 66 -236q8 -70 8 -143q0 -92 -12 -187q-6 -47 -15.5 -65.5t-37.5 -34.5q-40 -24 -56 -24h-3q-15 3 -57 43q-43 42 -47 77q-1 5 0 11q0 36 24 105q24 71 24 137q0 31 -6 61q-16 94 -89 215q-31 51 -100.5 111t-104.5 67 q-71 14 -104 14q-8 0 -14 -1q-30 -4 -87 -41q-77 -49 -115 -97t-66 -76q-28 -30 -70.5 -112.5t-56.5 -134.5q-16 -54 -39.5 -77.5t-67.5 -23.5q-36 0 -55.5 8t-34.5 33t-21 65t-12 116q-13 168 -15 638q-3 333 -7.5 406.5t-23.5 101.5q-49 69 -57 99z" />
<glyph unicode="i" horiz-adv-x="487" d="M44 574q-2 28 -2 56q0 63 8 126q12 91 41 176.5t67 131.5t71 51q4 1 8 1q30 0 64 -31q46 -39 46 -86q-1 -4 -1 -9q-4 -53 -72 -177q-22 -42 -28 -211q-1 -73 -3 -107t-4 -64.5t-9 -41.5t-15 -18.5t-23 -14.5q-23 -11 -41 -11q-14 0 -26 7q-26 15 -51 74q-24 57 -30 148z M206 1602q14 61 80 86q12 5 27 5q11 -1 23 -3q28 -6 52 -6q18 0 40 -48q18 -40 18 -69q0 -5 -1 -10q-8 -46 -20 -67t-46 -42q-46 -30 -73 -30q-4 0 -8 1q-28 5 -60 52q-35 54 -35 102q0 15 3 29z" />
<glyph unicode="j" horiz-adv-x="1057" d="M50 -186q-7 58 -7 93q0 37 7 49q16 26 25.5 90.5t37.5 108.5q17 28 27 33t28 -5q28 -15 28.5 -32t7.5 -144q9 -140 13 -166.5t27 -50.5q16 -18 35 -23q11 -3 29 -3q16 0 36 2q84 6 184.5 50.5t177.5 109t99 123.5q18 46 18 124q0 58 -10 135q-23 178 -70 230 q-33 35 -42 123q-2 21 -2 40q0 108 68 156q30 21 63 21q22 0 45 -10q57 -24 90 -92q21 -47 30 -273.5t18 -294.5q3 -23 3 -50q0 -54 -12 -126q-14 -77 -28 -103.5t-70 -83.5q-119 -122 -337 -206q-164 -63 -275 -63q-38 0 -69 7q-43 10 -100 61q-42 38 -52.5 62t-22.5 108z M753 1291q-2 19 -2 33t2 24q4 18 22.5 42t36.5 31.5t55 7.5q56 0 83 -18.5t38 -69.5q7 -32 7 -56q0 -21 -5 -36q-13 -31 -63 -58q-49 -25 -83 -25q-20 0 -36 8q-42 24 -55 117z" />
<glyph unicode="k" horiz-adv-x="1153" d="M69 172q-26 33 -26 77q0 50 34 115q32 59 80.5 207.5t58.5 213.5q56 384 84 807q5 84 41.5 174t70.5 103q14 5 29 5q11 0 23 -3q27 -6 34 -23q2 -4 2 -13q0 -22 -11 -72q-17 -87 -26 -165t-23 -247q-7 -99 -28 -164q-12 -33 -23.5 -92.5t-15 -99.5t1.5 -46q16 0 33.5 22 t45.5 76q40 79 70 118q36 49 126.5 140.5t158.5 149.5q73 61 167 111q78 42 107 43q6 0 9 -2q21 -7 21 -29q0 -8 -3 -16q-10 -36 -52 -77q-137 -133 -258.5 -268t-152.5 -187q-35 -60 -38 -75.5t17 -44.5q38 -57 156 -315.5t118 -285.5q0 -15 19.5 -52t35.5 -74 q28 -61 84 -138q28 -40 28 -75v-9q-3 -25 -13 -33t-43 -11h-13q-26 0 -38 7q-14 9 -42 49q-93 139 -246 439q-62 120 -94 154.5t-32 52.5q0 17 -13 17q-17 0 -58 -30q-24 -18 -44.5 -22t-54 1.5t-45.5 2.5t-12 -15q0 -9 4.5 -15t9.5 -6q14 0 38 -35q17 -26 17 -51 q0 -10 -4 -20q-10 -34 -49 -43q-33 -7 -45.5 -31.5t-12.5 -83.5q0 -43 -21 -93.5t-43 -58.5q-9 -4 -23 -4q-22 0 -54 8q-54 14 -67 32z" />
<glyph unicode="l" horiz-adv-x="925" d="M44 1057q-2 193 -2 304q0 133 3 148q3 13 16 26t30 19q42 16 71 16q10 0 18 -2q34 -7 64 -45l35 -46l-30 -148q-17 -86 -22.5 -168.5t-5.5 -229.5q2 -251 15 -285t6 -41q-3 -3 -3 -11q0 -23 22 -85q30 -85 61 -127q40 -52 104 -84q49 -24 88 -24q13 0 25 2 q18 4 61.5 33.5t86.5 68.5q83 71 125 84q10 3 20 3q29 0 47 -30q5 -8 5 -20q0 -26 -26 -71q-38 -65 -105 -131t-127 -94q-63 -31 -110 -33h-7q-46 0 -118 22q-45 12 -76.5 33t-77.5 69q-79 83 -121.5 171.5t-58.5 198.5q-8 53 -13 477z" />
<glyph unicode="m" horiz-adv-x="2121" d="M44 888q8 51 29 84q19 28 67 42q32 9 69 9q19 0 39 -2q12 -2 49 -55q25 -36 31.5 -67.5t7.5 -129.5q4 -217 25 -217q13 0 30 58q29 96 123 266.5t119 170.5q10 0 75 51q82 61 160 61q50 0 98 -24q43 -22 99 -82t68 -98q16 -56 33 -161t21 -175q3 -67 14 -84 q9 -13 28.5 -6.5t46.5 31t54 60.5l83 108q70 84 152 305q28 73 43.5 94.5t58.5 42.5q55 27 69 29h5q14 0 43 -9q58 -22 132.5 -120t81.5 -163q1 -22 11 -43q11 -28 33.5 -182t30.5 -262q5 -53 5 -91q0 -60 -12 -80q-25 -50 -72 -50l-1 1q-48 0 -72 51q-13 29 -19 61t-18 133 q-26 252 -47 298q-14 28 -28 84q-13 54 -33 83t-35.5 19.5t-74.5 -127.5q-63 -124 -83.5 -158t-48.5 -64q-32 -35 -134 -157q-97 -116 -155 -133q-12 -4 -26 -4q-50 0 -117 50q-94 70 -118 283q-12 106 -36.5 191t-47.5 100q-15 9 -33 9q-33 1 -79 -27q-72 -44 -115 -121 q-131 -232 -191 -478q-20 -83 -51 -139q-25 -42 -37 -48q-6 -3 -22 -4q-14 0 -36 3q-49 7 -82 28t-33 46q0 9 -4 13.5t-10.5 4.5t-9 9.5t1.5 21.5q1 6 1 17q0 44 -23 164q-29 150 -40.5 217t-41 108.5t-29.5 63t-14 31.5q-11 5 -11 30q0 12 3 29z" />
<glyph unicode="n" horiz-adv-x="1197" d="M42 1051l55 56q36 35 53.5 43.5t46.5 1.5q81 -18 105 -78q10 -26 10 -58q0 -44 -19 -100q-29 -83 -29 -114q0 -14 6 -18q3 -3 9 1q14 9 14 27q0 24 69 141.5t108 158.5q48 50 108 85q63 35 123 35q27 0 53 -7q86 -22 146 -112q34 -49 78.5 -175.5t47.5 -177.5 q3 -40 24 -103t21 -104t43 -122q36 -69 40 -103q0 -4 1 -8q0 -30 -22 -54q-20 -22 -46 -22q-31 0 -69 32q-95 80 -158 368q-34 154 -56.5 221t-51.5 107q-37 48 -75 48q-7 0 -15 -2q-46 -11 -103 -94q-49 -69 -122 -214.5t-73 -173.5t-17 -87.5t-28 -71.5q-12 -14 -12 -47 q0 -25 -45 -64t-74 -39q-28 0 -63 27t-55 62q-14 28 -19 101.5t-6 288.5z" />
<glyph unicode="o" horiz-adv-x="1484" d="M50 553q7 38 62.5 110.5t98.5 103.5q63 42 103 80q86 80 256 195l75 51q41 28 79 39.5t110 12.5h15q37 0 57 -8q24 -10 70 -45q70 -55 140 -64q192 -28 301 -245q19 -37 23 -64q1 -11 1 -26q0 -22 -3 -52q-9 -82 -39 -132t-58 -106q-22 -45 -79 -105t-178 -171 q-91 -81 -173 -116t-208 -45q-24 -2 -49 -2q-128 0 -263 48q-161 58 -237 150q-67 82 -95 188q-17 63 -17 123q0 40 8 80zM245 353q10 -39 66 -111.5t77 -72.5q14 0 76 -28q50 -22 72 -23q6 0 10 2q7 3 18 -0.5t18 -11.5q17 -21 64 -21q51 0 138 25q81 22 120.5 42t93.5 62 q66 51 155 183q75 112 75 145q0 6 -2 9q-8 14 6 31q13 16 13 53q-1 15 -3 35q-8 66 -32 109q-38 62 -85 62q-29 0 -60 -23q-28 -19 -49 -21h-7q-23 0 -77 9q-78 12 -102 32q-17 14 -17 38q0 10 3 21q9 33 -11 33q-24 0 -132 -50q-225 -104 -390 -308q-49 -61 -50 -140 q1 -39 12 -81z" />
<glyph unicode="p" horiz-adv-x="1086" d="M44 535q6 17 41 52q34 32 38 44t-10 26q-22 22 -22 74q0 10 1 21q5 70 34 113q67 93 150.5 149t195.5 84q70 18 113 18h5q69 0 180 -78q116 -82 148 -156q20 -48 31 -48t11 -17.5t23 -59.5q21 -42 41 -117.5t20 -117.5q0 -99 -44 -200.5t-114 -160.5q-81 -69 -294 -165 q-191 -87 -245 -87q-7 0 -11 1q-28 7 -27 -12q0 -28 15 -227t19 -231q6 -42 14 -211q3 -57 3 -100q0 -61 -6 -93q-12 -55 -63 -117q-19 -22 -38 -31t-54 -11h-5q-48 0 -72 18q-24 19 -34 68q-5 26 -0.5 41.5t25.5 36.5q26 27 49 73t28 84q6 41 6 123v69q-4 135 -14 154 t-10 66q0 24 2 55q2 24 2 48q0 67 -15 127q-21 82 -36.5 181t-43.5 181q-26 76 -26 127v7v20q0 46 -7 107q-6 34 -6 54q0 12 2 18zM301 69q3 -4 9 -4q12 0 37 13q39 21 51 21q23 0 181.5 77t190.5 104q34 28 69.5 108.5t35.5 126.5q0 45 -35.5 156.5t-59.5 137.5 q-23 25 -83 60q-75 44 -143 44q-43 0 -84 -18q-40 -20 -74.5 -56.5t-48.5 -75.5q-2 -6 -2 -18q0 -29 13 -94q11 -57 11 -77v-5q-2 -16 -27 -41q-34 -33 -34 -77v-7v-8q0 -52 -6 -194q-4 -83 -4 -127q0 -40 3 -46z" />
<glyph unicode="q" horiz-adv-x="1776" d="M44 385q8 84 32 122q21 33 14 40q-2 2 -2 6q0 20 60 91q70 85 163.5 172.5t136.5 107.5q35 17 137 78.5t164 81.5q60 19 107 19q113 0 151 -109q22 -66 22 -96t22 -93q22 -59 22 -265q0 -134 -9 -329q-16 -343 -16 -448q0 -35 2 -44q4 -16 15 -17q23 0 181 77 q153 74 280 115q94 30 141 30q16 0 26 -4q36 -12 42 -52v-8q0 -34 -31 -59q-34 -28 -116 -54q-80 -26 -196.5 -84.5t-156.5 -93.5q-41 -37 -64 -37t-36.5 -12.5t-101.5 -30.5q-51 -12 -73 -12q-3 0 -5 1q-21 1 -46 18q-35 22 -48.5 51t-17.5 95q-1 23 -1 50q0 55 5 130 q14 254 14 383q0 133 -15 132q-13 -5 -132 -119q-112 -109 -188 -142q-59 -26 -144 -26q-24 0 -49 2q-123 8 -189.5 53.5t-90.5 138.5q-12 39 -12 90q0 24 3 51zM244 349v-8q0 -63 31 -84q22 -15 70 -15q24 0 54 4q60 9 84.5 24.5t94.5 87.5q97 101 115 124q21 25 67 126.5 t49 129.5q3 22 13 38q5 8 5 21q0 12 -4 29q-10 35 -40 35t-111 -34q-176 -71 -301.5 -211t-126.5 -267z" />
<glyph unicode="r" horiz-adv-x="1761" d="M46 952q4 17 21 35q18 20 40 26t69 6q56 0 71 6.5t29 37.5q18 43 95 126q46 49 79.5 72.5t91.5 44.5q87 30 213 36q23 1 46 1q96 0 164 -19q93 -26 243.5 -80.5t194.5 -77.5l126 -67q70 -38 88 -38q21 -1 63 -53q40 -49 39 -68q-1 -22 -45 -30q-13 -2 -24 -3 q-26 0 -47 10q-290 136 -577 197q-152 32 -252 32q-89 0 -137 -25q-111 -58 -171.5 -159.5t-108.5 -310.5q-33 -146 -41 -213q-4 -37 -5 -80q0 -34 3 -71l7 -115l-42 -31q-37 -25 -69 -27h-5q-30 0 -68 19q-42 22 -62 71q-16 39 -16 89q0 12 1 25q2 23 2 67q0 94 -10 287 q-9 158 -9 228q0 40 3 52z" />
<glyph unicode="s" horiz-adv-x="1341" d="M44 933q8 27 46 53q37 26 162 77t223 82q240 76 410 161q31 16 108 17q5 0 9 -1q73 -2 106 -27t48 -94q4 -16 4 -31q0 -25 -9 -50q-14 -41 -42 -62q-29 -22 -63 -26q-5 -1 -9 0q-29 0 -54 24q-17 16 -38 16h-2q-22 0 -82 -11q-97 -17 -139.5 -35t-99 -35.5t-131.5 -53.5 q-61 -30 -60 -47q0 -21 111 -49q157 -39 267.5 -95t241.5 -162q159 -129 193 -162.5t47 -72.5q8 -27 8 -53q0 -58 -45 -110q-65 -74 -235 -144q-77 -31 -118 -38.5t-138 -7.5q-98 0 -135 7t-102 36q-144 67 -214 136t-91 161q-8 41 -5.5 57.5t24.5 42t34.5 29.5t39.5 -6 q16 -5 34.5 -22.5t28.5 -37.5q23 -49 52 -77.5t82 -58.5q57 -32 107 -43q46 -10 115 -10h13q139 1 237.5 39t98.5 90q0 12 -19 34t-48 44l-113 88q-52 42 -222 98t-288 69q-108 11 -208.5 68.5t-127.5 120.5q-14 32 -14 55q0 9 2 17z" />
<glyph unicode="t" horiz-adv-x="1440" d="M43 974q9 42 28.5 58.5t88.5 32.5q72 19 85 33t28 106t37 198q20 94 20 154v15q-1 27 -1 48q1 37 3 53q4 26 15 26q16 0 53 30q30 23 65 23q9 0 18 -1q46 -7 83 -48q23 -24 29 -44q4 -13 4 -38q0 -12 -1 -28q-6 -72 -35 -136q-31 -69 -59.5 -146.5t-37.5 -118.5 q0 -2 -1 -8q-6 -29 4 -31h2q19 0 124 37l1 1h2h1l2 1h1h1l2 2h1h2l1 1h1h2l1 2h2h1l1 1h2h1l2 1q123 44 268 75q53 12 223 12q7 -1 14 -1q182 0 189 -11q8 -13 32 -13q30 0 43 -18q7 -9 7 -20q0 -9 -5 -19q-14 -26 -102 -34l-181 -17q-91 -8 -117 -8q-20 0 -142 -40 t-172 -64l-146 -64q-44 -21 -73 -39.5t-29 -26.5q0 -21 -26 -59q-28 -40 -46.5 -130t-18.5 -181q2 -63 7.5 -88.5t23.5 -44.5q36 -36 111 -36q1 1 2 1q77 0 220 37q160 43 233 43q41 0 54 -14q16 -15 7 -60q-10 -52 -96.5 -94t-300.5 -101q-91 -23 -150 -23t-118 25 q-119 53 -160 165q-24 66 -24 160q0 67 12 148q9 58 9 81v9q-2 18 -27 37q-49 41 -78 97q-23 45 -23 77q0 8 1 15z" />
<glyph unicode="u" horiz-adv-x="1681" d="M42 286q0 51 26.5 164.5t51.5 168.5q23 46 38 127q14 76 45 140.5t66 92.5q19 16 40 21t58 1q99 -11 114 -100q2 -15 2 -30q0 -79 -64 -178q-76 -116 -99 -159t-23 -68.5t-12.5 -33.5t-22.5 -86q-4 -30 -4 -52q0 -38 12 -48q8 -8 28 -7q24 0 65 10q82 23 177.5 90.5 t230.5 205.5q177 177 208 365q22 141 102 155q9 1 18 1q36 0 71 -22q44 -28 61 -72q8 -22 8 -50q1 -11 -1 -24q-4 -43 -26 -121q-7 -23 -7 -54q0 -45 14 -109q23 -106 70 -197q48 -94 102 -164t86 -85q70 -31 114 -67.5t48 -64.5q1 -5 1 -10q0 -32 -26 -62q-30 -36 -64 -35 q-42 0 -132.5 52.5t-149.5 112.5q-53 53 -119.5 156.5t-109.5 200.5l-24 56l-129 -130q-129 -129 -164 -156q-50 -39 -149.5 -102t-111.5 -63q-17 0 -70 -27q-35 -19 -59 -21q-5 -1 -13 0q-25 0 -70 7q-207 34 -207 271zM892 879q0 9 5 8l9 -3q14 -8 14 -22q0 -9 -5 -9 q-3 -1 -9 3q-14 8 -14 23z" />
<glyph unicode="v" horiz-adv-x="1475" d="M42 850v7q0 29 25 70q37 60 97 71q13 2 27 2q45 0 86 -30q53 -38 72 -110q9 -38 19.5 -127.5t12.5 -152.5q1 -21 36 -135q34 -101 82 -159q42 -51 82 -52q5 0 11 1q30 6 132.5 104.5t211 222t149.5 190.5q38 63 69.5 157.5t31.5 143.5q0 63 36 106q37 45 78 45 q44 0 93 -52q35 -39 39 -62q0 -3 1 -7q0 -24 -20 -71q-13 -33 -23 -76q-7 -33 -8 -54q0 -3 0.5 -9t0.5 -9q0 -28 -31 -72q-28 -42 -61.5 -109.5t-33.5 -81.5q0 -16 -24 -38q-68 -65 -161 -179q-78 -97 -181 -196.5t-163 -138.5q-49 -31 -78.5 -40t-75.5 -9q-64 0 -109 22.5 t-101 83.5l-70 76q-24 27 -70 146t-62 196q-19 92 -71 201q-45 94 -49 125z" />
<glyph unicode="w" horiz-adv-x="1772" d="M49 875q-8 14 -8 31q1 20 11 45q20 47 64 85q37 32 76 32h1q39 0 97 -29q26 -14 44 -61q14 -35 14 -66q0 -10 -1 -20q-4 -21 -8 -255q-2 -78 -2 -131t2 -79q4 -53 24 -113q23 -70 67.5 -121.5t80.5 -51.5q24 0 64 47t70 109q28 58 28 129v14v12q0 41 6 60q7 21 35 51 q25 26 44.5 35.5t50.5 9.5q46 0 85.5 -31t50.5 -74q8 -33 68.5 -92.5t107.5 -81.5q38 -18 59 -31q41 -24 103 -38q43 -10 73 -10q13 0 23 2q50 10 82.5 75t40.5 173q2 32 2 56q0 28 -2 48q-4 37 -26 97q-33 93 -72.5 135t-95.5 42q-74 0 -84 53l-2 14q0 47 55 102 q51 51 94 51h2q44 -2 119 -59q68 -52 114.5 -129.5t91.5 -215.5q24 -74 30 -114q3 -21 2 -48q0 -25 -2 -55q-10 -97 -36 -149l-50 -101q-29 -70 -72.5 -119t-88.5 -62q-56 -17 -118 -17q-182 0 -411 147q-88 58 -109 58q-3 0 -3 -1q-14 -8 -49 -83q-15 -31 -50 -78t-72 -83 q-63 -63 -83 -75q-14 -8 -42 -8q-12 0 -27 2q-89 7 -146 39.5t-133 121.5q-91 107 -99.5 157t-22.5 106q-52 214 -52 404v14v19q0 77 -15 106z" />
<glyph unicode="x" horiz-adv-x="1464" d="M45 52q-3 21 -3 36q0 20 5 31q8 18 48 62q59 60 71 60t49.5 26t201.5 122q200 118 214 132q12 11 -2 25q-6 4 -7 7q-26 27 -45 27q-16 0 -34 8t-91 46q-42 23 -50.5 39t-16.5 87q-10 97 -18 147q-3 14 -3 28q0 33 16 67q22 46 69 75q41 26 63 26l1 -1q22 0 81 -30 q64 -30 92 -86q113 -222 158 -279l37 -46l200 80q121 47 171 61q37 10 64 10q10 0 18 -1q49 -7 68.5 -22.5t19.5 -45.5q0 -51 -100 -103l-77 -41q-28 -17 -92 -42.5t-97 -49.5q-24 -17 -25.5 -24.5t15.5 -34.5q10 -14 54 -48.5t96 -67.5q102 -66 134 -108q18 -25 18 -51 q0 -19 -10 -40q-12 -28 -22 -31q-2 -1 -7 -1q-23 0 -108 17q-102 19 -163 53.5t-212 154.5l-36 30l-56 -31q-86 -48 -132 -78t-111 -80q-65 -51 -73.5 -65t8.5 -39q22 -35 14 -56q-9 -24 -53 -43t-98 -27q-36 -5 -72 -5q-18 0 -37 1q-55 4 -83 22q-27 17 -37 35t-15 62z" />
<glyph unicode="y" horiz-adv-x="1362" d="M46 876q9 42 20.5 59t48.5 37q54 29 76 29t60 -28q44 -32 63 -85.5t28 -167.5q12 -188 79.5 -339t173.5 -233q41 -30 56 -26q24 5 76 84l47 74l121 188q33 49 62.5 115.5t41.5 74t22.5 53.5t24.5 65q12 15 6 23.5t-50 33.5q-19 13 -22 85q-1 12 -1 22q0 52 15 65 q20 17 20 34q0 25 32.5 73.5t60.5 64.5q42 24 77 24q6 0 12 -1q39 -4 84 -44q32 -30 38 -44q2 -4 2 -10q0 -10 -7 -23q-15 -30 -15 -65q0 -45 -38 -174t-67 -183q-37 -70 -37 -80t-71 -133t-71 -130t-22.5 -23.5t-60.5 -81.5t-89 -140.5t-78 -125.5q-54 -101 -114 -163 q-31 -31 -77 -109q-77 -130 -199 -269q-121 -137 -159 -137h-1q-52 0 -52 22q0 26 68 132q84 129 116.5 188.5t46 64.5t13.5 21t63.5 101.5t63.5 102t-68 86.5q-217 220 -280 441q-41 142 -79 202q-36 54 -54 126q-10 43 -10 80q0 24 4 44z" />
<glyph unicode="z" horiz-adv-x="1542" d="M81 -17q-38 35 -38 71q0 43 55 86t63 42.5t35 26.5l151 138q126 112 332 317q172 169 178 187q1 7 -6 7q-4 0 -15 -1q-51 -10 -263 -20q-90 -4 -144 -4q-39 0 -59 2q-49 5 -124 37q-46 20 -54 20q-17 0 -44.5 37.5t-35.5 72.5q-6 29 -6 54q0 46 19 83q30 58 95 71 q45 6 72 28q21 17 62 17q12 1 26 -1q62 -6 100 -35q23 -16 29 -32.5t3 -51.5q-2 -39 4 -48.5t37 -15.5q46 -9 102 -9q88 0 202 23q113 24 184 34.5t134 25.5q39 11 67 11q14 0 26 -3q34 -8 68 -43q28 -31 42 -76.5t-2 -54.5q-12 -10 -26 -34q-12 -22 -65.5 -63t-123.5 -83 q-82 -47 -208 -140t-203 -163q-156 -142 -182 -142q-4 0 -12.5 -10.5t-14.5 -24.5t-23 -30.5t-32 -25.5q-34 -17 -92 -84q-48 -56 -49 -73q0 -3 2 -5q9 -9 41.5 -15t161.5 -24q147 -21 211 -48.5t91 -27.5t57 -17q23 -12 173 -53.5t256 -63.5q93 -21 128 -38t35 -41 q0 -43 -81 -43q-111 0 -373 80q-77 22 -92 33q-35 28 -189 65q-43 10 -74 10q-24 0 -40 -6q-32 -13 -174 -15h-43q-112 0 -180 9q-69 10 -101 24.5t-73 52.5z" />
<glyph unicode="{" horiz-adv-x="1274" d="M53 630q20 50 42.5 71t58.5 21q25 0 96 22.5t83 35.5q7 7 11 218q3 123 9.5 177t20.5 81q25 46 38 127q25 174 65 220q23 25 25 105.5t19 86t17 26.5q0 9 6 17.5t15 11t14 10.5t4 13q-3 17 28 69q18 32 35 43t49 16q54 5 67 7q21 4 65 -32.5t55 -64.5q16 -45 7.5 -103 t-36.5 -99q-34 -46 -44.5 -51t-10.5 -38.5t-19.5 -52.5t-29.5 -80q-8 -51 -34.5 -111t-40.5 -60q-10 0 -44 -73q-21 -46 -25 -74.5t2 -84.5q7 -62 23 -121.5t28 -70.5q9 -6 26.5 -58.5t22.5 -88.5q7 -37 -7 -101q-9 -43 -5.5 -65t28.5 -69q29 -56 35.5 -127.5t-17.5 -85.5 q-15 -10 -35 -91q-14 -60 -10 -95t37 -118q21 -57 29 -97q3 -15 36.5 -61t75.5 -94q67 -74 98 -98.5t73 -35.5q53 -14 123 -77t70 -97q0 -41 -41.5 -54t-161.5 -12l-151 3l-42 46q-44 48 -44 55q0 11 -37.5 37t-65.5 33q-70 15 -115 162q-29 97 -74 156q-17 21 -39 127 q-75 346 -128 363q-29 9 -62.5 35t-87.5 26q-77 0 -118 70t-12 150z" />
<glyph unicode="|" horiz-adv-x="459" d="M87 1842q8 28 36 51.5t63 32.5q63 19 93 -59.5t40 -281.5t-28.5 -514t-104.5 -567q-25 -99 -45 -99q-8 -2 -19 12t-11 42t11 104q17 123 22.5 243.5t18 198t12 113.5t8.5 201.5t-5 174t-14 66t-20 95.5q-73 138 -57 187z" />
<glyph unicode="}" horiz-adv-x="1153" d="M48 -538q21 54 126 112q71 42 95 97.5t24 68t70 86.5q60 66 114.5 170.5t65.5 172.5q10 65 30 93q23 33 17.5 77.5t-36.5 74.5q-39 38 -47.5 38t-38.5 46q-33 49 -28.5 113t42.5 111q37 45 37 54t-56 57q-23 21 -40 42t-17 29q0 24 -14 38q-13 14 14 117.5t50 130.5 q28 31 15 105t-59 144q-73 111 -121 81q-11 -7 -82.5 23.5t-71.5 42.5q0 10 -38 69q-44 68 -39.5 118.5t63.5 109.5q25 25 46 34q73 28 160 -30q56 -38 63 -47t85 -56q70 -45 96 -77.5t51 -106.5q26 -78 45 -99q63 -73 51 -276l-9 -139l49 -19q51 -21 107 -17t114.5 -24 t96.5 -77q25 -32 30.5 -51t0.5 -51q-13 -76 -42.5 -118.5t-89.5 -70.5q-74 -35 -88 -35q-17 0 -23 -35t2 -88q11 -69 6 -83t-11 -77.5t-24.5 -84.5t-29.5 -72q-8 -43 -36 -101t-62 -103q-31 -43 -67 -113q-111 -219 -111 -237q0 -10 -67 -82.5t-81 -112.5q-15 -42 -42.5 -79 t-58.5 -56q-35 -24 -93.5 -8t-105.5 61q-58 56 -37 110z" />
<glyph unicode="~" horiz-adv-x="2214" d="M48 962q15 42 127 159.5t146 127.5q25 8 25 19q0 14 125 97t170 98q55 20 74 17.5t77 -32.5q70 -35 93.5 -35t58.5 -29t63 -29q49 0 302 -173q59 -40 69.5 -40t32.5 -19q20 -18 109 -42t167 -32q53 -7 74 0.5t79 50.5q63 51 95.5 83t77.5 91q37 48 77.5 53.5t66.5 -32.5 q24 -32 10 -89.5t-80 -200.5q-36 -78 -83.5 -125.5t-121.5 -78.5q-42 -17 -120.5 -17.5t-136.5 15.5q-49 14 -134 31q-127 27 -245 71t-146 78q-18 21 -38 21t-58 26q-210 143 -331 156q-44 4 -64.5 -4t-65.5 -45l-124 -103q-26 -19 -47 -43t-26 -38q-6 -14 -13.5 -24.5 t-13.5 -10.5q-14 0 -38 -45q-23 -44 -47.5 -62.5t-59.5 -19.5q-55 0 -100.5 63t-25.5 112z" />
<glyph unicode="&#xa1;" horiz-adv-x="1334" d="M42 1217.5q0 14.5 14 14.5t14 -14.5t-14 -14.5t-14 14.5zM772 125q-5 166 8 292q43 445 21 637q-6 53 14.5 100t52.5 54q55 10 85 6t51 -28q25 -28 26.5 -66.5t-16.5 -171.5l-30 -205q-10 -70 -18 -83t-20 -135l-30 -315q-19 -192 -13 -242q3 -30 -1.5 -43t-20.5 -23 q-52 -27 -87 29q-17 28 -22 194zM981 1709q-8 33 10 74t46 54q56 28 134.5 6t105.5 -72q21 -42 13 -73t-43 -45q-37 -12 -98 -43l-60 -31l-50 49q-49 49 -58 81z" />
<glyph unicode="&#xa2;" horiz-adv-x="1463" d="M42 672q3 147 17.5 162.5t14.5 49t26.5 71.5t43.5 89t58.5 106t41.5 69q1 7 32.5 48.5t72.5 87.5q43 49 135.5 129t142.5 112q81 53 147.5 72t194.5 27l145 9l30 71l82 213l27 69q15 39 15 71t17 49q18 18 95 17q44 -2 41 -11l-71 -167l-61 -141q-53 -126 -70.5 -190.5 t-4.5 -92.5q17 -38 0 -74.5t-17 -57.5q0 -10 -22.5 -38t-54 -58t-57.5 -61.5t-30 -46.5q-11 -35 -30 -63t-19.5 -50t-28 -79t-28 -73.5t-11 -21t-79 -140t-86 -157t-64 -114t-65.5 -127.5q-14 -24 -14 -30t14 -9q19 -4 49 10q39 21 70.5 14t49.5 -41q15 -28 14 -37.5 t-20 -26.5q-25 -24 -151 -45.5t-140 -33.5t-42.5 -66t-75 -122t-46.5 -86t-28.5 -49t-28.5 -39.5t-28 -72t-42 -98.5q-10 -22 -20.5 -28.5t-34.5 -3.5q-23 3 -31.5 12t-11.5 37q-4 46 19.5 81.5t21.5 40.5q-6 5 15 57.5t28 52.5q10 0 19 35t78.5 138.5t63.5 113t-84 34.5 q-66 19 -109.5 61t-82.5 124q-22 46 -27.5 83t-4.5 135zM189 675.5q1 -157.5 69 -221.5q36 -34 116 -53.5t103 -0.5q17 14 56.5 86.5t39.5 90.5q0 15 32.5 59t74.5 120l89 164q46 87 67.5 144t62 135.5t56 162t31.5 102.5q11 14 -14 16q-19 3 -69 1q-63 -1 -94.5 -2.5 t-74 -14t-65 -24.5t-70 -50t-85.5 -74l-115 -112q-35 -34 -61.5 -66.5t-29.5 -44.5q-7 -29 -56 -128q-64 -132 -63 -289.5zM1162 2180q-6 10 20 12q11 2 25 2q40 0 40 -6q0 -3 -7 -8q-21 -13 -45.5 -13t-32.5 13z" />
<glyph unicode="&#xa3;" horiz-adv-x="2021" d="M45 375q-18 147 92 203q31 16 54 20t68.5 -8t102.5 -35.5t167 -75.5q80 -37 136.5 -32t61.5 51q2 26 21 132q12 70 10.5 189.5t-15.5 133.5q-5 6 -89 -11q-105 -21 -157.5 -14.5t-90.5 44.5q-35 36 -40 62.5t19 58.5q20 28 68 40t153 14q65 1 84.5 6t16.5 17 q-42 185 -57 259q-13 61 -57 111t-110 80q-32 15 -63 36t-42 37q-29 37 -28.5 89t31.5 80q24 22 163 91t232 105l128 52q65 28 121 39q187 36 266 -50q26 -31 38 -85t1 -95q-14 -44 -20 -140q-7 -88 -39 -146.5t-81 -70.5q-34 -7 -67.5 5t-33.5 33q0 13 21 125t35 173 q13 54 -5 68q-19 15 -98.5 4.5t-130.5 -34.5q-56 -26 -70 -26q-19 0 -92 -38t-91 -58q-15 -18 -10.5 -30.5t49.5 -58.5q60 -65 79 -98q21 -39 46 -138t33 -173q10 -90 34 -116q15 -20 37 -18.5t120 28.5q136 35 207 47l199 32q105 19 243 32t154 6q14 -4 52.5 -10.5 t62.5 -32.5q16 -17 16.5 -29t-12.5 -37q-14 -27 -30 -32q-20 -7 -138 -10q-147 -1 -287 -23.5t-359 -77.5q-86 -21 -141 -32t-70.5 -27t-19.5 -177q-5 -208 -26 -289q-5 -26 10.5 -32.5t75.5 -2.5q28 3 59.5 -26.5t45.5 -29.5t43 -38l30 -36l106 53l108 55l29 -30 q17 -18 20 -29t-7 -29q-17 -31 -55.5 -55t-88.5 -78q-33 -34 -53 -44t-57 -10q-39 0 -83 24t-76 62q-13 15 -47 20.5t-76 -1.5q-45 -5 -60 -17.5t-38 -67.5q-35 -76 -35 -83t-43 -98.5t-43 -98.5q0 -18 -49 -79t-77 -78q-59 -33 -115 2.5t-166 175.5q-66 83 -78 83t-12 14.5 t-33 60.5q-70 95 -87 238zM255 367.5q-4 -6.5 3 -38.5q8 -38 42.5 -95.5t83.5 -114.5l77 -91q25 -29 36 -27q15 6 67 103q7 15 25 50q20 39 30 61t14 38.5t-4.5 23.5t-21.5 10t-40 3q-35 0 -94 18t-110 46q-38 20 -77 20q-27 0 -31 -6.5z" />
<glyph unicode="&#xaa;" d="M50 678q20 107 97 270q8 19 51.5 69.5t94.5 101.5q71 70 116 103.5t95 54.5q91 38 176 38q18 1 38 -1q104 -10 170 -76q70 -68 99 -205q4 -15 16.5 -31t28.5 -25q29 -15 38 -69q4 -21 3 -44q0 -36 -8 -79q-4 -19 -4 -38q0 -51 26 -107q36 -78 104 -129 q59 -43 102.5 -63.5t100.5 -28.5q58 -10 80.5 -32t23.5 -68v-8q0 -25 -6 -39q-7 -16 -28 -33q-25 -19 -45 -19h-1q-21 0 -95 14q-153 31 -209 85l-56 51q-30 25 -73.5 87t-43.5 79q0 13 -20 30q-12 9 -26 1.5t-42 -39.5q-136 -153 -224.5 -214.5t-197.5 -81.5q-51 -8 -86 -8 q-17 0 -29 2q-40 6 -95 34q-66 37 -105 86.5t-57 122.5q-17 60 -17 122q0 43 8 87zM231 526q21 -74 91 -99q27 -10 57 -10q55 0 120 34q99 52 193 171q117 146 117 207q0 9 -3 17q-2 5 -2 11q0 19 16 50q15 28 15 40t-29 46q-36 43 -36 55.5t-45.5 41.5t-76.5 29 q-63 0 -182 -92t-159 -170q-21 -44 -31 -51t-34 -96q-19 -67 -20 -120q1 -35 9 -64z" />
<glyph unicode="&#xab;" horiz-adv-x="2646" d="M42 897q0 37 10.5 64t39.5 67q52 70 82 98q32 29 98.5 74.5t78.5 45.5q17 0 17 11t38.5 27.5t110.5 58.5t99.5 49t35 8t55.5 -38q31 -26 38.5 -43.5t7.5 -62.5q-3 -143 -152 -186q-75 -23 -90 -23q-45 0 -136.5 -71.5t-91.5 -104.5q0 -42 135.5 -170t273.5 -217 q86 -56 110.5 -99t-7.5 -87q-33 -45 -72.5 -52t-95.5 23q-64 33 -73 54q-15 44 -226 205q-90 68 -174.5 153.5t-98.5 122.5q-13 32 -13 93zM850 830q10 28 95 87t176 101l198 91q108 50 182.5 107t104.5 62q42 9 59.5 6.5t49.5 -18.5q41 -21 70 -83.5t20 -107.5 q-9 -39 -46 -68.5t-87 -36.5q-96 -15 -171.5 -40.5t-195.5 -83.5q-72 -34 -122 -64t-50 -38t9 -19.5t21 -20.5q33 -21 86 -68l120 -105q65 -55 97.5 -86t57 -57.5t28 -45.5t1 -36.5t-18.5 -43.5q-19 -37 -50.5 -58t-65.5 -21q-19 2 -46.5 19.5t-27.5 31.5q0 7 -31 48t-50 62 q-48 47 -99 89.5t-75 55.5q-38 19 -133 113q-73 71 -98 126.5t-8 101.5zM2583 1854.5q8 14.5 14.5 14.5t6.5 -14.5t-14.5 -14.5t-6.5 14.5z" />
<glyph unicode="&#xad;" horiz-adv-x="852" d="M85 974q9 41 26.5 56.5t64.5 20.5q72 9 94.5 7t37.5 -18q8 -8 61.5 -23t119.5 -27q182 -34 207 -52q18 -13 18 -45q0 -40 -18 -55.5t-208.5 -16.5t-213.5 -3q-75 -10 -138 41.5t-51 114.5z" />
<glyph unicode="&#xb1;" d="M42 17q-1 40 8 55.5t48 42.5q50 36 72.5 37.5t82.5 -25.5q61 -28 229 -43t274 -44t240.5 -55t266 -62t168.5 -36q32 0 51.5 -23.5t12.5 -51.5q-3 -14 -18 -19.5t-53 -6.5q-157 -4 -343 25q-135 21 -213 25t-106 18q-41 21 -123.5 29t-266.5 9q-176 2 -218 6.5t-70 27.5 q-25 19 -33 36.5t-9 54.5zM285 1097.5q-8 29.5 8 65.5q21 51 49 74.5t82 37.5q41 10 52 19t13 35q1 37 -2 51t-17 101q-11 62 -7.5 82t30.5 64q15 24 35.5 45t32.5 26q31 13 43 13t58 -13q32 -10 48.5 -24.5t31.5 -49.5q20 -48 16.5 -110t-30.5 -111q-21 -41 4 -49 q31 -10 191 5q121 12 171.5 10.5t122.5 -18.5q68 -15 99 -30.5t71 -53.5q51 -49 58.5 -82.5t-24.5 -65.5q-27 -27 -43.5 -27t-79.5 28q-67 29 -111 34q-43 4 -202.5 -18t-232.5 -41q-20 -6 -20.5 -41t16.5 -148q67 -447 -9 -583q-26 -47 -60.5 -61t-59.5 11q-14 14 -19.5 60 t-8.5 172q-4 209 -11 262q-12 69 -30.5 155t-24.5 92q-8 8 -50 -7q-35 -12 -80 -3.5t-69 32.5q-33 32 -41 61.5z" />
<glyph unicode="&#xb2;" horiz-adv-x="1709" d="M42 1434q0 36 33.5 144.5t51.5 130.5q28 37 28 55t85.5 103.5t144.5 126.5q67 46 161 91.5t154 60.5q71 18 220 16q130 -5 193 -29.5t119 -95.5q34 -42 40 -70t9 -129q3 -112 -16 -184t-70 -152.5t-172 -223.5q-86 -103 -119 -138t-43 -35q-14 0 -52 -45.5t-116 -131.5 q-151 -165 -175.5 -194.5t-86.5 -117.5q-54 -78 -81.5 -140.5t-14.5 -82.5q9 -16 115 -5t180 38q126 44 481 50t478 -36q46 -16 61 -28t17.5 -34t-6 -32t-37.5 -20q-48 -15 -122 -9.5t-126 -7.5q-84 -21 -227.5 -26.5t-277.5 7.5q-84 7 -117 4t-75 -21q-112 -50 -270 -62 t-209 24q-42 31 -56 67.5t-3 86.5q17 81 25 105.5t23 41.5q20 23 59 100.5t54 88.5q80 51 80 76q0 18 42 50t42 43.5t179.5 188.5t190.5 177q12 0 12 15q0 13 38 65.5t51 58.5q11 5 11 22.5t43 62.5q17 18 29.5 39t12.5 32q0 27 21 67.5t21 63t10 32.5q11 11 6 84.5 t-17 97.5q-13 24 -53 44t-80 24q-119 10 -288.5 -58t-238.5 -153q-51 -66 -71 -87q-28 -32 -59.5 -86.5t-49.5 -102.5q-14 -38 -31 -58t-42 -33q-32 -14 -45.5 -14t-37.5 16q-15 9 -25.5 22t-10.5 20z" />
<glyph unicode="&#xb3;" horiz-adv-x="1467" d="M42 347q0 52 6.5 72.5t27.5 35.5q49 38 93.5 18.5t48.5 -80.5q3 -37 54 -45.5t184 5.5q216 24 359 70t273 133q47 32 84.5 77.5t27.5 59.5q-7 13 7 22t14 69q0 49 -44 132.5t-100 141.5q-35 37 -134.5 88t-164.5 65q-44 8 -94.5 37.5t-103.5 57.5q-51 27 -62 45t-14 80 q-4 66 21 89t257 94.5t239 76.5q2 3 -12 13q-9 5 -23 11q-41 18 -233 18h-90q-27 0 -65 -4t-52 -8.5t-46 -19t-53 -28.5l-69 -45q-92 -60 -142 -72t-96 16q-94 56 -94 140q0 39 30 83.5t57 44.5t109 28q63 22 170 45t172 30q64 7 109 5.5t160 -12.5q144 -14 233 -44t159 -90 q172 -146 92 -244q-18 -22 -115.5 -54.5t-147.5 -32.5q-41 0 -110 -16t-89 -30q-17 -12 18 -35q24 -17 98 -57q111 -59 172 -107.5t94 -102.5l77 -121q69 -105 90 -170q5 -17 -8 -64t-59 -173q-40 -108 -160 -190q-60 -40 -67 -59q-3 -9 -16.5 -15t-27.5 -6q-36 0 -96 -34 q-44 -25 -171 -64t-213 -55q-71 -11 -225 -8t-200 17q-58 16 -98 50q-28 21 -34.5 40t-6.5 76z" />
<glyph unicode="&#xb4;" horiz-adv-x="624" d="M45.5 1038.5q-11.5 38.5 13.5 120.5q14 44 85.5 120t176.5 159q74 59 100 101q10 18 26 32t29 17l39 7q11 2 39 -30.5t28 -48.5q0 -19 -40 -101q-34 -64 -85 -115t-157 -127q-87 -63 -87 -77t-30 -54q-15 -24 -32 -33t-43 -9q-51 0 -62.5 38.5z" />
<glyph unicode="&#xb9;" horiz-adv-x="869" d="M53.5 1118.5q24.5 39.5 110.5 75.5q89 39 168 121q60 63 81 95.5t62 125.5l49 113q19 42 33 105q13 58 35.5 81.5t75.5 33.5t70 1q19 -9 54 -64t35 -74q0 -45 -57 -324q-31 -152 -23 -540t47 -643q19 -128 13 -187.5t-44 -101.5q-22 -23 -34 -28.5t-26 2.5 q-23 14 -40.5 64.5t-18.5 105.5q0 60 -15.5 98.5t-21.5 103.5t-14 136t-13.5 191t-7.5 134t1 135q1 108 -6 225.5t-15 125.5q-3 3 -5 1t-2 -9q0 -16 -143.5 -138.5t-178.5 -134.5q-40 -16 -90 8t-76 70q-28 53 -3.5 92.5z" />
<glyph unicode="&#xba;" horiz-adv-x="1484" d="M50 553q7 38 62.5 110.5t98.5 103.5q63 42 103 80q86 80 256 195l75 51q41 28 79 39.5t110 12.5h15q37 0 57 -8q24 -10 70 -45q70 -55 140 -64q192 -28 301 -245q19 -37 23 -64q1 -11 1 -26q0 -22 -3 -52q-9 -82 -39 -132t-58 -106q-22 -45 -79 -105t-178 -171 q-91 -81 -173 -116t-208 -45q-24 -2 -49 -2q-128 0 -263 48q-161 58 -237 150q-67 82 -95 188q-17 63 -17 123q0 40 8 80zM245 353q10 -39 66 -111.5t77 -72.5q14 0 76 -28q50 -22 72 -23q6 0 10 2q7 3 18 -0.5t18 -11.5q17 -21 64 -21q51 0 138 25q81 22 120.5 42t93.5 62 q66 51 155 183q75 112 75 145q0 6 -2 9q-8 14 6 31q13 16 13 53q-1 15 -3 35q-8 66 -32 109q-38 62 -85 62q-29 0 -60 -23q-28 -19 -49 -21h-7q-23 0 -77 9q-78 12 -102 32q-17 14 -17 38q0 10 3 21q9 33 -11 33q-24 0 -132 -50q-225 -104 -390 -308q-49 -61 -50 -140 q1 -39 12 -81z" />
<glyph unicode="&#xbb;" horiz-adv-x="1856" d="M42 1066.5q0 17.5 17 60.5q10 25 28 52.5t33 39.5q37 28 92 20.5t114 -48.5q79 -54 131.5 -82t186.5 -88q280 -126 343 -215q35 -46 11 -105.5t-106 -143.5q-94 -92 -137 -113q-38 -20 -136 -117t-107 -125q-11 -34 -44 -48t-71.5 -2t-61.5 45q-66 94 25 184 q61 59 165 149t137 114q66 46 48 77q-7 11 -126 68.5t-209 92.5q-94 38 -145 38q-126 0 -170 92q-18 37 -18 54.5zM1043 305q0 42 21.5 67.5t105.5 81.5q150 99 313 260q72 71 82 120t-43 70q-34 13 -60 44q-13 12 -50 29.5t-79 29.5q-104 29 -146.5 53t-63.5 64 q-63 116 19 200q40 40 49 44t32.5 -9.5t66.5 -33t99 -51.5q189 -106 253.5 -156t120.5 -132q42 -63 49 -91t-6 -87q-14 -62 -87.5 -143t-224.5 -200q-135 -107 -174 -156q-33 -39 -86.5 -75.5t-77.5 -36.5q-21 0 -67 33q-26 18 -36 34t-10 41z" />
<glyph unicode="&#xbf;" horiz-adv-x="1125" d="M42.5 378q3.5 27 23.5 74q31 79 46 100t41 70.5t64.5 92t92.5 113.5t173 193q70 71 94.5 105.5t24.5 57.5q0 41 28.5 102t28.5 80q0 9 12 21t28 20q88 48 159 -17q28 -24 38.5 -48.5t19.5 -81.5q1 -13 5 -34q9 -57 11 -79.5t4.5 -45.5t-3 -33t-10.5 -17.5t-19 -21.5 q-5 -6 -8 -8q-45 -45 -99.5 -81.5t-146.5 -82.5q-128 -63 -247.5 -209.5t-135.5 -256.5q-5 -44 2.5 -59.5t51.5 -47.5q50 -36 93.5 -41.5t134.5 13.5q183 39 343 181q39 36 74 61.5t43 25.5q28 0 51.5 -27.5t23.5 -58.5q0 -39 -69.5 -118t-136.5 -116q-70 -39 -77 -47 q-17 -20 -184.5 -62.5t-183.5 -31.5q-10 6 -83 13q-111 11 -196 79t-106 160q-9 36 -5.5 63zM589 1721.5q5 45.5 30 71.5q31 33 92 33q39 0 61.5 -10t57.5 -44q58 -53 61.5 -93.5t-47.5 -75.5q-59 -39 -136 -27t-105 65q-19 35 -14 80.5z" />
<glyph unicode="&#xc0;" horiz-adv-x="1803" d="M804 2557.5q1 24.5 22 45.5q34 34 78 26t71 -53q29 -47 89.5 -117t60.5 -85.5t21 -30.5q23 -17 29 -67.5t-13 -74.5q-29 -36 -80 -11.5t-144 116.5q-46 46 -80 88t-37 56q-18 83 -17 107.5zM42 -98q-1 1 -1 5q0 15 29 72q46 93 105 243q54 136 54 157q0 2 -1 3 q-8 13 6 21.5t6 21.5t9 13t8 9q-2 2 -2 6q0 16 28 69q70 133 145 342q70 193 91 241.5t110 217.5q44 85 44 104t27.5 57.5t52 101.5t57.5 107t33 58t58.5 106t86.5 121q20 18 53 26q18 4 34 4q13 0 25 -2q26 -6 26 -25q0 -27 12.5 -34.5t21.5 -53.5q10 -47 39 -93 q22 -35 22 -64q0 -9 -2 -17q-2 -9 -2 -27q0 -34 8 -100q13 -102 28 -142q60 -161 92 -292q21 -83 63 -192t65 -188q47 -156 59 -175t47 -23q17 -2 21 -3q87 -13 87 -38q1 -13 -22 -31q-33 -26 -65 -26q-21 0 -25 -6.5t0 -26.5q8 -32 18.5 -46t21 -70.5t34.5 -127.5t28 -85 t17.5 -49.5t22 -78t27.5 -70.5q18 -25 18 -41q0 -3 -1 -5q-4 -16 -36 -24l-21.5 -6t-16 -5t-6.5 -2q-1 1 -13 25q-12 26 -23 60t-15 55q-9 34 -39.5 125.5t-42.5 112.5q-12 24 -12 51t-14 35.5t-14 45t-25 78.5l-24 42l-114 -10q-113 -8 -134.5 -14.5t-98.5 -11.5 q-258 -23 -390 -59q-85 -23 -225 -25l-141 -2l-48 -120q-48 -121 -52 -143q-8 -39 -33.5 -84.5t-41.5 -51.5q-26 -8 -78.5 -30t-60.5 -16zM448 529q6 -28 84 -39q33 -5 66 -5q47 0 96 9q97 17 474 51q180 16 225 22.5t45 17.5q0 16 -29 107t-43.5 122.5t-44.5 118t-43 135.5 q-15 58 -39.5 107.5t-34.5 105t-51 108t-41 71.5q0 30 -40 101t-72 99q-44 38 -49 38q-20 0 -147.5 -271t-279.5 -635q-36 -84 -58 -162q-19 -66 -19 -93q0 -5 1 -8z" />
<glyph unicode="&#xc1;" horiz-adv-x="1183" d="M42 151q-1 37 6.5 60.5t31.5 57.5q40 56 108 184t88.5 150.5t20.5 31.5t57 134l77 168l51 112q28 60 78 198.5t70 207.5q18 65 32 93q17 33 39.5 143.5t25.5 178.5q4 80 28 114q14 22 14.5 32.5t-12.5 28.5q-18 24 -18.5 48.5t16.5 62.5q12 25 28 31q21 7 151 7h159 l-43 -53q-43 -54 -94 -94q-35 -30 -39 -39t14 -28q24 -27 24 -66t-2 -153q-2 -123 3.5 -298.5t12.5 -206.5q8 -35 16 -96.5t19 -78.5t11 -102q0 -84 26.5 -189t49.5 -114q37 -14 43.5 -40t-14.5 -82q-25 -70 -13 -114q30 -100 34 -258q0 -59 -4 -73t-27 -17q-35 -4 -54 16.5 t-35 77.5q-19 67 -27 81t-29 100l-21 85l-65 -3q-64 -2 -269 -7l-204 -5l-34 -70q-35 -70 -56 -144q-19 -65 -71 -134t-90 -79q-37 -10 -73 35t-40 106zM510 648q0 -7 13 -15.5t33 -12.5q35 -10 156 -3.5t134 17.5q9 10 -23 73q-25 48 -30.5 96t9 79.5t44.5 31.5 q11 0 15 10.5t1.5 43.5t-12.5 84t-30 141q-21 92 -25 173q-1 33 -12 33q-10 0 -56.5 -142.5t-46.5 -171.5q0 -22 -85 -220.5t-85 -216.5z" />
<glyph unicode="&#xc2;" horiz-adv-x="1803" d="M532 2306q18 56 37.5 82.5t68.5 60.5q59 39 155.5 133t96.5 110q0 13 42 47q17 15 47 56.5t54 84.5q61 106 70.5 106t46.5 82l63 131q10 20 27.5 39.5t31.5 26.5q32 17 73.5 17.5t68.5 -13.5q57 -31 85 -297q15 -147 21 -155q7 -13 66 -284q14 -63 18 -96t20 -49t16 -74 q0 -56 -25.5 -82.5t-74.5 -20.5q-61 5 -100.5 81t-81.5 267q-48 217 -65 238q-10 14 -24.5 6t-55.5 -52q-65 -68 -148 -171q-263 -323 -325 -371q-45 -35 -90.5 -29t-82.5 52q-17 21 -27.5 42.5t-7.5 31.5zM42 -98q-1 1 -1 5q0 15 29 72q46 93 105 243q54 136 54 157 q0 2 -1 3q-8 13 6 21.5t6 21.5t9 13t8 9q-2 2 -2 6q0 16 28 69q70 133 145 342q70 193 91 241.5t110 217.5q44 85 44 104t27.5 57.5t52 101.5t57.5 107t33 58t58.5 106t86.5 121q20 18 53 26q18 4 34 4q13 0 25 -2q26 -6 26 -25q0 -27 12.5 -34.5t21.5 -53.5q10 -47 39 -93 q22 -35 22 -64q0 -9 -2 -17q-2 -9 -2 -27q0 -34 8 -100q13 -102 28 -142q60 -161 92 -292q21 -83 63 -192t65 -188q47 -156 59 -175t47 -23q17 -2 21 -3q87 -13 87 -38q1 -13 -22 -31q-33 -26 -65 -26q-21 0 -25 -6.5t0 -26.5q8 -32 18.5 -46t21 -70.5t34.5 -127.5t28 -85 t17.5 -49.5t22 -78t27.5 -70.5q18 -25 18 -41q0 -3 -1 -5q-4 -16 -36 -24l-21.5 -6t-16 -5t-6.5 -2q-1 1 -13 25q-12 26 -23 60t-15 55q-9 34 -39.5 125.5t-42.5 112.5q-12 24 -12 51t-14 35.5t-14 45t-25 78.5l-24 42l-114 -10q-113 -8 -134.5 -14.5t-98.5 -11.5 q-258 -23 -390 -59q-85 -23 -225 -25l-141 -2l-48 -120q-48 -121 -52 -143q-8 -39 -33.5 -84.5t-41.5 -51.5q-26 -8 -78.5 -30t-60.5 -16zM448 529q6 -28 84 -39q33 -5 66 -5q47 0 96 9q97 17 474 51q180 16 225 22.5t45 17.5q0 16 -29 107t-43.5 122.5t-44.5 118t-43 135.5 q-15 58 -39.5 107.5t-34.5 105t-51 108t-41 71.5q0 30 -40 101t-72 99q-44 38 -49 38q-20 0 -147.5 -271t-279.5 -635q-36 -84 -58 -162q-19 -66 -19 -93q0 -5 1 -8z" />
<glyph unicode="&#xc3;" horiz-adv-x="1803" d="M33 2358q15 42 127 159.5t146 127.5q25 8 25 19q0 14 125 97t170 98q55 20 74 17.5t77 -32.5q70 -35 93.5 -35t58.5 -29t63 -29q49 0 302 -173q59 -40 69.5 -40t32.5 -19q20 -18 109 -42t167 -32q53 -7 74 0.5t79 50.5q63 51 95.5 83t77.5 91q37 48 77.5 53.5t66.5 -32.5 q24 -32 10 -89.5t-80 -200.5q-36 -78 -83.5 -125.5t-121.5 -78.5q-42 -17 -120.5 -17.5t-136.5 15.5q-49 14 -134 31q-127 27 -245 71t-146 78q-18 21 -38 21t-58 26q-210 143 -331 156q-44 4 -64.5 -4t-65.5 -45l-124 -103q-26 -19 -47 -43t-26 -38q-6 -14 -13.5 -24.5 t-13.5 -10.5q-14 0 -38 -45q-23 -44 -47.5 -62.5t-59.5 -19.5q-55 0 -100.5 63t-25.5 112zM42 -98q-1 1 -1 5q0 15 29 72q46 93 105 243q54 136 54 157q0 2 -1 3q-8 13 6 21.5t6 21.5t9 13t8 9q-2 2 -2 6q0 16 28 69q70 133 145 342q70 193 91 241.5t110 217.5q44 85 44 104 t27.5 57.5t52 101.5t57.5 107t33 58t58.5 106t86.5 121q20 18 53 26q18 4 34 4q13 0 25 -2q26 -6 26 -25q0 -27 12.5 -34.5t21.5 -53.5q10 -47 39 -93q22 -35 22 -64q0 -9 -2 -17q-2 -9 -2 -27q0 -34 8 -100q13 -102 28 -142q60 -161 92 -292q21 -83 63 -192t65 -188 q47 -156 59 -175t47 -23q17 -2 21 -3q87 -13 87 -38q1 -13 -22 -31q-33 -26 -65 -26q-21 0 -25 -6.5t0 -26.5q8 -32 18.5 -46t21 -70.5t34.5 -127.5t28 -85t17.5 -49.5t22 -78t27.5 -70.5q18 -25 18 -41q0 -3 -1 -5q-4 -16 -36 -24l-21.5 -6t-16 -5t-6.5 -2q-1 1 -13 25 q-12 26 -23 60t-15 55q-9 34 -39.5 125.5t-42.5 112.5q-12 24 -12 51t-14 35.5t-14 45t-25 78.5l-24 42l-114 -10q-113 -8 -134.5 -14.5t-98.5 -11.5q-258 -23 -390 -59q-85 -23 -225 -25l-141 -2l-48 -120q-48 -121 -52 -143q-8 -39 -33.5 -84.5t-41.5 -51.5 q-26 -8 -78.5 -30t-60.5 -16zM448 529q6 -28 84 -39q33 -5 66 -5q47 0 96 9q97 17 474 51q180 16 225 22.5t45 17.5q0 16 -29 107t-43.5 122.5t-44.5 118t-43 135.5q-15 58 -39.5 107.5t-34.5 105t-51 108t-41 71.5q0 30 -40 101t-72 99q-44 38 -49 38q-20 0 -147.5 -271 t-279.5 -635q-36 -84 -58 -162q-19 -66 -19 -93q0 -5 1 -8z" />
<glyph unicode="&#xc4;" horiz-adv-x="1412" d="M45 48q-7 72 10.5 107t101.5 119q70 69 112 128t109 179q109 196 109 212t57 126.5t57 131t12 20.5q17 0 103 180.5t96 235.5q11 54 28.5 83t51.5 41q28 12 40.5 12t58.5 -13q73 -21 97.5 -62.5t30.5 -154.5q7 -133 22 -172q31 -84 34 -413l1 -184l60 -22q63 -22 78 -41 t6 -64q-5 -31 -15.5 -43t-33.5 -17l-39 -9q-14 -4 -22.5 -8t-7.5 -8.5t3 -9.5q10 -14 16 -95q5 -90 25 -290q8 -81 21 -115q11 -32 7.5 -115.5t-17.5 -97.5q-38 -38 -70 69q-22 78 -33 211q-16 171 -28 199.5t-21 121.5q-5 47 -8.5 71.5t-7.5 45t-11 27t-15.5 9t-23.5 2.5 q-42 0 -137 16q-58 8 -105.5 6t-138.5 -18l-72 -12q-23 -4 -43.5 -9t-27.5 -12t-12 -13.5t-9 -20.5q-14 -43 -54.5 -111t-57.5 -121q-40 -122 -83.5 -169t-113.5 -47q-46 0 -91.5 36.5t-48.5 77.5zM601 1746q0 109 85 140q32 11 67 7t51 -23q30 -35 42 -93t-3 -94 q-18 -44 -48.5 -58.5t-84.5 -6.5q-65 12 -87 37.5t-22 90.5zM615 640.5q0 -3.5 222 -4.5l221 -2l-8 94q-14 140 -45 311q-25 144 -56 183l-31 38l-43 -63q-67 -99 -216 -449q-44 -104 -44 -107.5zM1110 1760.5q-3 44.5 41 77.5q24 20 45 25t58 0q54 -7 84.5 -37t32 -66.5 t-26.5 -71.5t-81 -49q-39 -11 -54 -6t-50 39q-46 44 -49 88.5z" />
<glyph unicode="&#xc5;" horiz-adv-x="1556" d="M45 34q10 57 32 65q34 13 119 114.5t141 195.5q42 73 106 162.5t64 95.5t46 72q99 143 233 405.5t153 354.5q10 48 22.5 63.5t-29.5 65.5q-37 46 -43.5 115t21.5 113q28 42 90.5 87t120.5 66q75 24 103.5 13.5t101.5 -3.5q59 5 108 -13t67 -53q15 -28 14 -95 q0 -125 -151 -224q-42 -28 -54 -43.5t-8 -36.5q6 -35 6 -349q-3 -659 -3 -848q0 -69 -1 -104t-5.5 -58t-11 -28.5t-20.5 -5.5q-34 0 -65.5 109t-24.5 200l5 66l-206 25q-25 3 -70 9q-55 7 -78 9.5t-57.5 4t-45 2.5t-32 -5.5t-27 -11.5t-21 -21t-22.5 -28l-24 -40 q-15 -22 -22 -35l-146 -224q-53 -81 -95 -152q-55 -91 -94.5 -127.5t-87.5 -36.5q-62 0 -90.5 34t-18.5 95zM792 780q5 -9 16 -6q18 3 96.5 -20t173.5 -32l97 -9l1 84q3 137 -1.5 323t-9.5 221q-7 49 -21 88q-18 49 -34 31q-11 -11 -29 -59q-25 -67 -44 -102.5t-19 -46.5 q0 -16 -52 -120t-63 -111q-13 -9 -13 -28t-50 -93q-60 -89 -48 -120z" />
<glyph unicode="&#xc6;" horiz-adv-x="2570" d="M42 -77q0 31 14.5 54t63.5 69q79 74 79 81t35 54t35 57t75.5 112t110.5 166.5t79 121t61 90.5q32 60 209 284t233 273q20 17 116.5 142.5t96.5 133.5q0 7 65 108q64 99 102.5 99t90.5 -102l40 -81l5 -819q4 -818 13 -826.5t-3.5 -49.5t1.5 -41t70.5 32t112.5 71l94 68 l99 70q42 29 72.5 39.5t80.5 14.5q56 4 76.5 -1.5t48.5 -31.5q37 -35 38.5 -67.5t-31.5 -70.5q-21 -23 -36.5 -29.5t-40.5 -0.5q-40 7 -114 -34.5t-162 -121.5q-46 -40 -74 -54l-65 -34q-59 -35 -124.5 -8.5t-81.5 91.5q-9 35 -43 44q-29 7 -53.5 56t-23.5 100 q0 45 -6.5 180t6.5 277t4 180q-4 25 -14.5 30t-51.5 -1q-105 -12 -252 -81q-77 -36 -109.5 -36t-85 -22.5t-148.5 -22.5h-44q-14 0 -31.5 -4.5t-24.5 -9t-20.5 -19.5t-22 -29t-25.5 -45l-105 -170q-71 -114 -103 -173.5t-55 -120.5q-39 -103 -114 -131t-127 41 q-36 48 -36 98zM818.5 704.5q3.5 -3.5 35.5 3.5q43 10 74 13.5t150 27.5t220 24h102l-3 96q-10 304 -4 341q3 11 0 18q-8 24 -24 103q-8 38 -19 45q-9 6 -103.5 -102.5t-140.5 -175.5q-34 -48 -71 -91q-168 -191 -168 -216q0 -18 -12 -18t-29 -38q-11 -27 -7.5 -30.5z M1594 1678q-1 22 31 54q37 36 77 42.5t118 -11.5q91 -21 192 -16q77 3 170 17.5t103 24.5q7 7 89 7q54 0 75.5 -7t45.5 -31q32 -32 33.5 -57t-29.5 -57q-31 -33 -87 -33t-164.5 -26.5t-137 -28t-140.5 -13.5q-119 -14 -208.5 5t-130.5 66q-36 42 -37 64zM1606 783 q0 49 45.5 70t161.5 28q122 5 137.5 14t143.5 26q104 13 155 11.5t117 -21.5q57 -15 74 -36.5t-3 -58.5q-11 -21 -34 -33.5t-80 -27.5q-93 -23 -246 -46t-267 -31q-80 -6 -105 -2t-56 27q-24 18 -33.5 35.5t-9.5 44.5z" />
<glyph unicode="&#xc8;" horiz-adv-x="1699" d="M1270 2456.5q1 24.5 22 45.5q34 34 78 26t71 -53q29 -47 89.5 -117t60.5 -85.5t21 -30.5q23 -17 29 -67.5t-13 -74.5q-29 -36 -80 -11.5t-144 116.5q-46 46 -80 88t-37 56q-18 83 -17 107.5zM44 1572q8 70 50 114q26 29 42.5 34.5t55.5 -1.5q15 -2 28 -2q34 0 47 16 q38 45 129 45q37 0 83 -8q51 -9 117 -9q57 0 126 7q434 42 633 51q163 5 171 13q4 5 12 5q7 1 16 -3q20 -8 60 -8q45 0 44 -31q-3 -32 -56 -77q-34 -28 -62.5 -37t-103.5 -15q-113 -8 -155 -22q-36 -13 -305 -50t-319 -37q-45 0 -85.5 14t-150.5 18l-107 3l-9 -121 q-4 -67 -4 -131q1 -51 3 -101q6 -113 8 -234l4 -120l206 67q238 80 408 82h8q164 0 280 -74q64 -40 108 -127q28 -54 28 -87q0 -20 -10 -33q-21 -26 -49.5 -16t-84.5 60q-30 27 -67 50t-61 30q-49 15 -115 15q-47 0 -101 -8q-132 -18 -229 -66q-71 -35 -144.5 -60 t-107.5 -25h-46l-3 -202q-3 -201 -3.5 -260t-11.5 -70q-21 -22 2 -25h7q34 0 66 28q21 18 128 53q65 21 131.5 29.5t220.5 13.5q248 12 352 28q117 21 242 22h12q115 0 138 -19q17 -12 19 -22t-8 -32q-8 -21 -28 -32.5t-63 -19.5l-217 -51q-95 -23 -197.5 -38t-302.5 -33 q-134 -11 -221 -31.5t-160 -53.5q-102 -49 -137 -49q-39 0 -63 27q-20 22 -19 49q0 7 1 13q1 11 -28 37q-21 16 -24 28t6 39q11 31 11 111q0 23 -1 50q-10 309 -22.5 562t-19.5 274t-13 84q-8 86 -26.5 156t-39.5 100q-25 34 -25 85q0 13 2 28z" />
<glyph unicode="&#xc9;" horiz-adv-x="1247" d="M44 270.5q8 173.5 36 239.5q12 28 35 134l36 164q77 339 96 444t18.5 196t-5.5 186t-11 112q-8 25 36 80.5t72 55.5q15 0 41 42q30 51 54 68t67 17q52 0 77 29q21 24 36.5 27t45.5 -14q28 -14 28 -71q0 -37 6 -48t33 -17q39 -8 121.5 -27.5t168.5 -19.5q64 0 116 -19 t53 -43q4 -31 -5 -50t-36 -41q-68 -57 -271 -18q-100 18 -212.5 30t-133 5t-55.5 -102.5t-46 -174.5q-50 -352 -85 -395q-14 -17 -3 -28q4 -4 9.5 -0.5t8.5 11.5q13 34 48 59.5t59 18.5q42 -12 67.5 -34t30.5 -47q4 -32 42.5 -37t120.5 18q107 26 198 29.5t133 -17.5 q50 -26 62.5 -50.5t-3.5 -65.5q-17 -41 -37.5 -48t-79.5 6q-40 8 -83 3.5t-157 -32.5q-133 -33 -184.5 -34t-121.5 25q-26 11 -52 37t-26 43q-1 20 -20 43q-15 20 -21 7q-5 -8 -15 -49q-15 -67 -44 -126.5t-41.5 -135t-27.5 -121.5q-3 -13 -6 -24t-3 -16.5t2 -5.5 q7 0 -6.5 -25.5t-21.5 -117.5q-14 -136 -9 -150q4 -13 34 -11q14 1 17 1q56 4 177 38t334 45q189 8 242 6.5t81 -15.5q59 -32 -8 -79q-84 -61 -251 -80q-28 -4 -57 -6q-100 -4 -177.5 -18t-100.5 -29q-19 -16 -101 -43t-125 -34q-54 -7 -109 16.5t-75 62.5q-24 47 -16 220.5 zM819 2176q0 9 24 13.5t84 4.5q95 0 96 -10q0 -4 -5 -11q-24 -28 -78.5 -40t-85.5 3q-14 9 -24.5 20t-10.5 20z" />
<glyph unicode="&#xca;" horiz-adv-x="1699" d="M997 2205q18 56 37.5 82.5t68.5 60.5q59 39 155.5 133t96.5 110q0 13 42 47q17 15 47 56.5t54 84.5q61 106 70.5 106t46.5 82l63 131q10 20 27.5 39.5t31.5 26.5q32 17 73.5 17.5t68.5 -13.5q57 -31 85 -297q15 -147 21 -155q7 -13 66 -284q14 -63 18 -96t20 -49t16 -74 q0 -56 -25.5 -82.5t-74.5 -20.5q-61 5 -100.5 81t-81.5 267q-48 217 -65 238q-10 14 -24.5 6t-55.5 -52q-65 -68 -148 -171q-263 -323 -325 -371q-45 -35 -90.5 -29t-82.5 52q-17 21 -27.5 42.5t-7.5 31.5zM44 1572q8 70 50 114q26 29 42.5 34.5t55.5 -1.5q15 -2 28 -2 q34 0 47 16q38 45 129 45q37 0 83 -8q51 -9 117 -9q57 0 126 7q434 42 633 51q163 5 171 13q4 5 12 5q7 1 16 -3q20 -8 60 -8q45 0 44 -31q-3 -32 -56 -77q-34 -28 -62.5 -37t-103.5 -15q-113 -8 -155 -22q-36 -13 -305 -50t-319 -37q-45 0 -85.5 14t-150.5 18l-107 3 l-9 -121q-4 -67 -4 -131q1 -51 3 -101q6 -113 8 -234l4 -120l206 67q238 80 408 82h8q164 0 280 -74q64 -40 108 -127q28 -54 28 -87q0 -20 -10 -33q-21 -26 -49.5 -16t-84.5 60q-30 27 -67 50t-61 30q-49 15 -115 15q-47 0 -101 -8q-132 -18 -229 -66q-71 -35 -144.5 -60 t-107.5 -25h-46l-3 -202q-3 -201 -3.5 -260t-11.5 -70q-21 -22 2 -25h7q34 0 66 28q21 18 128 53q65 21 131.5 29.5t220.5 13.5q248 12 352 28q117 21 242 22h12q115 0 138 -19q17 -12 19 -22t-8 -32q-8 -21 -28 -32.5t-63 -19.5l-217 -51q-95 -23 -197.5 -38t-302.5 -33 q-134 -11 -221 -31.5t-160 -53.5q-102 -49 -137 -49q-39 0 -63 27q-20 22 -19 49q0 7 1 13q1 11 -28 37q-21 16 -24 28t6 39q11 31 11 111q0 23 -1 50q-10 309 -22.5 562t-19.5 274t-13 84q-8 86 -26.5 156t-39.5 100q-25 34 -25 85q0 13 2 28z" />
<glyph unicode="&#xcc;" horiz-adv-x="337" d="M-91 2471.5q1 24.5 22 45.5q34 34 78 26t71 -53q29 -47 89.5 -117t60.5 -85.5t21 -30.5q23 -17 29 -67.5t-13 -74.5q-29 -36 -80 -11.5t-144 116.5q-46 46 -80 88t-37 56q-18 83 -17 107.5zM43 1764q-1 15 -1 28q0 36 10 54q14 24 77 57q37 20 50 20q1 -1 2 -1 q12 -2 46 -32q41 -40 59 -88q10 -28 11 -53q0 -19 -6 -38q-15 -48 -19 -161q-19 -465 -31 -566l-21 -164q-15 -100 -14 -185v-15q2 -92 18 -221q10 -77 10 -106v-7q-2 -26 -16 -41q-16 -15 -36 -15q-15 0 -33 8q-41 20 -47 64q-18 119 -35 194q-9 38 -9 105q0 86 15 219 q8 65 15 394q2 124 2 201v79q-2 78 -17 123q-23 74 -30 147z" />
<glyph unicode="&#xcd;" horiz-adv-x="546" d="M43.5 382q-4.5 45 1 115t21.5 183q14 110 16.5 475t-9.5 473q-7 65 -4.5 85t21.5 38q30 31 84 31t81 -29q18 -20 19.5 -51.5t-11.5 -157.5q-17 -182 -24 -224.5t-19.5 -277t-27.5 -405.5q-23 -262 -42 -304q-17 -29 -51 -29q-25 0 -38 16.5t-17.5 61.5zM209.5 2035.5 q-3.5 12.5 7.5 44.5q17 49 38 82q15 22 37 27t99 5q113 0 113 -6q0 -11 -68 -83t-104 -99l-53 -39l-40 34q-26 22 -29.5 34.5z" />
<glyph unicode="&#xce;" horiz-adv-x="337" d="M-362 2220q18 56 37.5 82.5t68.5 60.5q59 39 155.5 133t96.5 110q0 13 42 47q17 15 47 56.5t54 84.5q61 106 70.5 106t46.5 82l63 131q10 20 27.5 39.5t31.5 26.5q32 17 73.5 17.5t68.5 -13.5q57 -31 85 -297q15 -147 21 -155q7 -13 66 -284q14 -63 18 -96t20 -49t16 -74 q0 -56 -25.5 -82.5t-74.5 -20.5q-61 5 -100.5 81t-81.5 267q-48 217 -65 238q-10 14 -24.5 6t-55.5 -52q-65 -68 -148 -171q-263 -323 -325 -371q-45 -35 -90.5 -29t-82.5 52q-17 21 -27.5 42.5t-7.5 31.5zM43 1764q-1 15 -1 28q0 36 10 54q14 24 77 57q37 20 50 20 q1 -1 2 -1q12 -2 46 -32q41 -40 59 -88q10 -28 11 -53q0 -19 -6 -38q-15 -48 -19 -161q-19 -465 -31 -566l-21 -164q-15 -100 -14 -185v-15q2 -92 18 -221q10 -77 10 -106v-7q-2 -26 -16 -41q-16 -15 -36 -15q-15 0 -33 8q-41 20 -47 64q-18 119 -35 194q-9 38 -9 105 q0 86 15 219q8 65 15 394q2 124 2 201v79q-2 78 -17 123q-23 74 -30 147z" />
<glyph unicode="&#xd1;" horiz-adv-x="1706" d="M44 48q-8 28 11 63q19 36 10 36t46 46q39 34 96.5 139.5t71.5 170.5q26 121 51 191q35 94 63 271q24 141 48 268q22 118 28.5 175.5t10.5 152.5q4 126 36.5 164.5t114.5 17.5q56 -15 76 -69t18 -191q0 -108 13.5 -231.5t32.5 -195.5q14 -49 14 -92t22 -83t13 -54 q-2 -4 0.5 -8t8.5 -4q17 0 1 -18q-21 -27 -0.5 -114.5t95.5 -290.5q16 -42 25 -62.5t19.5 -26.5t19 1.5t20.5 30.5q87 145 132 281q29 88 56 147t49 144.5t44.5 163.5t35.5 134q14 63 77 278q22 78 31 193q7 102 29 168.5t53 79.5q79 32 122 -24q28 -35 27.5 -61.5 t-33.5 -119.5q-33 -101 -49 -158l-78 -291q-66 -235 -66 -252t-19.5 -64t-65.5 -195q-37 -115 -54.5 -163.5t-59.5 -150.5l-53 -127q-61 -149 -117 -227q-28 -39 -43 -47t-47 -2q-60 13 -84.5 41.5t-49.5 116.5q-33 111 -59.5 167.5t-35.5 92.5t-21 64t-44 170t-49.5 177.5 t-35.5 125.5q-19 82 -31 78q-11 -12 -25 -103q-45 -307 -90 -441q-36 -107 -46 -155t-56 -190q-39 -119 -81 -177.5t-93 -68.5q-29 -6 -45 1t-43 35q-39 44 -47 72zM658 2098q6 43 64 75q26 14 71.5 17.5t155.5 0.5q123 -3 161 -8.5t67 -26.5q101 -71 65 -140 q-17 -31 -53.5 -34.5t-121.5 19.5q-46 12 -75 12t-71 -10q-113 -28 -149 -27t-71 33q-49 46 -43 89z" />
<glyph unicode="&#xd2;" horiz-adv-x="1481" d="M724 2456.5q1 24.5 22 45.5q34 34 78 26t71 -53q29 -47 89.5 -117t60.5 -85.5t21 -30.5q23 -17 29 -67.5t-13 -74.5q-29 -36 -80 -11.5t-144 116.5q-46 46 -80 88t-37 56q-18 83 -17 107.5zM46 445q10 98 56 298q27 112 49.5 176t75.5 179q33 70 43 105.5t29 56.5t62 106 q91 182 257 339.5t303 191.5q43 11 75 11q10 0 18 -1q38 -4 123 -32q168 -55 233.5 -182.5t68.5 -397.5v-28q1 -109 -13 -227q-16 -133 -32 -143q-12 -7 -12 -35q0 -61 -93 -227t-222.5 -339.5t-223.5 -256.5q-115 -99 -174.5 -132t-168.5 -57q-45 -10 -87 -10 q-154 0 -274 129q-41 44 -58.5 93.5t-28.5 151.5q-10 82 -10 150q0 43 4 81zM212 444q-7 -72 -7 -129q0 -99 22 -150q42 -101 114 -131q35 -15 81 -16q48 0 107 17q56 15 91 39.5t114 100.5q119 115 175 193q155 214 228 346t103.5 256.5t37.5 311.5q2 62 2 111q0 81 -6 124 q-10 69 -48 121q-22 30 -32 30h-2q-10 -2 -2 -38q2 -9 2 -19q0 -35 -22 -81q-18 -36 -32 -47.5t-39 -11.5q-41 0 -70 29t-29 68q0 68 -53 68q-9 0 -20 -2q-41 -9 -60 7q-6 5 -16 5q-35 0 -116 -68q-104 -87 -182 -199q-59 -83 -136.5 -249.5t-123.5 -306.5 q-61 -181 -81 -379z" />
<glyph unicode="&#xd3;" horiz-adv-x="1446" d="M43 524q12 198 49 365.5t90 252.5q31 48 45 84q22 58 97.5 187.5t120.5 189.5q72 94 145.5 163t113.5 83q59 19 97 14.5t94 -37.5q50 -28 111.5 -97t93.5 -129q7 -12 18.5 -22t19.5 -10q24 0 78.5 -39t86.5 -80q28 -35 43 -78.5t46 -174.5q23 -105 3.5 -244t-68.5 -210 q-26 -38 -26 -57t-29 -54.5t-29 -60t-56.5 -110t-56.5 -94.5t-57 -65.5t-57 -68.5q0 -14 -101.5 -110.5t-148.5 -127.5q-91 -58 -157 -82.5t-133 -24.5q-132 -2 -234 80.5t-155 229t-44 327.5zM244 517q-2 -154 2.5 -197t27.5 -86q70 -132 161 -153.5t212 65.5 q116 82 284.5 299t227.5 359q42 100 57.5 119t9 30.5t5.5 89.5q5 48 1 85t-25 108q-24 80 -37.5 101.5t-46.5 38.5q-41 20 -73 15t-78 -37q-38 -27 -54 -27q-7 0 -11.5 -4t-4.5 -10q0 -18 -80 -74t-98 -52q-25 4 -41 30q-33 53 130 215l91 91l-53 59q-52 57 -68 57 q-44 0 -145.5 -109.5t-160.5 -219.5l-75 -140q-37 -64 -47.5 -99t-28.5 -78q-46 -104 -63.5 -207t-18.5 -269zM774 2104q0 25 31 58q22 23 55 27.5t182 4.5h204l-111 -80q-112 -81 -172 -115q-42 -24 -58 -25t-44 13q-34 18 -60.5 53.5t-26.5 63.5z" />
<glyph unicode="&#xd4;" horiz-adv-x="1481" d="M453 2205q18 56 37.5 82.5t68.5 60.5q59 39 155.5 133t96.5 110q0 13 42 47q17 15 47 56.5t54 84.5q61 106 70.5 106t46.5 82l63 131q10 20 27.5 39.5t31.5 26.5q32 17 73.5 17.5t68.5 -13.5q57 -31 85 -297q15 -147 21 -155q7 -13 66 -284q14 -63 18 -96t20 -49t16 -74 q0 -56 -25.5 -82.5t-74.5 -20.5q-61 5 -100.5 81t-81.5 267q-48 217 -65 238q-10 14 -24.5 6t-55.5 -52q-65 -68 -148 -171q-263 -323 -325 -371q-45 -35 -90.5 -29t-82.5 52q-17 21 -27.5 42.5t-7.5 31.5zM46 445q10 98 56 298q27 112 49.5 176t75.5 179q33 70 43 105.5 t29 56.5t62 106q91 182 257 339.5t303 191.5q43 11 75 11q10 0 18 -1q38 -4 123 -32q168 -55 233.5 -182.5t68.5 -397.5v-28q1 -109 -13 -227q-16 -133 -32 -143q-12 -7 -12 -35q0 -61 -93 -227t-222.5 -339.5t-223.5 -256.5q-115 -99 -174.5 -132t-168.5 -57 q-45 -10 -87 -10q-154 0 -274 129q-41 44 -58.5 93.5t-28.5 151.5q-10 82 -10 150q0 43 4 81zM212 444q-7 -72 -7 -129q0 -99 22 -150q42 -101 114 -131q35 -15 81 -16q48 0 107 17q56 15 91 39.5t114 100.5q119 115 175 193q155 214 228 346t103.5 256.5t37.5 311.5 q2 62 2 111q0 81 -6 124q-10 69 -48 121q-22 30 -32 30h-2q-10 -2 -2 -38q2 -9 2 -19q0 -35 -22 -81q-18 -36 -32 -47.5t-39 -11.5q-41 0 -70 29t-29 68q0 68 -53 68q-9 0 -20 -2q-41 -9 -60 7q-6 5 -16 5q-35 0 -116 -68q-104 -87 -182 -199q-59 -83 -136.5 -249.5 t-123.5 -306.5q-61 -181 -81 -379z" />
<glyph unicode="&#xd5;" horiz-adv-x="1481" d="M-47 2257q15 42 127 159.5t146 127.5q25 8 25 19q0 14 125 97t170 98q55 20 74 17.5t77 -32.5q70 -35 93.5 -35t58.5 -29t63 -29q49 0 302 -173q59 -40 69.5 -40t32.5 -19q20 -18 109 -42t167 -32q53 -7 74 0.5t79 50.5q63 51 95.5 83t77.5 91q37 48 77.5 53.5 t66.5 -32.5q24 -32 10 -89.5t-80 -200.5q-36 -78 -83.5 -125.5t-121.5 -78.5q-42 -17 -120.5 -17.5t-136.5 15.5q-49 14 -134 31q-127 27 -245 71t-146 78q-18 21 -38 21t-58 26q-210 143 -331 156q-44 4 -64.5 -4t-65.5 -45l-124 -103q-26 -19 -47 -43t-26 -38 q-6 -14 -13.5 -24.5t-13.5 -10.5q-14 0 -38 -45q-23 -44 -47.5 -62.5t-59.5 -19.5q-55 0 -100.5 63t-25.5 112zM46 445q10 98 56 298q27 112 49.5 176t75.5 179q33 70 43 105.5t29 56.5t62 106q91 182 257 339.5t303 191.5q43 11 75 11q10 0 18 -1q38 -4 123 -32 q168 -55 233.5 -182.5t68.5 -397.5v-28q1 -109 -13 -227q-16 -133 -32 -143q-12 -7 -12 -35q0 -61 -93 -227t-222.5 -339.5t-223.5 -256.5q-115 -99 -174.5 -132t-168.5 -57q-45 -10 -87 -10q-154 0 -274 129q-41 44 -58.5 93.5t-28.5 151.5q-10 82 -10 150q0 43 4 81z M212 444q-7 -72 -7 -129q0 -99 22 -150q42 -101 114 -131q35 -15 81 -16q48 0 107 17q56 15 91 39.5t114 100.5q119 115 175 193q155 214 228 346t103.5 256.5t37.5 311.5q2 62 2 111q0 81 -6 124q-10 69 -48 121q-22 30 -32 30h-2q-10 -2 -2 -38q2 -9 2 -19q0 -35 -22 -81 q-18 -36 -32 -47.5t-39 -11.5q-41 0 -70 29t-29 68q0 68 -53 68q-9 0 -20 -2q-41 -9 -60 7q-6 5 -16 5q-35 0 -116 -68q-104 -87 -182 -199q-59 -83 -136.5 -249.5t-123.5 -306.5q-61 -181 -81 -379z" />
<glyph unicode="&#xd6;" horiz-adv-x="1477" d="M43.5 691q8.5 232 40.5 272q13 16 21 65q8 39 43 118.5t65 123.5q24 36 52 99q30 72 90.5 158t127.5 156q62 63 111 94.5t123 53.5q71 23 147.5 20t128.5 -31l123 -64q26 -14 74 -55t88 -84q88 -92 117.5 -165.5t38.5 -219.5q11 -213 -76 -388q-32 -64 -41 -107t-74 -135 l-112 -164q-95 -144 -223 -235t-264 -113q-92 -16 -106 -23q-21 -14 -129.5 18.5t-156.5 65.5q-57 42 -104 98t-57 95q-8 38 -28 69q-28 46 -19.5 278zM185.5 614.5q4.5 -123.5 49 -213t133 -131.5t212.5 -29q134 14 287.5 139t234.5 286l71 135q37 64 58.5 142t37 109.5 t7.5 150.5t-29 168t-98 130.5t-100 81.5q-24 0 -24 -28t-13.5 -35.5t-23.5 -53.5q-14 -67 -74.5 -89t-115.5 19q-21 17 -28 34.5t-6 50.5q3 58 19 86q8 18 5 26.5t-19 16.5q-27 15 -47 15q-32 -1 -102.5 -49.5t-102.5 -92.5l-73 -93q-24 -31 -91 -164q-87 -172 -129.5 -330 t-38 -281.5zM433 2173q4 12 37 16.5t126 4.5h88q26 0 45.5 -4.5t23 -9t6.5 -17.5q10 -36 -18 -75.5t-87 -70.5q-62 -32 -101 -30t-78 39q-26 24 -40 71.5t-2 75.5zM1039 1984q-9 46 5 89.5t41 54.5q31 11 80.5 6t66.5 -21q48 -49 55 -90t-27 -83q-71 -86 -136.5 -73.5 t-84.5 117.5z" />
<glyph unicode="&#xd8;" horiz-adv-x="2262" d="M42.5 -175q-3.5 38 10.5 71q9 19 37 50.5t61 57.5q79 65 86 80t-19 106q-30 114 -19.5 257.5t57.5 253.5q11 27 25 79q12 42 30 78l70 142q54 110 157 239t210 222t172 108q185 45 354 -116q46 -45 82 -59.5t71 -4.5q30 7 94.5 -30t122.5 -96l63 -65l113 52 q171 77 225 98t66 13q14 -10 25.5 8t50.5 10q61 -17 8 -57q-38 -31 -151 -87q-171 -86 -232 -126l-63 -41l12 -80q13 -82 10 -206.5t-20 -173.5q-16 -55 -19 -76q-7 -56 -76 -183l-66 -124q-23 -46 -84 -111t-121 -110q-49 -35 -105 -81t-90.5 -54.5t-34.5 -19.5 q0 -25 -241 -34.5t-343 13.5q-150 31 -186 82q-10 16 -46.5 -4.5t-44.5 -45.5q-3 -11 -15 -23t-24 -19q-31 -14 -66 -34q-29 -16 -66.5 -19t-55.5 10q-21 12 -24.5 50zM375 406q-3 -146 17 -160q13 -11 55 24q47 42 97 79t85.5 68.5t103.5 73.5t68 55t44 40t103 82.5 t115.5 89.5t106.5 75l68 56q19 14 85 59q140 94 176.5 126.5t25.5 55.5q-6 11 -29 28.5t-48 30.5l-63 30l-35 -39q-31 -32 -54 -35.5t-67 21.5q-29 17 -45 13t-75 -42q-66 -45 -103 -47t-51 36q-9 19 4 39.5t62 72.5q46 47 58.5 66.5t2.5 29.5q-43 41 -125.5 21.5 t-150.5 -87.5q-117 -116 -224 -281t-156 -305q-31 -88 -40 -138.5t-11 -137.5zM513 80q-15 -24 13 -44q38 -28 113 -37.5t218 -5.5q151 4 191.5 15.5t152.5 75.5q23 14 86 67t98 88q37 37 86 119.5t72 144.5q28 74 44 190t9 185q-7 70 -21 74q-22 7 -158 -93t-247 -205 q-78 -74 -163.5 -143.5t-154 -134.5t-92.5 -77t-59 -60q-15 -19 -47 -47t-63 -48q-63 -40 -78 -64z" />
<glyph unicode="&#xd9;" horiz-adv-x="1768" d="M1161 2456.5q1 24.5 22 45.5q34 34 78 26t71 -53q29 -47 89.5 -117t60.5 -85.5t21 -30.5q23 -17 29 -67.5t-13 -74.5q-29 -36 -80 -11.5t-144 116.5q-46 46 -80 88t-37 56q-18 83 -17 107.5zM43 489q-1 27 -1 52q0 94 12 159q15 83 93 368q27 100 62 249.5t47 222.5 q10 53 20.5 76t32.5 39q41 28 88 28q17 0 35 -4q68 -14 87 -69q16 -43 16.5 -89.5t-13.5 -55.5t-5.5 -23t-14.5 -49t-15.5 -48.5t-4.5 -20.5q-14 -9 -60.5 -95.5t-75.5 -160.5q-59 -145 -92 -291t-33 -256q2 -56 9.5 -89.5t29.5 -75.5q66 -122 134 -150q23 -9 50 -9 q53 0 120 37q62 33 208 171t146 162q0 20 66.5 91t101 135t72.5 120q57 85 82.5 149.5t37 155.5t21.5 280q3 70 5 100l4 58q2 30 8.5 41t12 18.5t19.5 20.5q39 33 79 33q13 1 27 -3q54 -16 86 -85q16 -37 20 -67q1 -10 2 -23q0 -27 -5 -69q-11 -100 -28.5 -163.5 t-22.5 -84.5l-28 -119q-20 -84 -20 -178q0 -39 4 -79q12 -138 58 -254q17 -42 44.5 -118.5t79.5 -123.5q82 -74 82 -125q0 -26 -26.5 -46t-61.5 -20q-39 0 -110.5 67.5t-106.5 135.5l-57 110q-27 49 -56 144l-28 94l-49 -75q-115 -168 -253.5 -324.5t-239.5 -232.5 q-52 -38 -66.5 -56t-105.5 -54q-75 -31 -134 -31q-1 1 -2 1q-60 0 -121 31q-51 27 -117.5 100.5t-100.5 141.5q-27 53 -35 93t-13 133z" />
<glyph unicode="&#xda;" horiz-adv-x="1621" d="M43 865q42 221 70 319q16 55 39 185t36 235q12 100 23.5 147t29 68t50.5 28q38 9 52 14q28 8 44 -3t43 -56q28 -48 29.5 -64t-15.5 -59q-23 -61 -27.5 -89.5t-30 -85t-44.5 -128.5l-41 -154q-22 -84 -49 -257q-15 -110 -16.5 -160t8.5 -118q42 -252 148 -323 q45 -29 73.5 -16t89.5 94.5t257 279.5q153 156 197 221.5t90 205.5q25 77 31.5 132.5t7.5 217.5q2 161 6.5 204t23.5 65q26 28 70 24.5t92 -36.5q48 -34 62 -80t-2 -126q-24 -133 -42 -269.5t-17 -188.5q0 -71 2 -206q1 -189 19 -291l24 -136q45 -256 153 -337 q35 -27 46 -63.5t-10 -54.5q-21 -17 -21 -36q0 -23 -47 -23.5t-97 21.5q-34 14 -85 106.5t-76 187.5q-36 133 -56 370q-6 64 -15 137l-10 72l-191 -208q-190 -207 -204 -221q-17 -15 -80 -114t-63 -110q0 -17 -50.5 -42t-83.5 -25q-17 0 -45.5 10.5t-49.5 24.5 q-54 35 -66 35q-24 0 -74.5 63t-97.5 148.5t-63 144.5q-26 93 -39 189t-8 131zM763 2167q0 10 3.5 15t19.5 7.5t41.5 3.5t78.5 1q124 0 131 -9q5 -5 -2 -18q-20 -33 -74 -74t-82 -41q-29 0 -72.5 43t-43.5 72z" />
<glyph unicode="&#xdb;" horiz-adv-x="1768" d="M889 2205q18 56 37.5 82.5t68.5 60.5q59 39 155.5 133t96.5 110q0 13 42 47q17 15 47 56.5t54 84.5q61 106 70.5 106t46.5 82l63 131q10 20 27.5 39.5t31.5 26.5q32 17 73.5 17.5t68.5 -13.5q57 -31 85 -297q15 -147 21 -155q7 -13 66 -284q14 -63 18 -96t20 -49t16 -74 q0 -56 -25.5 -82.5t-74.5 -20.5q-61 5 -100.5 81t-81.5 267q-48 217 -65 238q-10 14 -24.5 6t-55.5 -52q-65 -68 -148 -171q-263 -323 -325 -371q-45 -35 -90.5 -29t-82.5 52q-17 21 -27.5 42.5t-7.5 31.5zM43 489q-1 27 -1 52q0 94 12 159q15 83 93 368q27 100 62 249.5 t47 222.5q10 53 20.5 76t32.5 39q41 28 88 28q17 0 35 -4q68 -14 87 -69q16 -43 16.5 -89.5t-13.5 -55.5t-5.5 -23t-14.5 -49t-15.5 -48.5t-4.5 -20.5q-14 -9 -60.5 -95.5t-75.5 -160.5q-59 -145 -92 -291t-33 -256q2 -56 9.5 -89.5t29.5 -75.5q66 -122 134 -150 q23 -9 50 -9q53 0 120 37q62 33 208 171t146 162q0 20 66.5 91t101 135t72.5 120q57 85 82.5 149.5t37 155.5t21.5 280q3 70 5 100l4 58q2 30 8.5 41t12 18.5t19.5 20.5q39 33 79 33q13 1 27 -3q54 -16 86 -85q16 -37 20 -67q1 -10 2 -23q0 -27 -5 -69 q-11 -100 -28.5 -163.5t-22.5 -84.5l-28 -119q-20 -84 -20 -178q0 -39 4 -79q12 -138 58 -254q17 -42 44.5 -118.5t79.5 -123.5q82 -74 82 -125q0 -26 -26.5 -46t-61.5 -20q-39 0 -110.5 67.5t-106.5 135.5l-57 110q-27 49 -56 144l-28 94l-49 -75q-115 -168 -253.5 -324.5 t-239.5 -232.5q-52 -38 -66.5 -56t-105.5 -54q-75 -31 -134 -31q-1 1 -2 1q-60 0 -121 31q-51 27 -117.5 100.5t-100.5 141.5q-27 53 -35 93t-13 133z" />
<glyph unicode="&#xdc;" horiz-adv-x="1239" d="M42 1471.5q0 173.5 8 228.5q10 61 29.5 88.5t64.5 44.5q49 16 67.5 17.5t60.5 -39.5t42 -61q0 -31 -24 -142t-41 -155q-24 -63 -28 -155q-7 -112 -7 -339.5t7 -275.5l14 -126q11 -101 69 -186q49 -70 144 -11q53 33 146 151.5t110 175.5q13 41 72 174q40 91 52 157.5 t12 209.5q1 333 62 455q21 43 37 55t61 20q43 9 60.5 7t34.5 -18q29 -26 35.5 -66t-10.5 -110q-20 -80 -22 -144q-2 -58 -18 -139t-30 -108q-15 -29 -11.5 -147.5t22.5 -206.5q39 -172 107 -238q22 -24 27 -54t-5.5 -56t-36.5 -43.5t-60 -17.5q-35 0 -74.5 53.5t-77.5 148.5 q-39 99 -55 95q-4 -1 -4 -11q0 -14 -77 -177q-45 -92 -78.5 -144.5t-81.5 -101.5q-88 -90 -132 -113.5t-121 -25.5q-78 0 -133 27t-94 84q-42 62 -59.5 127.5t-26.5 185.5t-15 384q-5 324 -14 335q-8 14 -8 187.5zM266 2174q-3 7 2 10.5t22 5.5t44 3t76 1h153l-72 -44 q-54 -32 -85.5 -34t-94.5 23q-38 16 -45 35zM742 2194h134h135v-53q0 -55 -45 -102t-88 -36q-31 7 -70 55t-53 94z" />
<glyph unicode="&#xdd;" horiz-adv-x="1271" d="M123.5 2116.5q-11.5 38.5 13.5 120.5q14 44 85.5 120t176.5 159q74 59 100 101q10 18 26 32t29 17l39 7q11 2 39 -30.5t28 -48.5q0 -19 -40 -101q-34 -64 -85 -115t-157 -127q-87 -63 -87 -77t-30 -54q-15 -24 -32 -33t-43 -9q-51 0 -62.5 38.5zM43 1592q-2 6 -2 13 q0 28 29 67q36 50 80 65q42 16 43 16q1 1 2 1q10 0 43 -21q38 -24 57 -43q27 -24 86.5 -135.5t59.5 -137.5q0 -23 35 -79.5t35 -93.5t49 -161t57.5 -164t28.5 -56t20 -47q0 -19 6 -21q8 0 15 38q6 31 48 119q57 125 72 160.5t15 50.5q0 17 47 125.5t62 129.5q13 17 36 73.5 t38 110.5q23 71 83 106q30 17 55 17q26 0 47 -18q39 -36 39 -82q0 -7 -1 -13q-6 -55 -66 -148q-28 -42 -42 -77t-27 -57q-75 -134 -107 -211q-26 -65 -65 -150q-99 -214 -99 -241q0 -21 -10.5 -21t-37.5 -66q-75 -192 -116 -259q-21 -35 -56 -113q-53 -118 -140 -286.5 t-106 -195.5q-19 -24 -27 -26h-2q-8 0 -23 14q-16 16 -16 26t14 38q23 41 39 101t65 161.5t49 126.5t19.5 72t44 135.5t44.5 104.5q21 17 19 46.5t-28 64.5q-29 41 -48.5 94.5t-56.5 123t-37 90t-33 87t-53 122.5q-18 58 -63 110.5t-88 66.5q-88 30 -88 91q0 33 -23 51 q-8 7 -13.5 23t-4.5 31q2 37 -3 51z" />
<glyph unicode="&#xdf;" horiz-adv-x="2678" d="M42.5 273.5q-7.5 147.5 30.5 293.5q19 78 28.5 134t14 64.5t14.5 56.5q11 64 108 388q43 144 154 298q41 56 49 88q7 27 47.5 71.5t57.5 44.5q11 0 89 78t211 142q98 48 129.5 55.5t109.5 3.5q113 -7 173.5 -42t107.5 -122q34 -63 38 -82.5t-11 -57.5q-18 -46 -88 -129.5 t-219 -235.5l-147 -152l96 -32q72 -24 129.5 -61t75.5 -70q13 -26 23 -84q5 -37 0.5 -57t-30.5 -55q-15 -21 -51.5 -57t-71.5 -62q-64 -52 -184 -164t-127 -128q-4 -11 -67 -64q-64 -55 -116 -55q-27 0 -27 20q0 18 -28 42.5t-28 35.5q0 13 81.5 94t134.5 123 q49 38 164.5 166t115.5 145q0 16 -51 21.5t-113.5 -1t-91.5 -23.5q-84 -43 -174 47q-36 37 -47.5 58t-9.5 55q0 32 12.5 54t50.5 57q63 58 140.5 101.5t84.5 52.5t47 40t117 128l90 112q12 15 35 58q15 31 11.5 43.5t-39.5 50.5q-45 46 -76.5 48.5t-97.5 -35.5 q-87 -51 -200.5 -150t-113.5 -125q0 -11 -35 -44q-26 -24 -80 -123t-54 -122q0 -17 -22.5 -62t-25 -62.5t-28.5 -102t-31.5 -132t-17.5 -70.5q-19 -35 -34.5 -175.5t-14.5 -258.5q2 -85 24 -155q20 -60 14.5 -89.5t-43.5 -53.5q-35 -22 -81.5 -15t-75.5 39 q-48 53 -55.5 200.5zM2597 1859q-13 4 6 6q4 1 11 1q21 0 22 -4q0 -1 -4 -3q-18 -7 -35 0z" />
<glyph unicode="&#xe0;" d="M409 1864.5q1 24.5 22 45.5q34 34 78 26t71 -53q29 -47 89.5 -117t60.5 -85.5t21 -30.5q23 -17 29 -67.5t-13 -74.5q-29 -36 -80 -11.5t-144 116.5q-46 46 -80 88t-37 56q-18 83 -17 107.5zM50 678q20 107 97 270q8 19 51.5 69.5t94.5 101.5q71 70 116 103.5t95 54.5 q91 38 176 38q18 1 38 -1q104 -10 170 -76q70 -68 99 -205q4 -15 16.5 -31t28.5 -25q29 -15 38 -69q4 -21 3 -44q0 -36 -8 -79q-4 -19 -4 -38q0 -51 26 -107q36 -78 104 -129q59 -43 102.5 -63.5t100.5 -28.5q58 -10 80.5 -32t23.5 -68v-8q0 -25 -6 -39q-7 -16 -28 -33 q-25 -19 -45 -19h-1q-21 0 -95 14q-153 31 -209 85l-56 51q-30 25 -73.5 87t-43.5 79q0 13 -20 30q-12 9 -26 1.5t-42 -39.5q-136 -153 -224.5 -214.5t-197.5 -81.5q-51 -8 -86 -8q-17 0 -29 2q-40 6 -95 34q-66 37 -105 86.5t-57 122.5q-17 60 -17 122q0 43 8 87zM231 526 q21 -74 91 -99q27 -10 57 -10q55 0 120 34q99 52 193 171q117 146 117 207q0 9 -3 17q-2 5 -2 11q0 19 16 50q15 28 15 40t-29 46q-36 43 -36 55.5t-45.5 41.5t-76.5 29q-63 0 -182 -92t-159 -170q-21 -44 -31 -51t-34 -96q-19 -67 -20 -120q1 -35 9 -64z" />
<glyph unicode="&#xe1;" horiz-adv-x="1470" d="M42 226q-3 107 22 172q86 214 317 359q64 40 82.5 66.5t36.5 26.5t126 56q73 38 103 45.5t73 1.5q67 -9 103 -26t116 -39q32 -10 49.5 -16.5t34 -19t22.5 -23.5t11.5 -38t6 -53.5t0.5 -78.5q0 -92 8.5 -134t31.5 -64.5t78 -40.5q49 -15 70 -51t-2 -64q-21 -24 -81 -37 t-94 -1q-53 20 -73 4.5t-64 -106.5q-54 -116 -134 -204q-79 -86 -156.5 -118t-213.5 -33q-88 0 -122.5 7t-98.5 39q-160 81 -221 206q-28 57 -31 164zM255 273q-11 -63 3.5 -108.5t63.5 -97.5q35 -36 91 -58.5t113 -22.5q40 0 116 40t117 83q75 80 125 221.5t25 198.5 q-17 37 -59 45q-41 10 -71 38.5t-30 59.5q0 18 -5.5 26.5t-22.5 8t-43.5 -10t-69.5 -28.5q-59 -27 -148.5 -96t-115.5 -109q-51 -82 -65 -112t-24 -78zM836.5 1468q17.5 55 133.5 167q132 128 209 179.5t152 67.5q63 11 77 5.5t19 -46.5q4 -35 -19 -63t-121 -112 q-76 -63 -112.5 -100t-64.5 -78q-70 -108 -123 -137t-104 10q-64 52 -46.5 107z" />
<glyph unicode="&#xe2;" d="M138 1613q18 56 37.5 82.5t68.5 60.5q59 39 155.5 133t96.5 110q0 13 42 47q17 15 47 56.5t54 84.5q61 106 70.5 106t46.5 82l63 131q10 20 27.5 39.5t31.5 26.5q32 17 73.5 17.5t68.5 -13.5q57 -31 85 -297q15 -147 21 -155q7 -13 66 -284q14 -63 18 -96t20 -49t16 -74 q0 -56 -25.5 -82.5t-74.5 -20.5q-61 5 -100.5 81t-81.5 267q-48 217 -65 238q-10 14 -24.5 6t-55.5 -52q-65 -68 -148 -171q-263 -323 -325 -371q-45 -35 -90.5 -29t-82.5 52q-17 21 -27.5 42.5t-7.5 31.5zM50 678q20 107 97 270q8 19 51.5 69.5t94.5 101.5q71 70 116 103.5 t95 54.5q91 38 176 38q18 1 38 -1q104 -10 170 -76q70 -68 99 -205q4 -15 16.5 -31t28.5 -25q29 -15 38 -69q4 -21 3 -44q0 -36 -8 -79q-4 -19 -4 -38q0 -51 26 -107q36 -78 104 -129q59 -43 102.5 -63.5t100.5 -28.5q58 -10 80.5 -32t23.5 -68v-8q0 -25 -6 -39 q-7 -16 -28 -33q-25 -19 -45 -19h-1q-21 0 -95 14q-153 31 -209 85l-56 51q-30 25 -73.5 87t-43.5 79q0 13 -20 30q-12 9 -26 1.5t-42 -39.5q-136 -153 -224.5 -214.5t-197.5 -81.5q-51 -8 -86 -8q-17 0 -29 2q-40 6 -95 34q-66 37 -105 86.5t-57 122.5q-17 60 -17 122 q0 43 8 87zM231 526q21 -74 91 -99q27 -10 57 -10q55 0 120 34q99 52 193 171q117 146 117 207q0 9 -3 17q-2 5 -2 11q0 19 16 50q15 28 15 40t-29 46q-36 43 -36 55.5t-45.5 41.5t-76.5 29q-63 0 -182 -92t-159 -170q-21 -44 -31 -51t-34 -96q-19 -67 -20 -120q1 -35 9 -64 z" />
<glyph unicode="&#xe3;" d="M-362 1665q15 42 127 159.5t146 127.5q25 8 25 19q0 14 125 97t170 98q55 20 74 17.5t77 -32.5q70 -35 93.5 -35t58.5 -29t63 -29q49 0 302 -173q59 -40 69.5 -40t32.5 -19q20 -18 109 -42t167 -32q53 -7 74 0.5t79 50.5q63 51 95.5 83t77.5 91q37 48 77.5 53.5 t66.5 -32.5q24 -32 10 -89.5t-80 -200.5q-36 -78 -83.5 -125.5t-121.5 -78.5q-42 -17 -120.5 -17.5t-136.5 15.5q-49 14 -134 31q-127 27 -245 71t-146 78q-18 21 -38 21t-58 26q-210 143 -331 156q-44 4 -64.5 -4t-65.5 -45l-124 -103q-26 -19 -47 -43t-26 -38 q-6 -14 -13.5 -24.5t-13.5 -10.5q-14 0 -38 -45q-23 -44 -47.5 -62.5t-59.5 -19.5q-55 0 -100.5 63t-25.5 112zM50 678q20 107 97 270q8 19 51.5 69.5t94.5 101.5q71 70 116 103.5t95 54.5q91 38 176 38q18 1 38 -1q104 -10 170 -76q70 -68 99 -205q4 -15 16.5 -31t28.5 -25 q29 -15 38 -69q4 -21 3 -44q0 -36 -8 -79q-4 -19 -4 -38q0 -51 26 -107q36 -78 104 -129q59 -43 102.5 -63.5t100.5 -28.5q58 -10 80.5 -32t23.5 -68v-8q0 -25 -6 -39q-7 -16 -28 -33q-25 -19 -45 -19h-1q-21 0 -95 14q-153 31 -209 85l-56 51q-30 25 -73.5 87t-43.5 79 q0 13 -20 30q-12 9 -26 1.5t-42 -39.5q-136 -153 -224.5 -214.5t-197.5 -81.5q-51 -8 -86 -8q-17 0 -29 2q-40 6 -95 34q-66 37 -105 86.5t-57 122.5q-17 60 -17 122q0 43 8 87zM231 526q21 -74 91 -99q27 -10 57 -10q55 0 120 34q99 52 193 171q117 146 117 207q0 9 -3 17 q-2 5 -2 11q0 19 16 50q15 28 15 40t-29 46q-36 43 -36 55.5t-45.5 41.5t-76.5 29q-63 0 -182 -92t-159 -170q-21 -44 -31 -51t-34 -96q-19 -67 -20 -120q1 -35 9 -64z" />
<glyph unicode="&#xe4;" horiz-adv-x="1702" d="M45 626q-7 133 7.5 205.5t72.5 194.5q51 108 111.5 179.5t166.5 153.5q76 59 162.5 104t154.5 62q74 16 200 10t175 -29q21 -9 45.5 -29.5t38.5 -40.5q15 -19 34 -36t30 -20q18 -5 23 -28q5 -28 2 -203l-2 -222l44 -93q56 -112 122 -167t116 -33q62 30 97 -18 q31 -43 3 -97q-13 -26 -39 -44q-49 -34 -152 -15t-162 75q-48 43 -100.5 117.5t-80.5 137.5q-14 30 -27 50.5t-19 19.5q-11 -5 -63.5 -103.5t-98 -170.5t-45.5 -79q0 -18 -60 -95t-102 -115q-62 -53 -97 -72t-104 -35q-79 -19 -147 -3t-138 71q-88 68 -124 146.5t-44 221.5z M242.5 648.5q5.5 -110.5 24.5 -159.5q14 -38 64.5 -79.5t81.5 -41.5q34 0 93.5 32.5t94.5 69.5q39 41 121.5 159.5t82.5 132.5t33 54.5t57 89.5q16 35 61.5 155.5t57.5 159.5q8 28 -18 60t-61 39l-75 16q-34 5 -93 -6q-178 -35 -323.5 -180t-191.5 -334q-15 -57 -9.5 -167.5 zM353.5 1741.5q-11.5 60.5 42.5 114.5q18 19 35.5 22.5t59.5 -2.5q66 -10 106.5 -31t60.5 -12q24 8 58 -12.5t41 -48.5q12 -43 -12.5 -74t-87.5 -54q-75 -28 -117.5 -27.5t-102.5 29.5q-72 35 -83.5 95.5zM1054.5 1795q5.5 38 44.5 98q20 31 72.5 31.5t92.5 -30.5 q67 -53 9 -175q-31 -63 -58.5 -83t-70.5 -13q-34 5 -46.5 17.5t-29.5 60.5q-19 56 -13.5 94z" />
<glyph unicode="&#xe5;" horiz-adv-x="1566" d="M43 892q6 162 39 256t122 204q97 119 257.5 232t272.5 139q49 13 113 -0.5t95 -42.5q34 -31 61 -93t27 -107q0 -48 -42 -84q-21 -18 -29 -26t-9.5 -15t5.5 -9t25 -8q35 -8 59.5 -50.5t34.5 -111.5q22 -155 42 -176q14 -14 14 -59q0 -18 12.5 -50.5t29.5 -60.5 q43 -67 43 -72.5t39 -67.5l103 -158q61 -98 116 -162q82 -101 29 -161q-18 -20 -53.5 -24t-58.5 10q-32 21 -140 183t-227 372q-51 93 -72 91q-12 0 -17 -29q-6 -27 -25 -48t-21 -35q-7 -37 -73 -172q-112 -225 -225 -332t-222 -91q-60 9 -120 42t-86 70q-61 94 -80.5 149.5 t-29.5 168.5q-16 150 -9 328zM203 738q-7 -312 106 -396q30 -21 46 -23.5t61 9.5q43 11 65.5 29t67.5 78q136 187 228 471q31 95 39.5 142.5t5.5 124.5q-3 86 2.5 107.5t36.5 49.5l42 41l-39 28q-39 28 -59 64q-13 24 -27 31t-50 7t-67 -15t-97 -62q-108 -81 -171 -150 t-99 -146q-46 -98 -67 -189t-24 -201zM662 1971q0 25 27.5 56.5t58.5 43.5q21 7 39.5 1t44.5 -6q29 0 57 -32.5t28 -69.5q0 -43 -33 -90.5t-73 -61.5q-27 -9 -39.5 -6t-35.5 24q-33 31 -53.5 70t-20.5 71z" />
<glyph unicode="&#xe6;" horiz-adv-x="2363" d="M55 857q25 183 109 352t197 265q58 48 76 72q15 21 95 61.5t127 50.5q54 12 86.5 10t79.5 -22q46 -18 80 -52t44 -71q9 -29 65 -37t74 -20q15 -9 32 -46t18 -61q2 -50 -14.5 -143t-32.5 -139q-26 -63 -36.5 -143.5t-0.5 -121.5q6 -25 11 -24q6 2 34 60q34 75 34 90 t201.5 221.5t251.5 244.5q140 101 276.5 135.5t248.5 -3.5q38 -13 55 -27t26 -40q12 -31 7.5 -48.5t-32.5 -61.5q-18 -26 -49 -59t-56 -51q-63 -46 -103 -89t-110.5 -87.5t-134 -96.5t-107.5 -73q-145 -71 -179 -115q-10 -12 -28 -21.5t-35 -10.5q-41 -1 -78 -4 q-34 -2 -41 -26.5t7 -87.5q10 -44 24.5 -59t80.5 -44q84 -38 166 -47t190 6q92 16 117 16t153 -9q136 -10 208 7q72 18 102 9t26 -47q-6 -49 -62 -64t-218 -14q-119 1 -173.5 -3.5t-113.5 -23.5q-86 -26 -205 -23.5t-228 33.5q-54 16 -74.5 17t-27.5 -9.5t-19 -11t-43 10.5 q-78 25 -197 200q-59 89 -66 59v-14q0 -43 -114 -160t-208 -170q-57 -32 -86 -38t-110 -1q-66 2 -102 10.5t-66 26.5q-213 132 -152 562zM220 573q8 -48 45 -90q63 -77 189 -28t235 195q94 124 117 188.5t14 169.5q-7 80 -14.5 103.5t-35.5 44.5q-28 24 -34.5 46t-7.5 104 q-1 116 -3 133q-4 38 -99 -4q-55 -24 -160.5 -137.5t-135.5 -178.5q-63 -145 -95 -302.5t-15 -243.5zM1420.5 1039q6.5 -7 121 54.5t169.5 100.5q115 83 147 109t36 38q9 24 -31 14q-58 -14 -179 -85q-40 -24 -106.5 -78t-115 -100t-42 -53z" />
<glyph unicode="&#xe8;" horiz-adv-x="1248" d="M773 1792.5q1 24.5 22 45.5q34 34 78 26t71 -53q29 -47 89.5 -117t60.5 -85.5t21 -30.5q23 -17 29 -67.5t-13 -74.5q-29 -36 -80 -11.5t-144 116.5q-46 46 -80 88t-37 56q-18 83 -17 107.5zM43 346q-1 8 -1 18q0 48 34 134q40 104 100 191q47 66 140.5 159t146.5 126 q35 23 72 52q66 58 206.5 127t210.5 79t89 12h3q19 0 54 -19q71 -36 96 -97q13 -32 13 -70q0 -33 -10 -70q-14 -47 -86 -134.5t-131 -128.5q-57 -39 -149 -84.5t-113 -45.5q-22 0 -35.5 -13.5t-127 -52t-121 -50t-94.5 -21.5q-63 -7 -75.5 -15t-19.5 -40q-3 -17 -3 -33 q0 -48 30 -83q40 -46 147 -84q74 -27 183 -33q26 -1 51 0q84 0 172 13q44 8 66 8h5q22 -1 32 -12q11 -12 7.5 -24t-26.5 -40q-38 -45 -51.5 -45t-69.5 -27q-77 -37 -152 -47q-35 -5 -75 -5q-46 0 -100 6q-98 13 -158.5 36.5t-128.5 79.5q-45 35 -83 103t-48 130zM445 732 l55 10q54 10 141 40t142 57q81 39 148 109q51 53 51 78q0 8 -5 13q-6 6 -21 6q-12 1 -29 -3q-39 -8 -39 -23q0 -11 -35 -19.5t-106.5 -51t-78.5 -42.5q-9 0 -65 -42t-103 -84z" />
<glyph unicode="&#xe9;" horiz-adv-x="1327" d="M42 514q3 56 32 96q32 44 79 70.5t92 26.5q36 0 83 29.5t79 71.5q23 31 152.5 124.5t190.5 125.5q51 24 95.5 56.5t134.5 65.5q116 44 199.5 7.5t104.5 -140.5q4 -24 -2.5 -43.5t-27.5 -47.5q-36 -49 -36 -61q0 -23 -145.5 -133.5t-176.5 -110.5q-7 0 -45 -33t-207 -100 q-186 -76 -230 -96t-71 -45q-74 -68 -74 -182q0 -86 19 -136.5t62 -82.5q38 -29 68 -34.5t145 -5.5q95 0 132 -4.5t50 -18.5q24 -24 13.5 -54t-47.5 -38q-38 -10 -54 -23q-23 -16 -140 -21t-167 9q-55 15 -120.5 74t-93.5 119q-21 42 -29.5 106.5t-11.5 211.5 q-3 108 -28 133q-28 28 -25 84zM559 710q2 -2 11 -2q24 -1 32 13.5t35 14.5q42 0 208.5 101.5t180.5 136.5q7 19 -14 16q-33 -6 -183 -81q-72 -35 -79 -43.5t-58.5 -48t-70.5 -57.5t-47 -35q-25 -14 -15 -15zM614 1321.5q1 19.5 26 88.5q19 54 43.5 92t73.5 88 q86 89 135 168q67 108 185 145q36 11 60.5 3t53.5 -38q19 -20 28.5 -39t6.5 -27q-8 -21 -8 -41q0 -17 -38.5 -54t-55.5 -37q-18 0 -119.5 -101.5t-139.5 -160.5q-47 -71 -74 -99l-62 -67q-33 -37 -52 -32.5t-44 54.5q-20 38 -19 57.5z" />
<glyph unicode="&#xea;" horiz-adv-x="1248" d="M502 1541q18 56 37.5 82.5t68.5 60.5q59 39 155.5 133t96.5 110q0 13 42 47q17 15 47 56.5t54 84.5q61 106 70.5 106t46.5 82l63 131q10 20 27.5 39.5t31.5 26.5q32 17 73.5 17.5t68.5 -13.5q57 -31 85 -297q15 -147 21 -155q7 -13 66 -284q14 -63 18 -96t20 -49t16 -74 q0 -56 -25.5 -82.5t-74.5 -20.5q-61 5 -100.5 81t-81.5 267q-48 217 -65 238q-10 14 -24.5 6t-55.5 -52q-65 -68 -148 -171q-263 -323 -325 -371q-45 -35 -90.5 -29t-82.5 52q-17 21 -27.5 42.5t-7.5 31.5zM43 346q-1 8 -1 18q0 48 34 134q40 104 100 191q47 66 140.5 159 t146.5 126q35 23 72 52q66 58 206.5 127t210.5 79t89 12h3q19 0 54 -19q71 -36 96 -97q13 -32 13 -70q0 -33 -10 -70q-14 -47 -86 -134.5t-131 -128.5q-57 -39 -149 -84.5t-113 -45.5q-22 0 -35.5 -13.5t-127 -52t-121 -50t-94.5 -21.5q-63 -7 -75.5 -15t-19.5 -40 q-3 -17 -3 -33q0 -48 30 -83q40 -46 147 -84q74 -27 183 -33q26 -1 51 0q84 0 172 13q44 8 66 8h5q22 -1 32 -12q11 -12 7.5 -24t-26.5 -40q-38 -45 -51.5 -45t-69.5 -27q-77 -37 -152 -47q-35 -5 -75 -5q-46 0 -100 6q-98 13 -158.5 36.5t-128.5 79.5q-45 35 -83 103 t-48 130zM445 732l55 10q54 10 141 40t142 57q81 39 148 109q51 53 51 78q0 8 -5 13q-6 6 -21 6q-12 1 -29 -3q-39 -8 -39 -23q0 -11 -35 -19.5t-106.5 -51t-78.5 -42.5q-9 0 -65 -42t-103 -84z" />
<glyph unicode="&#xec;" horiz-adv-x="487" d="M41 2242.5q1 24.5 22 45.5q34 34 78 26t71 -53q29 -47 89.5 -117t60.5 -85.5t21 -30.5q23 -17 29 -67.5t-13 -74.5q-29 -36 -80 -11.5t-144 116.5q-46 46 -80 88t-37 56q-18 83 -17 107.5zM44 574q-2 28 -2 56q0 63 8 126q12 91 41 176.5t67 131.5t71 51q4 1 8 1 q30 0 64 -31q46 -39 46 -86q-1 -4 -1 -9q-4 -53 -72 -177q-22 -42 -28 -211q-1 -73 -3 -107t-4 -64.5t-9 -41.5t-15 -18.5t-23 -14.5q-23 -11 -41 -11q-14 0 -26 7q-26 15 -51 74q-24 57 -30 148zM206 1602q14 61 80 86q12 5 27 5q11 -1 23 -3q28 -6 52 -6q18 0 40 -48 q18 -40 18 -69q0 -5 -1 -10q-8 -46 -20 -67t-46 -42q-46 -30 -73 -30q-4 0 -8 1q-28 5 -60 52q-35 54 -35 102q0 15 3 29z" />
<glyph unicode="&#xed;" horiz-adv-x="779" d="M45 881.5q7 20.5 43 34.5q97 39 148 -15t13 -153q-31 -79 -38 -692q-5 -417 -15 -442q-11 -30 -36.5 -23t-51.5 48l-34 49l-4 528q-4 527 -18 589q-14 56 -7 76.5zM225 1392q14 75 110 171.5t228 166.5q73 40 87 54t22 14q14 0 35 -22.5t28 -43.5q6 -20 -2.5 -32.5 t-42.5 -33.5q-50 -32 -141 -128t-107 -134t-51 -85q-23 -31 -36 -37.5t-43 0.5q-45 9 -69.5 40.5t-17.5 69.5z" />
<glyph unicode="&#xee;" horiz-adv-x="487" d="M-231 1991q18 56 37.5 82.5t68.5 60.5q59 39 155.5 133t96.5 110q0 13 42 47q17 15 47 56.5t54 84.5q61 106 70.5 106t46.5 82l63 131q10 20 27.5 39.5t31.5 26.5q32 17 73.5 17.5t68.5 -13.5q57 -31 85 -297q15 -147 21 -155q7 -13 66 -284q14 -63 18 -96t20 -49t16 -74 q0 -56 -25.5 -82.5t-74.5 -20.5q-61 5 -100.5 81t-81.5 267q-48 217 -65 238q-10 14 -24.5 6t-55.5 -52q-65 -68 -148 -171q-263 -323 -325 -371q-45 -35 -90.5 -29t-82.5 52q-17 21 -27.5 42.5t-7.5 31.5zM44 574q-2 28 -2 56q0 63 8 126q12 91 41 176.5t67 131.5t71 51 q4 1 8 1q30 0 64 -31q46 -39 46 -86q-1 -4 -1 -9q-4 -53 -72 -177q-22 -42 -28 -211q-1 -73 -3 -107t-4 -64.5t-9 -41.5t-15 -18.5t-23 -14.5q-23 -11 -41 -11q-14 0 -26 7q-26 15 -51 74q-24 57 -30 148zM206 1602q14 61 80 86q12 5 27 5q11 -1 23 -3q28 -6 52 -6 q18 0 40 -48q18 -40 18 -69q0 -5 -1 -10q-8 -46 -20 -67t-46 -42q-46 -30 -73 -30q-4 0 -8 1q-28 5 -60 52q-35 54 -35 102q0 15 3 29z" />
<glyph unicode="&#xf1;" horiz-adv-x="1400" d="M43 1267q6 32 30 57q61 66 133 3l39 -33l-14 -133q-14 -135 -15 -404l-2 -268l56 169q87 260 142 382l54 121q25 54 65 102.5t78 66.5q32 18 123 18q60 0 84 -7t60 -35q48 -39 94 -122.5t63 -162.5l34 -150q15 -72 15 -352q0 -117 -2 -178.5t-9.5 -102.5t-19 -55 t-33.5 -19q-34 -9 -54 1.5t-33 50t-17 106t-4 178.5q4 410 -88 574q-70 127 -170 36q-5 -4 -11 -10q-31 -32 -101.5 -174t-70.5 -171q-1 -17 -21 -65q-32 -73 -113 -372q-24 -84 -37.5 -127.5t-13.5 -64.5q0 -25 -45.5 -75.5t-67.5 -50.5q-25 0 -70 36q-34 28 -38 45.5 t1 92.5q12 158 14.5 401.5t-5.5 330.5q-35 318 -30 361zM96 1894q8 59 27 74q20 17 20 34t67 61t102 50q59 11 135 -19q29 -11 123 -102q54 -53 76.5 -84.5t28.5 -62.5q12 -64 32.5 -105.5t41.5 -41.5q39 0 126.5 59t185.5 150q60 56 113.5 97t77.5 50q39 14 51 12t30 -26 q31 -38 21.5 -72.5t-65.5 -97.5q-70 -78 -94.5 -103t-103.5 -98q-243 -226 -378 -226q-31 0 -96 43t-74 68q-8 24 -25 45.5t-34 112.5q-11 66 -34.5 104.5t-53.5 38.5q-12 0 -72.5 -63.5t-92.5 -63.5q-36 0 -78 24.5t-52 50.5q-13 32 -5 91z" />
<glyph unicode="&#xf2;" horiz-adv-x="1484" d="M574 1694.5q1 24.5 22 45.5q34 34 78 26t71 -53q29 -47 89.5 -117t60.5 -85.5t21 -30.5q23 -17 29 -67.5t-13 -74.5q-29 -36 -80 -11.5t-144 116.5q-46 46 -80 88t-37 56q-18 83 -17 107.5zM50 553q7 38 62.5 110.5t98.5 103.5q63 42 103 80q86 80 256 195l75 51 q41 28 79 39.5t110 12.5h15q37 0 57 -8q24 -10 70 -45q70 -55 140 -64q192 -28 301 -245q19 -37 23 -64q1 -11 1 -26q0 -22 -3 -52q-9 -82 -39 -132t-58 -106q-22 -45 -79 -105t-178 -171q-91 -81 -173 -116t-208 -45q-24 -2 -49 -2q-128 0 -263 48q-161 58 -237 150 q-67 82 -95 188q-17 63 -17 123q0 40 8 80zM245 353q10 -39 66 -111.5t77 -72.5q14 0 76 -28q50 -22 72 -23q6 0 10 2q7 3 18 -0.5t18 -11.5q17 -21 64 -21q51 0 138 25q81 22 120.5 42t93.5 62q66 51 155 183q75 112 75 145q0 6 -2 9q-8 14 6 31q13 16 13 53q-1 15 -3 35 q-8 66 -32 109q-38 62 -85 62q-29 0 -60 -23q-28 -19 -49 -21h-7q-23 0 -77 9q-78 12 -102 32q-17 14 -17 38q0 10 3 21q9 33 -11 33q-24 0 -132 -50q-225 -104 -390 -308q-49 -61 -50 -140q1 -39 12 -81z" />
<glyph unicode="&#xf3;" horiz-adv-x="1556" d="M44.5 544q10.5 170 49.5 269q36 94 135 214t195 188q115 83 142.5 90.5t105.5 38.5q199 78 248 74q28 -3 70 25q53 34 135 30.5t150 -42.5q101 -59 155.5 -170.5t50.5 -248.5q-3 -91 -19 -147.5t-62 -143.5q-49 -91 -63 -124.5t-56.5 -95t-42.5 -76.5t-12 -15t-61 -74 q-79 -116 -202.5 -222.5t-247.5 -162.5q-114 -52 -246 -38t-227 88q-53 41 -107.5 123.5t-72.5 148.5q-28 101 -17.5 271zM200 462q0 -151 14 -168.5t24 -55.5q11 -46 79.5 -99.5t131.5 -67.5q61 -12 133.5 -7t107.5 23q53 26 147 111.5t161 166.5q207 252 291 516 q35 110 27 175q-8 70 -49 149t-78 100q-33 17 -98.5 28t-88.5 1q-8 -3 -13.5 -11t-5.5 -17q0 -22 -26.5 -41t-60.5 -19q-35 0 -96.5 -23t-102.5 -51q-39 -27 -50 -20q-18 10 -100 -45.5t-145 -119.5q-114 -115 -158.5 -232.5t-43.5 -292.5zM904.5 1925.5q1.5 14.5 18.5 42.5 q43 75 180 131q58 23 128 58q42 21 77.5 28t95.5 9q102 0 109 -11q12 -20 -32.5 -57t-149.5 -96q-148 -81 -212 -148q-77 -80 -123.5 -81t-78.5 79q-14 31 -12.5 45.5z" />
<glyph unicode="&#xf4;" horiz-adv-x="1484" d="M303 1443q18 56 37.5 82.5t68.5 60.5q59 39 155.5 133t96.5 110q0 13 42 47q17 15 47 56.5t54 84.5q61 106 70.5 106t46.5 82l63 131q10 20 27.5 39.5t31.5 26.5q32 17 73.5 17.5t68.5 -13.5q57 -31 85 -297q15 -147 21 -155q7 -13 66 -284q14 -63 18 -96t20 -49t16 -74 q0 -56 -25.5 -82.5t-74.5 -20.5q-61 5 -100.5 81t-81.5 267q-48 217 -65 238q-10 14 -24.5 6t-55.5 -52q-65 -68 -148 -171q-263 -323 -325 -371q-45 -35 -90.5 -29t-82.5 52q-17 21 -27.5 42.5t-7.5 31.5zM50 553q7 38 62.5 110.5t98.5 103.5q63 42 103 80q86 80 256 195 l75 51q41 28 79 39.5t110 12.5h15q37 0 57 -8q24 -10 70 -45q70 -55 140 -64q192 -28 301 -245q19 -37 23 -64q1 -11 1 -26q0 -22 -3 -52q-9 -82 -39 -132t-58 -106q-22 -45 -79 -105t-178 -171q-91 -81 -173 -116t-208 -45q-24 -2 -49 -2q-128 0 -263 48q-161 58 -237 150 q-67 82 -95 188q-17 63 -17 123q0 40 8 80zM245 353q10 -39 66 -111.5t77 -72.5q14 0 76 -28q50 -22 72 -23q6 0 10 2q7 3 18 -0.5t18 -11.5q17 -21 64 -21q51 0 138 25q81 22 120.5 42t93.5 62q66 51 155 183q75 112 75 145q0 6 -2 9q-8 14 6 31q13 16 13 53q-1 15 -3 35 q-8 66 -32 109q-38 62 -85 62q-29 0 -60 -23q-28 -19 -49 -21h-7q-23 0 -77 9q-78 12 -102 32q-17 14 -17 38q0 10 3 21q9 33 -11 33q-24 0 -132 -50q-225 -104 -390 -308q-49 -61 -50 -140q1 -39 12 -81z" />
<glyph unicode="&#xf5;" horiz-adv-x="1484" d="M-196 1495q15 42 127 159.5t146 127.5q25 8 25 19q0 14 125 97t170 98q55 20 74 17.5t77 -32.5q70 -35 93.5 -35t58.5 -29t63 -29q49 0 302 -173q59 -40 69.5 -40t32.5 -19q20 -18 109 -42t167 -32q53 -7 74 0.5t79 50.5q63 51 95.5 83t77.5 91q37 48 77.5 53.5 t66.5 -32.5q24 -32 10 -89.5t-80 -200.5q-36 -78 -83.5 -125.5t-121.5 -78.5q-42 -17 -120.5 -17.5t-136.5 15.5q-49 14 -134 31q-127 27 -245 71t-146 78q-18 21 -38 21t-58 26q-210 143 -331 156q-44 4 -64.5 -4t-65.5 -45l-124 -103q-26 -19 -47 -43t-26 -38 q-6 -14 -13.5 -24.5t-13.5 -10.5q-14 0 -38 -45q-23 -44 -47.5 -62.5t-59.5 -19.5q-55 0 -100.5 63t-25.5 112zM50 553q7 38 62.5 110.5t98.5 103.5q63 42 103 80q86 80 256 195l75 51q41 28 79 39.5t110 12.5h15q37 0 57 -8q24 -10 70 -45q70 -55 140 -64q192 -28 301 -245 q19 -37 23 -64q1 -11 1 -26q0 -22 -3 -52q-9 -82 -39 -132t-58 -106q-22 -45 -79 -105t-178 -171q-91 -81 -173 -116t-208 -45q-24 -2 -49 -2q-128 0 -263 48q-161 58 -237 150q-67 82 -95 188q-17 63 -17 123q0 40 8 80zM245 353q10 -39 66 -111.5t77 -72.5q14 0 76 -28 q50 -22 72 -23q6 0 10 2q7 3 18 -0.5t18 -11.5q17 -21 64 -21q51 0 138 25q81 22 120.5 42t93.5 62q66 51 155 183q75 112 75 145q0 6 -2 9q-8 14 6 31q13 16 13 53q-1 15 -3 35q-8 66 -32 109q-38 62 -85 62q-29 0 -60 -23q-28 -19 -49 -21h-7q-23 0 -77 9q-78 12 -102 32 q-17 14 -17 38q0 10 3 21q9 33 -11 33q-24 0 -132 -50q-225 -104 -390 -308q-49 -61 -50 -140q1 -39 12 -81z" />
<glyph unicode="&#xf6;" horiz-adv-x="1544" d="M49 387q-15 125 0 193q8 36 15 96q16 143 126 352q114 212 279 377.5t309 208.5q42 13 119 12t132 -16q38 -10 62.5 -26t65.5 -56l158 -162q89 -95 118 -182.5t30 -270.5q0 -150 -16 -230.5t-82 -251.5q-53 -138 -133 -257t-155 -171q-55 -37 -92 -48t-156 -26l-206 -28 q-178 -23 -307 51q-51 30 -117 104t-79 113q-9 35 -28 58q-28 35 -43 160zM215.5 1817q-1.5 17 9.5 55q28 92 86 113q22 9 25 10t77 -27q59 -22 92 -59t33 -81q0 -22 -55 -64.5t-99 -54.5q-35 -9 -82 12t-70 56q-15 23 -16.5 40zM231 343q22 -102 102 -183q65 -66 125 -81 t166 9q91 23 178 30q88 8 138 34.5t107 98.5q153 187 186 329q83 351 42 506q-15 56 -29 64t-39 -24q-13 -16 -29 -26.5t-29 -10.5q-26 0 -57 25.5t-49 60.5q-11 22 -25 28.5t-53 3.5q-42 -2 -97 -31t-77 -62q-8 -14 -42.5 -2t-51.5 33q-17 23 -17 58.5t17 56.5 q27 32 81.5 65.5t103.5 47.5q78 21 78 37q2 5 -15 5q-22 0 -41 6q-33 10 -122 -21t-132 -66q-52 -42 -151 -165t-117 -169q-12 -31 -42 -73q-17 -25 -40 -86t-19 -74q0 -3 -22 -56t-27 -88q-23 -178 -1 -280zM1232 1835q0 44 21 98.5t45 72.5q36 27 99 12t93 -58 q26 -36 0 -104t-78.5 -115.5t-95.5 -35.5q-32 11 -58 51t-26 79z" />
<glyph unicode="&#xf8;" horiz-adv-x="2144" d="M46 -109q-12 35 24 90t164 193q75 82 95.5 112t14.5 53q-25 119 -31 184.5t-1 152.5q7 130 35 191l35 81q10 22 23.5 43t21.5 58q11 58 104 176t200 209q137 117 254.5 162.5t245.5 30.5q70 -10 104 -23.5t76 -49.5q20 -17 46 -70t26 -77q0 -10 2.5 -15t6.5 -2 q12 6 61.5 28.5t87.5 58.5q36 34 141 113t188 135q68 46 88.5 50t38.5 -24q13 -21 0.5 -46.5t-45.5 -41.5q-26 -14 -140 -113l-183 -158q-53 -45 -59.5 -58.5t9.5 -48.5q18 -46 47 -152q27 -96 31 -245t-17 -230q-14 -53 -45.5 -130t-45.5 -97q-11 -14 -66 -101 q-75 -117 -193.5 -221.5t-206.5 -128.5q-101 -28 -161 -31.5t-127 16.5q-266 74 -357 144q-61 46 -69 46q-6 0 -83 -81l-175 -187q-40 -45 -55 -52t-48 4q-49 14 -62 52zM496 666.5q-14 -142.5 8 -180.5q4 -9 33.5 11.5t68.5 58.5t70 75q38 47 431 402q7 7 20 18 q42 40 59 54.5t38 38.5t25.5 31t12.5 27t8.5 32t3.5 41q1 10 1 14l10 108l-45 18q-96 40 -220.5 -6.5t-241.5 -165.5q-162 -166 -235 -348q-33 -86 -47 -228.5zM591 287q0 -13 49 -49t84 -49q141 -53 205 -65.5t134 -1.5q156 28 298.5 170t212.5 342q32 90 41 135.5t6 104.5 q-3 95 -14.5 128t-18.5 78.5t-22.5 84t-24.5 38.5q-19 -2 -484.5 -449t-465.5 -467z" />
<glyph unicode="&#xf9;" horiz-adv-x="1681" d="M830 1694.5q1 24.5 22 45.5q34 34 78 26t71 -53q29 -47 89.5 -117t60.5 -85.5t21 -30.5q23 -17 29 -67.5t-13 -74.5q-29 -36 -80 -11.5t-144 116.5q-46 46 -80 88t-37 56q-18 83 -17 107.5zM42 286q0 51 26.5 164.5t51.5 168.5q23 46 38 127q14 76 45 140.5t66 92.5 q19 16 40 21t58 1q99 -11 114 -100q2 -15 2 -30q0 -79 -64 -178q-76 -116 -99 -159t-23 -68.5t-12.5 -33.5t-22.5 -86q-4 -30 -4 -52q0 -38 12 -48q8 -8 28 -7q24 0 65 10q82 23 177.5 90.5t230.5 205.5q177 177 208 365q22 141 102 155q9 1 18 1q36 0 71 -22q44 -28 61 -72 q8 -22 8 -50q1 -11 -1 -24q-4 -43 -26 -121q-7 -23 -7 -54q0 -45 14 -109q23 -106 70 -197q48 -94 102 -164t86 -85q70 -31 114 -67.5t48 -64.5q1 -5 1 -10q0 -32 -26 -62q-30 -36 -64 -35q-42 0 -132.5 52.5t-149.5 112.5q-53 53 -119.5 156.5t-109.5 200.5l-24 56 l-129 -130q-129 -129 -164 -156q-50 -39 -149.5 -102t-111.5 -63q-17 0 -70 -27q-35 -19 -59 -21q-5 -1 -13 0q-25 0 -70 7q-207 34 -207 271zM892 879q0 9 5 8l9 -3q14 -8 14 -22q0 -9 -5 -9q-3 -1 -9 3q-14 8 -14 23z" />
<glyph unicode="&#xfa;" horiz-adv-x="1363" d="M42 517q1 183 17.5 268.5t0.5 159.5q-11 49 -9 71.5t19 60.5q21 49 54.5 67t84.5 8q40 -7 59 -33t48 -110q28 -78 26 -102t-38 -67q-52 -59 -45 -106q1 -10 -13.5 -50t-15.5 -174q-2 -126 17.5 -181.5t67.5 -66.5q42 -9 77.5 2.5t111.5 56.5q49 30 82 65t89 121 q109 165 144.5 251t44.5 204q7 92 14.5 120t34.5 55q40 40 90.5 38t82.5 -45q20 -28 21.5 -44t-11.5 -63q-22 -82 -35.5 -194t-3.5 -156q10 -51 24 -170q10 -94 26.5 -136t55.5 -74q55 -45 55.5 -95t-52.5 -71q-26 -11 -45 -8t-63 24q-65 33 -79 69t-27 60.5t-13 56.5 q0 25 -18.5 93.5t-30.5 88.5q-9 14 -36 -28q-1 -3 -4 -6q-48 -79 -148.5 -199.5t-135.5 -138.5l-79 -45q-45 -25 -108 -26t-119.5 18.5t-102.5 57.5t-59 84q-11 34 -34 69q-14 21 -18 64.5t-4 155.5zM370 1473q2 46 35 78q53 53 383.5 231.5t412.5 199.5q67 16 94 7t27 -49 q0 -18 -50 -58.5t-103 -64.5q-31 -15 -55.5 -31t-27 -24.5t-24.5 -24t-48 -28.5q-59 -28 -153.5 -88t-164.5 -113q-65 -51 -73 -51t-66 -40q-43 -31 -78 -33t-81 24q-30 19 -28 65z" />
<glyph unicode="&#xfb;" horiz-adv-x="1681" d="M559 1443q18 56 37.5 82.5t68.5 60.5q59 39 155.5 133t96.5 110q0 13 42 47q17 15 47 56.5t54 84.5q61 106 70.5 106t46.5 82l63 131q10 20 27.5 39.5t31.5 26.5q32 17 73.5 17.5t68.5 -13.5q57 -31 85 -297q15 -147 21 -155q7 -13 66 -284q14 -63 18 -96t20 -49t16 -74 q0 -56 -25.5 -82.5t-74.5 -20.5q-61 5 -100.5 81t-81.5 267q-48 217 -65 238q-10 14 -24.5 6t-55.5 -52q-65 -68 -148 -171q-263 -323 -325 -371q-45 -35 -90.5 -29t-82.5 52q-17 21 -27.5 42.5t-7.5 31.5zM42 286q0 51 26.5 164.5t51.5 168.5q23 46 38 127q14 76 45 140.5 t66 92.5q19 16 40 21t58 1q99 -11 114 -100q2 -15 2 -30q0 -79 -64 -178q-76 -116 -99 -159t-23 -68.5t-12.5 -33.5t-22.5 -86q-4 -30 -4 -52q0 -38 12 -48q8 -8 28 -7q24 0 65 10q82 23 177.5 90.5t230.5 205.5q177 177 208 365q22 141 102 155q9 1 18 1q36 0 71 -22 q44 -28 61 -72q8 -22 8 -50q1 -11 -1 -24q-4 -43 -26 -121q-7 -23 -7 -54q0 -45 14 -109q23 -106 70 -197q48 -94 102 -164t86 -85q70 -31 114 -67.5t48 -64.5q1 -5 1 -10q0 -32 -26 -62q-30 -36 -64 -35q-42 0 -132.5 52.5t-149.5 112.5q-53 53 -119.5 156.5t-109.5 200.5 l-24 56l-129 -130q-129 -129 -164 -156q-50 -39 -149.5 -102t-111.5 -63q-17 0 -70 -27q-35 -19 -59 -21q-5 -1 -13 0q-25 0 -70 7q-207 34 -207 271zM892 879q0 9 5 8l9 -3q14 -8 14 -22q0 -9 -5 -9q-3 -1 -9 3q-14 8 -14 23z" />
<glyph unicode="&#xfc;" horiz-adv-x="1482" d="M42 -12.5q-1 61.5 13 307.5q18 349 19 429q2 74 26.5 113t75.5 49q86 17 139 -46t24 -147q-16 -46 -16 -80.5t-26 -86.5q-24 -49 -48.5 -149t-30.5 -173q-5 -70 6 -167t27 -113q18 -18 56.5 8t84.5 89q56 74 76 94q18 17 66 98.5t100 181.5q51 95 97 233.5t47 193.5 q0 60 34 92q36 38 95 36t94 -41q24 -28 26.5 -72.5t-15.5 -122.5q-21 -94 -15.5 -144.5t59.5 -223.5q26 -93 69 -155t82 -69q38 -9 66 -32t28 -48t-42 -69q-44 -46 -91.5 -44t-121.5 53q-63 42 -99 95t-79 169q-32 84 -46 90q-6 1 -18.5 -16.5t-26.5 -45.5 q-31 -65 -97.5 -173t-86.5 -148.5t-123 -144.5q-56 -57 -89.5 -82.5t-61.5 -30.5q-81 -16 -151 34.5t-108 150.5q-17 46 -18 107.5zM192.5 1461q6.5 22 26 52t39.5 47q30 25 58 18t45 -7q25 0 78.5 -59.5t53.5 -89.5q0 -42 -37 -74t-88 -32q-42 0 -99.5 34.5t-58.5 59.5 q0 17 -15 22q-9 7 -2.5 29zM1190.5 1432q6.5 52 56.5 83q65 39 122.5 9t68.5 -109q5 -40 -0.5 -55t-33.5 -37q-42 -35 -100.5 -36.5t-79.5 32.5q-40 61 -33.5 113z" />
<glyph unicode="&#xfd;" horiz-adv-x="1362" d="M1106.5 1410.5q-11.5 38.5 13.5 120.5q14 44 85.5 120t176.5 159q74 59 100 101q10 18 26 32t29 17l39 7q11 2 39 -30.5t28 -48.5q0 -19 -40 -101q-34 -64 -85 -115t-157 -127q-87 -63 -87 -77t-30 -54q-15 -24 -32 -33t-43 -9q-51 0 -62.5 38.5zM46 876q9 42 20.5 59 t48.5 37q54 29 76 29t60 -28q44 -32 63 -85.5t28 -167.5q12 -188 79.5 -339t173.5 -233q41 -30 56 -26q24 5 76 84l47 74l121 188q33 49 62.5 115.5t41.5 74t22.5 53.5t24.5 65q12 15 6 23.5t-50 33.5q-19 13 -22 85q-1 12 -1 22q0 52 15 65q20 17 20 34q0 25 32.5 73.5 t60.5 64.5q42 24 77 24q6 0 12 -1q39 -4 84 -44q32 -30 38 -44q2 -4 2 -10q0 -10 -7 -23q-15 -30 -15 -65q0 -45 -38 -174t-67 -183q-37 -70 -37 -80t-71 -133t-71 -130t-22.5 -23.5t-60.5 -81.5t-89 -140.5t-78 -125.5q-54 -101 -114 -163q-31 -31 -77 -109 q-77 -130 -199 -269q-121 -137 -159 -137h-1q-52 0 -52 22q0 26 68 132q84 129 116.5 188.5t46 64.5t13.5 21t63.5 101.5t63.5 102t-68 86.5q-217 220 -280 441q-41 142 -79 202q-36 54 -54 126q-10 43 -10 80q0 24 4 44z" />
<glyph unicode="&#x152;" horiz-adv-x="3180" d="M1525 1572q8 70 50 114q26 29 42.5 34.5t55.5 -1.5q15 -2 28 -2q34 0 47 16q38 45 129 45q37 0 83 -8q51 -9 117 -9q57 0 126 7q434 42 633 51q163 5 171 13q4 5 12 5q7 1 16 -3q20 -8 60 -8q45 0 44 -31q-3 -32 -56 -77q-34 -28 -62.5 -37t-103.5 -15q-113 -8 -155 -22 q-36 -13 -305 -50t-319 -37q-45 0 -85.5 14t-150.5 18l-107 3l-9 -121q-4 -67 -4 -131q1 -51 3 -101q6 -113 8 -234l4 -120l206 67q238 80 408 82h8q164 0 280 -74q64 -40 108 -127q28 -54 28 -87q0 -20 -10 -33q-21 -26 -49.5 -16t-84.5 60q-30 27 -67 50t-61 30 q-49 15 -115 15q-47 0 -101 -8q-132 -18 -229 -66q-71 -35 -144.5 -60t-107.5 -25h-46l-3 -202q-3 -201 -3.5 -260t-11.5 -70q-21 -22 2 -25h7q34 0 66 28q21 18 128 53q65 21 131.5 29.5t220.5 13.5q248 12 352 28q117 21 242 22h12q115 0 138 -19q17 -12 19 -22t-8 -32 q-8 -21 -28 -32.5t-63 -19.5l-217 -51q-95 -23 -197.5 -38t-302.5 -33q-134 -11 -221 -31.5t-160 -53.5q-102 -49 -137 -49q-39 0 -63 27q-20 22 -19 49q0 7 1 13q1 11 -28 37q-21 16 -24 28t6 39q11 31 11 111q0 23 -1 50q-10 309 -22.5 562t-19.5 274t-13 84 q-8 86 -26.5 156t-39.5 100q-25 34 -25 85q0 13 2 28zM46 445q10 98 56 298q27 112 49.5 176t75.5 179q33 70 43 105.5t29 56.5t62 106q91 182 257 339.5t303 191.5q43 11 75 11q10 0 18 -1q38 -4 123 -32q168 -55 233.5 -182.5t68.5 -397.5v-28q1 -109 -13 -227 q-16 -133 -32 -143q-12 -7 -12 -35q0 -61 -93 -227t-222.5 -339.5t-223.5 -256.5q-115 -99 -174.5 -132t-168.5 -57q-45 -10 -87 -10q-154 0 -274 129q-41 44 -58.5 93.5t-28.5 151.5q-10 82 -10 150q0 43 4 81zM212 444q-7 -72 -7 -129q0 -99 22 -150q42 -101 114 -131 q35 -15 81 -16q48 0 107 17q56 15 91 39.5t114 100.5q119 115 175 193q155 214 228 346t103.5 256.5t37.5 311.5q2 62 2 111q0 81 -6 124q-10 69 -48 121q-22 30 -32 30h-2q-10 -2 -2 -38q2 -9 2 -19q0 -35 -22 -81q-18 -36 -32 -47.5t-39 -11.5q-41 0 -70 29t-29 68 q0 68 -53 68q-9 0 -20 -2q-41 -9 -60 7q-6 5 -16 5q-35 0 -116 -68q-104 -87 -182 -199q-59 -83 -136.5 -249.5t-123.5 -306.5q-61 -181 -81 -379z" />
<glyph unicode="&#x153;" horiz-adv-x="2732" d="M1527 346q-1 8 -1 18q0 48 34 134q40 104 100 191q47 66 140.5 159t146.5 126q35 23 72 52q66 58 206.5 127t210.5 79t89 12h3q19 0 54 -19q71 -36 96 -97q13 -32 13 -70q0 -33 -10 -70q-14 -47 -86 -134.5t-131 -128.5q-57 -39 -149 -84.5t-113 -45.5q-22 0 -35.5 -13.5 t-127 -52t-121 -50t-94.5 -21.5q-63 -7 -75.5 -15t-19.5 -40q-3 -17 -3 -33q0 -48 30 -83q40 -46 147 -84q74 -27 183 -33q26 -1 51 0q84 0 172 13q44 8 66 8h5q22 -1 32 -12q11 -12 7.5 -24t-26.5 -40q-38 -45 -51.5 -45t-69.5 -27q-77 -37 -152 -47q-35 -5 -75 -5 q-46 0 -100 6q-98 13 -158.5 36.5t-128.5 79.5q-45 35 -83 103t-48 130zM1929 732l55 10q54 10 141 40t142 57q81 39 148 109q51 53 51 78q0 8 -5 13q-6 6 -21 6q-12 1 -29 -3q-39 -8 -39 -23q0 -11 -35 -19.5t-106.5 -51t-78.5 -42.5q-9 0 -65 -42t-103 -84zM50 553 q7 38 62.5 110.5t98.5 103.5q63 42 103 80q86 80 256 195l75 51q41 28 79 39.5t110 12.5h15q37 0 57 -8q24 -10 70 -45q70 -55 140 -64q192 -28 301 -245q19 -37 23 -64q1 -11 1 -26q0 -22 -3 -52q-9 -82 -39 -132t-58 -106q-22 -45 -79 -105t-178 -171q-91 -81 -173 -116 t-208 -45q-24 -2 -49 -2q-128 0 -263 48q-161 58 -237 150q-67 82 -95 188q-17 63 -17 123q0 40 8 80zM245 353q10 -39 66 -111.5t77 -72.5q14 0 76 -28q50 -22 72 -23q6 0 10 2q7 3 18 -0.5t18 -11.5q17 -21 64 -21q51 0 138 25q81 22 120.5 42t93.5 62q66 51 155 183 q75 112 75 145q0 6 -2 9q-8 14 6 31q13 16 13 53q-1 15 -3 35q-8 66 -32 109q-38 62 -85 62q-29 0 -60 -23q-28 -19 -49 -21h-7q-23 0 -77 9q-78 12 -102 32q-17 14 -17 38q0 10 3 21q9 33 -11 33q-24 0 -132 -50q-225 -104 -390 -308q-49 -61 -50 -140q1 -39 12 -81z" />
<glyph unicode="&#x2c6;" horiz-adv-x="1330" d="M83 721q18 56 37.5 82.5t68.5 60.5q59 39 155.5 133t96.5 110q0 13 42 47q17 15 47 56.5t54 84.5q61 106 70.5 106t46.5 82l63 131q10 20 27.5 39.5t31.5 26.5q32 17 73.5 17.5t68.5 -13.5q57 -31 85 -297q15 -147 21 -155q7 -13 66 -284q14 -63 18 -96t20 -49t16 -74 q0 -56 -25.5 -82.5t-74.5 -20.5q-61 5 -100.5 81t-81.5 267q-48 217 -65 238q-10 14 -24.5 6t-55.5 -52q-65 -68 -148 -171q-263 -323 -325 -371q-45 -35 -90.5 -29t-82.5 52q-17 21 -27.5 42.5t-7.5 31.5z" />
<glyph unicode="&#x2dc;" horiz-adv-x="700" d="M-1043 350q15 42 127 159.5t146 127.5q25 8 25 19q0 14 125 97t170 98q55 20 74 17.5t77 -32.5q70 -35 93.5 -35t58.5 -29t63 -29q49 0 302 -173q59 -40 69.5 -40t32.5 -19q20 -18 109 -42t167 -32q53 -7 74 0.5t79 50.5q63 51 95.5 83t77.5 91q37 48 77.5 53.5 t66.5 -32.5q24 -32 10 -89.5t-80 -200.5q-36 -78 -83.5 -125.5t-121.5 -78.5q-42 -17 -120.5 -17.5t-136.5 15.5q-49 14 -134 31q-127 27 -245 71t-146 78q-18 21 -38 21t-58 26q-210 143 -331 156q-44 4 -64.5 -4t-65.5 -45l-124 -103q-26 -19 -47 -43t-26 -38 q-6 -14 -13.5 -24.5t-13.5 -10.5q-14 0 -38 -45q-23 -44 -47.5 -62.5t-59.5 -19.5q-55 0 -100.5 63t-25.5 112z" />
<glyph unicode="&#x2000;" horiz-adv-x="1641" />
<glyph unicode="&#x2001;" horiz-adv-x="3282" />
<glyph unicode="&#x2002;" horiz-adv-x="1641" />
<glyph unicode="&#x2003;" horiz-adv-x="3282" />
<glyph unicode="&#x2004;" horiz-adv-x="1094" />
<glyph unicode="&#x2005;" horiz-adv-x="820" />
<glyph unicode="&#x2006;" horiz-adv-x="547" />
<glyph unicode="&#x2007;" horiz-adv-x="547" />
<glyph unicode="&#x2008;" horiz-adv-x="410" />
<glyph unicode="&#x2009;" horiz-adv-x="656" />
<glyph unicode="&#x200a;" horiz-adv-x="182" />
<glyph unicode="&#x2010;" horiz-adv-x="852" d="M85 974q9 41 26.5 56.5t64.5 20.5q72 9 94.5 7t37.5 -18q8 -8 61.5 -23t119.5 -27q182 -34 207 -52q18 -13 18 -45q0 -40 -18 -55.5t-208.5 -16.5t-213.5 -3q-75 -10 -138 41.5t-51 114.5z" />
<glyph unicode="&#x2011;" horiz-adv-x="852" d="M85 974q9 41 26.5 56.5t64.5 20.5q72 9 94.5 7t37.5 -18q8 -8 61.5 -23t119.5 -27q182 -34 207 -52q18 -13 18 -45q0 -40 -18 -55.5t-208.5 -16.5t-213.5 -3q-75 -10 -138 41.5t-51 114.5z" />
<glyph unicode="&#x2012;" horiz-adv-x="852" d="M85 974q9 41 26.5 56.5t64.5 20.5q72 9 94.5 7t37.5 -18q8 -8 61.5 -23t119.5 -27q182 -34 207 -52q18 -13 18 -45q0 -40 -18 -55.5t-208.5 -16.5t-213.5 -3q-75 -10 -138 41.5t-51 114.5z" />
<glyph unicode="&#x2013;" horiz-adv-x="1433" d="M84 816v242h1211v-242h-1211z" />
<glyph unicode="&#x2014;" horiz-adv-x="2867" d="M84 816v242h2645v-242h-2645z" />
<glyph unicode="&#x2018;" horiz-adv-x="456" d="M42 1508.5q1 24.5 22 45.5q34 34 78 26t71 -53q29 -47 89.5 -117t60.5 -85.5t21 -30.5q23 -17 29 -67.5t-13 -74.5q-29 -36 -80 -11.5t-144 116.5q-46 46 -80 88t-37 56q-18 83 -17 107.5z" />
<glyph unicode="&#x2019;" horiz-adv-x="529" d="M102 1323q-43 81 10 227q27 71 39.5 111.5t37.5 68.5q14 16 31.5 21t48.5 0q187 -25 87 -214q-35 -67 -34 -126q4 -110 -76 -144q-42 -17 -81 -2t-63 58z" />
<glyph unicode="&#x201c;" horiz-adv-x="1202" d="M84 1334q0 52 9 124t16 85q7 11 10 89q1 47 11 79t35 75q18 31 41.5 58.5t37.5 34.5q21 10 37.5 9t46.5 -13q50 -21 68 -38.5t32 -58.5q14 -43 0 -79t-70 -97q-57 -65 -73 -115.5t-35.5 -95t-19.5 -81.5q0 -29 -25.5 -61t-49.5 -32q-29 0 -50 35.5t-21 81.5z M647.5 1323.5q-2.5 17.5 10.5 53.5t35 78t73 130q75 134 85.5 155t52.5 45q35 22 79.5 18t63.5 -31q44 -56 -24 -131q-78 -90 -149 -233q-42 -85 -58.5 -95.5t-24.5 -45.5q-6 -22 -17 -28.5t-42 -6.5q-33 0 -45 7.5t-26 40.5q-11 26 -13.5 43.5z" />
<glyph unicode="&#x201d;" horiz-adv-x="1202" d="M84 1334q0 52 9 124t16 85q7 11 10 89q1 47 11 79t35 75q18 31 41.5 58.5t37.5 34.5q21 10 37.5 9t46.5 -13q50 -21 68 -38.5t32 -58.5q14 -43 0 -79t-70 -97q-57 -65 -73 -115.5t-35.5 -95t-19.5 -81.5q0 -29 -25.5 -61t-49.5 -32q-29 0 -50 35.5t-21 81.5z M647.5 1323.5q-2.5 17.5 10.5 53.5t35 78t73 130q75 134 85.5 155t52.5 45q35 22 79.5 18t63.5 -31q44 -56 -24 -131q-78 -90 -149 -233q-42 -85 -58.5 -95.5t-24.5 -45.5q-6 -22 -17 -28.5t-42 -6.5q-33 0 -45 7.5t-26 40.5q-11 26 -13.5 43.5z" />
<glyph unicode="&#x2026;" horiz-adv-x="1579" d="M1139 72.5q-5 17.5 2 64.5q11 67 40.5 129.5t57.5 73.5q34 14 84.5 12.5t71.5 -16.5q23 -18 38.5 -119t-1.5 -133q-14 -24 -86 -61t-105 -37q-13 0 -33.5 12t-36.5 29q-27 28 -32 45.5zM612 72.5q-5 17.5 2 64.5q11 67 40.5 129.5t57.5 73.5q34 14 84.5 12.5t71.5 -16.5 q23 -18 38.5 -119t-1.5 -133q-14 -24 -86 -61t-105 -37q-13 0 -33.5 12t-36.5 29q-27 28 -32 45.5zM86 72.5q-5 17.5 2 64.5q11 67 40.5 129.5t57.5 73.5q34 14 84.5 12.5t71.5 -16.5q23 -18 38.5 -119t-1.5 -133q-14 -24 -86 -61t-105 -37q-13 0 -33.5 12t-36.5 29 q-27 28 -32 45.5z" />
<glyph unicode="&#x202f;" horiz-adv-x="656" />
<glyph unicode="&#x2039;" horiz-adv-x="1418" d="M88.5 774.5q12.5 38.5 97.5 124.5q102 102 116 121.5t71 104.5t75 97q46 30 237 247q40 47 88.5 90.5t74.5 58.5q79 44 173.5 34t151.5 -67q60 -59 -18 -144q-31 -34 -54 -43t-86 -15q-88 -8 -131.5 -28.5t-100.5 -80.5q-161 -168 -161 -188q0 -11 -73 -82 q-48 -48 -78.5 -101t-18.5 -69q11 -14 175 -65q69 -21 99 -40t100.5 -43t98.5 -35q187 -73 265 -131t90 -129q14 -101 -52 -154q-53 -44 -111 -16q-47 25 -66 94q-8 35 -43 62.5t-64 21.5q-26 -4 -26 10q0 11 -126.5 74.5t-183.5 82.5q-90 28 -329 15q-82 -4 -109 10t-58 75 q-36 70 -23.5 108.5z" />
<glyph unicode="&#x203a;" horiz-adv-x="1216" d="M87 1655q-7 67 7.5 94.5t72.5 55.5q67 30 94 31.5t53 -24.5q26 -28 144 -58q99 -25 188.5 -68.5t138.5 -88.5q42 -40 49 -40q13 0 191 -153q54 -47 54 -84q0 -35 -23.5 -84.5t-44.5 -58.5q-23 -8 -41.5 -26t-39 -18t-20.5 -11.5t-90 -67.5q-89 -57 -254.5 -213 t-165.5 -186q0 -17 -30 -39q-31 -21 -61 -21.5t-51 17t-32.5 42.5t-6 58t29.5 62q32 39 105.5 145.5t148 156.5t92.5 64l60 49q84 68 105 93.5t11 43.5q-16 32 -52 56t-113 56q-99 40 -149 67.5t-171 35.5q-112 9 -153 32t-46 82z" />
<glyph unicode="&#x205f;" horiz-adv-x="820" />
<glyph unicode="&#x20ac;" horiz-adv-x="1677" d="M43 848q-7 48 31 72t108 17q70 -9 154 23l84 33l34 113q36 126 29 136q-6 10 -49 -13q-59 -29 -117.5 -36t-100.5 10q-66 28 -86.5 67.5t11 69t101.5 29.5q84 0 208.5 45.5t165.5 91.5q25 27 62 97q43 80 96 149t143 158q115 114 201 174.5t194 100.5q21 9 101 2 q74 -6 135 -42.5t76 -83.5q25 -76 -3 -159t-87 -107q-46 -20 -67 -1t-25 82q-4 70 -27 87q-61 46 -195 -28t-292 -244l-78 -84l49 10q94 20 143.5 19t80.5 -20q53 -34 70.5 -77.5t-4.5 -86.5q-20 -39 -51 -45t-87 21q-47 24 -65.5 24.5t-81.5 -18.5q-95 -30 -163.5 -72 t-68.5 -71q0 -17 -27.5 -79.5t-35.5 -101.5q-7 -28 6 -29q14 -2 128 40q58 23 113 16t86 -41q27 -28 26 -48t-29 -47q-32 -29 -103 -29q-62 0 -144 -27.5t-103 -54.5q-21 -28 -14 -109t34 -116q42 -57 113.5 -64t148.5 39q29 17 39.5 17.5t26.5 -16.5q15 -15 16.5 -28.5 t-11.5 -49.5q-39 -119 -259 -153q-109 -17 -200 98q-55 67 -71.5 110.5t-13.5 105.5q4 77 -1.5 77t-68.5 -28q-65 -27 -126 -27t-107 28t-52 74z" />
<glyph unicode="&#x2122;" horiz-adv-x="3834" d="M2153 184v11q0 42 25 61q17 16 88.5 159.5t71.5 164.5q0 16 19 47t37.5 109.5t49.5 254.5q34 191 49.5 254.5t23.5 127.5q7 55 20.5 76t45.5 28q32 5 54 5q12 0 22 -2q26 -4 55 -32q30 -27 43 -65.5t41 -179.5q45 -237 88.5 -338t100.5 -101q21 0 103 52.5t82 66.5 q0 16 86 112q35 40 63 79.5t30 55.5q10 38 18 52t10 33q9 45 23 68t47 44q34 23 57 23h7q24 -4 58 -42q16 -16 22 -56t9 -133q6 -164 14 -199q10 -49 48.5 -171.5t46.5 -132.5q10 -14 51 -140q31 -96 31 -113q0 -18 -19 -31q-15 -11 -31 -11q-60 0 -138 155q-56 111 -66 140 l-46 127q-37 98 -37 120.5t-19 50.5q-16 20 -23 18t-30 -33q-34 -42 -140 -153q-121 -126 -207 -158q-35 -13 -71 -13q-52 0 -105 27q-42 21 -91.5 82t-49.5 90q0 32 -12 32t-29.5 78t-32.5 88q-6 4 -8 2t2 -9q9 -16 -5 -24.5t-14 -47.5t-20.5 -98t-21.5 -68 q-3 -31 -47 -169t-86 -250q-37 -95 -42 -134q-6 -48 -20 -69t-48 -35q-25 -10 -49 -10q-51 0 -98 45q-32 29 -36 79zM43 1357q5 65 41 89.5t141 31.5q86 7 174 27.5t406 105.5q361 97 609.5 150t488.5 84q41 4 65 7h4q23 0 59 -31l38 -33l-26 -55q-20 -42 -37 -50.5 t-89 -13.5q-100 -10 -248.5 -38t-212 -38t-202.5 -46l-137 -36l28 -54q16 -30 18.5 -52t-4.5 -54q-32 -147 -39 -425q-2 -61 -2 -113q0 -186 20 -264q13 -47 12 -64q0 -7 -2 -9q-8 -8 15 -35q21 -22 38 -105q12 -56 12 -91q0 -16 -3 -27q-9 -33 -37 -49q-14 -7 -29 -7 q-24 0 -49 18q-42 30 -77 103q-54 115 -74 298q-16 152 -17 432q0 57 1 120q1 81 1 142q0 182 -9 182q-7 0 -227 -64q-141 -42 -232 -75t-216 -86q-45 -19 -76 -19q-5 1 -9 1q-34 4 -72 35q-33 29 -40 46q-5 13 -5 43v19z" />
<glyph unicode="&#xe000;" horiz-adv-x="1105" d="M0 1105h1105v-1105h-1105v1105z" />
<glyph unicode="&#xfb01;" horiz-adv-x="1768" d="M1325 574q-2 28 -2 56q0 63 8 126q12 91 41 176.5t67 131.5t71 51q4 1 8 1q30 0 64 -31q46 -39 46 -86q-1 -4 -1 -9q-4 -53 -72 -177q-22 -42 -28 -211q-1 -73 -3 -107t-4 -64.5t-9 -41.5t-15 -18.5t-23 -14.5q-23 -11 -41 -11q-14 0 -26 7q-26 15 -51 74q-24 57 -30 148 zM1487 1602q14 61 80 86q12 5 27 5q11 -1 23 -3q28 -6 52 -6q18 0 40 -48q18 -40 18 -69q0 -5 -1 -10q-8 -46 -20 -67t-46 -42q-46 -30 -73 -30q-4 0 -8 1q-28 5 -60 52q-35 54 -35 102q0 15 3 29zM44 1266q-2 14 -2 26q0 35 10 49q8 16 74 46q39 20 57.5 23t33.5 -6 q25 -16 39 -16q17 0 17 25t42 92t42 84t59 66.5t102 69.5q45 21 137 38q58 10 110 10q58 0 109 -13q95 -24 170 -100q121 -120 121 -149q0 -17 26 -69q23 -41 39 -140q9 -54 9 -81q0 -23 -6 -27q-11 -7 -2 -28q2 -4 2 -10q0 -20 -19 -59q-25 -50 -42 -50q-24 0 -38 26.5 t-25 88.5q-10 63 -43 154.5t-47 97.5q-11 4 -11 21t-34.5 54t-60.5 52q-49 27 -121 34q-20 2 -40 2q-46 0 -84 -12q-81 -24 -129.5 -70.5t-97.5 -149.5q-59 -123 -73 -191q-5 -23 -5 -44q0 -40 18 -71q16 -31 16 -47q0 -9 -5 -13q-17 -12 -32.5 -49.5t-15.5 -65.5v-16 q0 -47 -8 -176q-10 -156 -10 -283q0 -145 13 -252q7 -53 7 -76v-12q-4 -17 -35 -43q-41 -34 -83 -34l-47 11q-65 31 -77 123q-9 54 -9 157q0 16 1 33q1 127 12 256q10 120 14 319q1 41 1 75q0 93 -8 138q-11 60 -52 107q-15 19 -19 75zM371 477q0 26 87.5 58.5t177.5 42.5 q110 11 126 14h7q23 0 61 -18q42 -20 52 -39q5 -10 5 -22q0 -22 -16 -51q-18 -29 -36.5 -39t-74.5 -17q-34 -4 -66 -4q-45 0 -84 9q-47 11 -67 11q-8 0 -12 -2q-6 -3 -16 -3q-24 0 -73 18q-71 26 -71 42z" />
<glyph unicode="&#xfb02;" horiz-adv-x="2206" d="M1325 1057q-2 193 -2 304q0 133 3 148q3 13 16 26t30 19q42 16 71 16q10 0 18 -2q34 -7 64 -45l35 -46l-30 -148q-17 -86 -22.5 -168.5t-5.5 -229.5q2 -251 15 -285t6 -41q-3 -3 -3 -11q0 -23 22 -85q30 -85 61 -127q40 -52 104 -84q49 -24 88 -24q13 0 25 2 q18 4 61.5 33.5t86.5 68.5q83 71 125 84q10 3 20 3q29 0 47 -30q5 -8 5 -20q0 -26 -26 -71q-38 -65 -105 -131t-127 -94q-63 -31 -110 -33h-7q-46 0 -118 22q-45 12 -76.5 33t-77.5 69q-79 83 -121.5 171.5t-58.5 198.5q-8 53 -13 477zM44 1266q-2 14 -2 26q0 35 10 49 q8 16 74 46q39 20 57.5 23t33.5 -6q25 -16 39 -16q17 0 17 25t42 92t42 84t59 66.5t102 69.5q45 21 137 38q58 10 110 10q58 0 109 -13q95 -24 170 -100q121 -120 121 -149q0 -17 26 -69q23 -41 39 -140q9 -54 9 -81q0 -23 -6 -27q-11 -7 -2 -28q2 -4 2 -10q0 -20 -19 -59 q-25 -50 -42 -50q-24 0 -38 26.5t-25 88.5q-10 63 -43 154.5t-47 97.5q-11 4 -11 21t-34.5 54t-60.5 52q-49 27 -121 34q-20 2 -40 2q-46 0 -84 -12q-81 -24 -129.5 -70.5t-97.5 -149.5q-59 -123 -73 -191q-5 -23 -5 -44q0 -40 18 -71q16 -31 16 -47q0 -9 -5 -13 q-17 -12 -32.5 -49.5t-15.5 -65.5v-16q0 -47 -8 -176q-10 -156 -10 -283q0 -145 13 -252q7 -53 7 -76v-12q-4 -17 -35 -43q-41 -34 -83 -34l-47 11q-65 31 -77 123q-9 54 -9 157q0 16 1 33q1 127 12 256q10 120 14 319q1 41 1 75q0 93 -8 138q-11 60 -52 107q-15 19 -19 75z M371 477q0 26 87.5 58.5t177.5 42.5q110 11 126 14h7q23 0 61 -18q42 -20 52 -39q5 -10 5 -22q0 -22 -16 -51q-18 -29 -36.5 -39t-74.5 -17q-34 -4 -66 -4q-45 0 -84 9q-47 11 -67 11q-8 0 -12 -2q-6 -3 -16 -3q-24 0 -73 18q-71 26 -71 42z" />
<glyph unicode="&#xfb03;" horiz-adv-x="3049" d="M2606 574q-2 28 -2 56q0 63 8 126q12 91 41 176.5t67 131.5t71 51q4 1 8 1q30 0 64 -31q46 -39 46 -86q-1 -4 -1 -9q-4 -53 -72 -177q-22 -42 -28 -211q-1 -73 -3 -107t-4 -64.5t-9 -41.5t-15 -18.5t-23 -14.5q-23 -11 -41 -11q-14 0 -26 7q-26 15 -51 74q-24 57 -30 148 zM2768 1602q14 61 80 86q12 5 27 5q11 -1 23 -3q28 -6 52 -6q18 0 40 -48q18 -40 18 -69q0 -5 -1 -10q-8 -46 -20 -67t-46 -42q-46 -30 -73 -30q-4 0 -8 1q-28 5 -60 52q-35 54 -35 102q0 15 3 29zM1325 1266q-2 14 -2 26q0 35 10 49q8 16 74 46q39 20 57.5 23t33.5 -6 q25 -16 39 -16q17 0 17 25t42 92t42 84t59 66.5t102 69.5q45 21 137 38q58 10 110 10q58 0 109 -13q95 -24 170 -100q121 -120 121 -149q0 -17 26 -69q23 -41 39 -140q9 -54 9 -81q0 -23 -6 -27q-11 -7 -2 -28q2 -4 2 -10q0 -20 -19 -59q-25 -50 -42 -50q-24 0 -38 26.5 t-25 88.5q-10 63 -43 154.5t-47 97.5q-11 4 -11 21t-34.5 54t-60.5 52q-49 27 -121 34q-20 2 -40 2q-46 0 -84 -12q-81 -24 -129.5 -70.5t-97.5 -149.5q-59 -123 -73 -191q-5 -23 -5 -44q0 -40 18 -71q16 -31 16 -47q0 -9 -5 -13q-17 -12 -32.5 -49.5t-15.5 -65.5v-16 q0 -47 -8 -176q-10 -156 -10 -283q0 -145 13 -252q7 -53 7 -76v-12q-4 -17 -35 -43q-41 -34 -83 -34l-47 11q-65 31 -77 123q-9 54 -9 157q0 16 1 33q1 127 12 256q10 120 14 319q1 41 1 75q0 93 -8 138q-11 60 -52 107q-15 19 -19 75zM1652 477q0 26 87.5 58.5t177.5 42.5 q110 11 126 14h7q23 0 61 -18q42 -20 52 -39q5 -10 5 -22q0 -22 -16 -51q-18 -29 -36.5 -39t-74.5 -17q-34 -4 -66 -4q-45 0 -84 9q-47 11 -67 11q-8 0 -12 -2q-6 -3 -16 -3q-24 0 -73 18q-71 26 -71 42zM44 1266q-2 14 -2 26q0 35 10 49q8 16 74 46q39 20 57.5 23t33.5 -6 q25 -16 39 -16q17 0 17 25t42 92t42 84t59 66.5t102 69.5q45 21 137 38q58 10 110 10q58 0 109 -13q95 -24 170 -100q121 -120 121 -149q0 -17 26 -69q23 -41 39 -140q9 -54 9 -81q0 -23 -6 -27q-11 -7 -2 -28q2 -4 2 -10q0 -20 -19 -59q-25 -50 -42 -50q-24 0 -38 26.5 t-25 88.5q-10 63 -43 154.5t-47 97.5q-11 4 -11 21t-34.5 54t-60.5 52q-49 27 -121 34q-20 2 -40 2q-46 0 -84 -12q-81 -24 -129.5 -70.5t-97.5 -149.5q-59 -123 -73 -191q-5 -23 -5 -44q0 -40 18 -71q16 -31 16 -47q0 -9 -5 -13q-17 -12 -32.5 -49.5t-15.5 -65.5v-16 q0 -47 -8 -176q-10 -156 -10 -283q0 -145 13 -252q7 -53 7 -76v-12q-4 -17 -35 -43q-41 -34 -83 -34l-47 11q-65 31 -77 123q-9 54 -9 157q0 16 1 33q1 127 12 256q10 120 14 319q1 41 1 75q0 93 -8 138q-11 60 -52 107q-15 19 -19 75zM371 477q0 26 87.5 58.5t177.5 42.5 q110 11 126 14h7q23 0 61 -18q42 -20 52 -39q5 -10 5 -22q0 -22 -16 -51q-18 -29 -36.5 -39t-74.5 -17q-34 -4 -66 -4q-45 0 -84 9q-47 11 -67 11q-8 0 -12 -2q-6 -3 -16 -3q-24 0 -73 18q-71 26 -71 42z" />
<glyph unicode="&#xfb04;" horiz-adv-x="3487" d="M2606 1057q-2 193 -2 304q0 133 3 148q3 13 16 26t30 19q42 16 71 16q10 0 18 -2q34 -7 64 -45l35 -46l-30 -148q-17 -86 -22.5 -168.5t-5.5 -229.5q2 -251 15 -285t6 -41q-3 -3 -3 -11q0 -23 22 -85q30 -85 61 -127q40 -52 104 -84q49 -24 88 -24q13 0 25 2 q18 4 61.5 33.5t86.5 68.5q83 71 125 84q10 3 20 3q29 0 47 -30q5 -8 5 -20q0 -26 -26 -71q-38 -65 -105 -131t-127 -94q-63 -31 -110 -33h-7q-46 0 -118 22q-45 12 -76.5 33t-77.5 69q-79 83 -121.5 171.5t-58.5 198.5q-8 53 -13 477zM1325 1266q-2 14 -2 26q0 35 10 49 q8 16 74 46q39 20 57.5 23t33.5 -6q25 -16 39 -16q17 0 17 25t42 92t42 84t59 66.5t102 69.5q45 21 137 38q58 10 110 10q58 0 109 -13q95 -24 170 -100q121 -120 121 -149q0 -17 26 -69q23 -41 39 -140q9 -54 9 -81q0 -23 -6 -27q-11 -7 -2 -28q2 -4 2 -10q0 -20 -19 -59 q-25 -50 -42 -50q-24 0 -38 26.5t-25 88.5q-10 63 -43 154.5t-47 97.5q-11 4 -11 21t-34.5 54t-60.5 52q-49 27 -121 34q-20 2 -40 2q-46 0 -84 -12q-81 -24 -129.5 -70.5t-97.5 -149.5q-59 -123 -73 -191q-5 -23 -5 -44q0 -40 18 -71q16 -31 16 -47q0 -9 -5 -13 q-17 -12 -32.5 -49.5t-15.5 -65.5v-16q0 -47 -8 -176q-10 -156 -10 -283q0 -145 13 -252q7 -53 7 -76v-12q-4 -17 -35 -43q-41 -34 -83 -34l-47 11q-65 31 -77 123q-9 54 -9 157q0 16 1 33q1 127 12 256q10 120 14 319q1 41 1 75q0 93 -8 138q-11 60 -52 107q-15 19 -19 75z M1652 477q0 26 87.5 58.5t177.5 42.5q110 11 126 14h7q23 0 61 -18q42 -20 52 -39q5 -10 5 -22q0 -22 -16 -51q-18 -29 -36.5 -39t-74.5 -17q-34 -4 -66 -4q-45 0 -84 9q-47 11 -67 11q-8 0 -12 -2q-6 -3 -16 -3q-24 0 -73 18q-71 26 -71 42zM44 1266q-2 14 -2 26 q0 35 10 49q8 16 74 46q39 20 57.5 23t33.5 -6q25 -16 39 -16q17 0 17 25t42 92t42 84t59 66.5t102 69.5q45 21 137 38q58 10 110 10q58 0 109 -13q95 -24 170 -100q121 -120 121 -149q0 -17 26 -69q23 -41 39 -140q9 -54 9 -81q0 -23 -6 -27q-11 -7 -2 -28q2 -4 2 -10 q0 -20 -19 -59q-25 -50 -42 -50q-24 0 -38 26.5t-25 88.5q-10 63 -43 154.5t-47 97.5q-11 4 -11 21t-34.5 54t-60.5 52q-49 27 -121 34q-20 2 -40 2q-46 0 -84 -12q-81 -24 -129.5 -70.5t-97.5 -149.5q-59 -123 -73 -191q-5 -23 -5 -44q0 -40 18 -71q16 -31 16 -47 q0 -9 -5 -13q-17 -12 -32.5 -49.5t-15.5 -65.5v-16q0 -47 -8 -176q-10 -156 -10 -283q0 -145 13 -252q7 -53 7 -76v-12q-4 -17 -35 -43q-41 -34 -83 -34l-47 11q-65 31 -77 123q-9 54 -9 157q0 16 1 33q1 127 12 256q10 120 14 319q1 41 1 75q0 93 -8 138q-11 60 -52 107 q-15 19 -19 75zM371 477q0 26 87.5 58.5t177.5 42.5q110 11 126 14h7q23 0 61 -18q42 -20 52 -39q5 -10 5 -22q0 -22 -16 -51q-18 -29 -36.5 -39t-74.5 -17q-34 -4 -66 -4q-45 0 -84 9q-47 11 -67 11q-8 0 -12 -2q-6 -3 -16 -3q-24 0 -73 18q-71 26 -71 42z" />
</font>
</defs>
</svg>
