<?xml version="1.0" encoding="utf-8"?>
<!-- Generator: Adobe Illustrator 18.1.0, SVG Export Plug-In . SVG Version: 6.00 Build 0)  -->
<!DOCTYPE svg PUBLIC "-//W3C//DTD SVG 1.1//EN" "http://www.w3.org/Graphics/SVG/1.1/DTD/svg11.dtd">
<svg version="1.1" id="Isolation_Mode" xmlns="http://www.w3.org/2000/svg" xmlns:xlink="http://www.w3.org/1999/xlink" x="0px"
	 y="0px" viewBox="0 0 612 460.4" style="enable-background:new 0 0 612 460.4;" xml:space="preserve">
<path style="fill:#1C1B1C;" d="M297.8,1.7c0.1,0,0.3,0,0.5,0.1c0.2,0,0.4-0.1,0.6-0.1C298.5,1.8,298.1,1.8,297.8,1.7z"/>
<path style="fill:#1C1B1C;" d="M298.8,1.7C298.8,1.7,298.8,1.7,298.8,1.7C298.8,1.7,298.8,1.7,298.8,1.7z"/>
<path style="fill:#1C1B1C;" d="M264.6-4c-5.3,0.9-10.9,1.1-16.3,0.7c-0.5,0-1,0-1.4,0c-5.5-0.2-10.9-0.3-16.5,0.5
	c-0.2,0-0.5,0.2-0.6,0.2c-1.6,0.3-3.2,0.6-4.8,1c-0.2,0-0.5,0.2-0.6,0.3c-0.2,0-0.5,0.2-0.6,0.3s-0.5,0.3-0.6,0.5
	c-1.1,0.6-2.2,1.4-3.2,2.2c-1.7,1.9-3.3,3.4-5.2,5.3c-0.3,0.2-0.5,0.5-0.8,0.6c-1.3,1.1-2.5,2.2-3.8,3.2c-0.3,0.2-0.5,0.3-0.8,0.5
	c-8.9,6.4-16.9,15.2-26.1,21.8c-0.2,0.2-0.5,0.3-0.6,0.5c-2.4,1.9-4.8,3.7-7.1,5.6c-7,5.6-12.5,11.5-18.5,18c-1.9,1.6-3.3,3.2-5.9,4
	c-0.3,0-0.5,0.2-0.8,0.2c-0.6,0.2-1.4,0.3-2.2,0.5c-3.2,0.6-6.2-1.3-6.2-4.7c-0.2-0.2-0.2-0.5-0.2-0.8c-0.2-1.4-0.2-2.9-0.3-4
	c0-0.2,0-0.3,0-0.5c0-33.8,0-54,0-54H48.9c0,0,0,138.1,0,299.4c0,0.2,0,0.5,0,0.6c0.3,4.8-1.6,11.2-4.3,12.2
	c-10.1,4-17.1-9.5-26-15.1c-1.3-1-3.6-1.6-4-1c-4,14.1,17.4,23.1,22.3,35.4c3.3,8,4.9,17,9.2,25c2.1,3.7,3,7.7,2.7,12
	c0,0.2,0,0.5,0,0.6c0,30.9,0,62.1,0,92.7c31.9-2.2,62.6,3.6,92.4,13.3c0-45.8,0-93-0.1-139.1c0-0.2,0-0.5,0-0.6
	c-0.2-1.8-0.2-3.5,0.8-4.8c10.3-14.1,16.2-28.7,23.4-44.1c2.2-4.3,6.2-7.7,8.9-12.3c1.3-2.1,1.4-6.1-0.6-6.1
	c-11.6-0.3-18.8,13.3-26.5,22c-1,1-2.4,3.2-4,1.9c-3.5-2.6-1.3-6.9-2.1-10.6c0-0.2,0-0.5,0-0.6c0-46.3,0-90.4,0-129.4
	c0-0.2,0-0.5,0-0.6c0.2-10.3,0.8-20.5,4.1-30.1c0.2-0.3,0.2-0.5,0.3-0.8c3.3-9.3,9-16.4,14.6-24.7c1-1.3,1.6-2.6,2.2-3.8
	c0-0.3,0.2-0.5,0.3-0.8c1.7-3.5,4.3-6.4,7-9.5c0.2-0.2,0.5-0.5,0.6-0.6c0.2-0.2,0.5-0.5,0.6-0.6c4.3-3.7,8.7-7.4,13.5-10.6
	c0.2-0.2,0.5-0.3,0.6-0.5c2.1-1.6,4-3.4,5.7-5.1c0.2-0.2,0.5-0.5,0.6-0.6c1.4-1.6,3-3,3.3-5c3.5-12,13.8-17.8,21.1-26.9
	c0.2-0.3,0.5-0.5,0.6-0.8c5.7-7.2,12.8-13.2,20.8-18.3c0.3-0.2,0.5-0.5,0.8-0.6c2.9-2.4,6-4.2,9.5-5.6c0.2-0.2,0.5-0.2,0.6-0.3
	c1.9-1.1,4.3-1.6,6.7-1.9c0.5,0,1-0.2,1.4-0.2c3.2-0.8,7.9-0.8,9.2-4.5C265.5-3.7,265-3.9,264.6-4z"/>
<path style="fill:#1C1B1C;" d="M298.8,1.7c1-0.2,1.9-0.4,2.9-0.6C300.5,0.9,299.8,1.5,298.8,1.7z"/>
<path style="fill:#1C1B1C;" d="M141.4,473.1c-29.8-9.5-60.5-15.3-92.4-13.1"/>
<path style="fill:#333334;" d="M81.9,353.4c0-1.1,0-2.2,0-3.3c0-5.7,0-10.8,0-16.3c0-1.1,0-2.2,0-3.3c0-169,0-321.7,0-321.7h-3.6
	c0,0,0,150.3,0,317.8c0,0.3,0,0.5,0,0.8c0,10.8,0,21.2,0,31.8c0,0.3,0,0.5,0,0.8c0,33.4,0,67.2,0,100.2c1.2,0.1,2.4,0.2,3.6,0.3
	C81.9,425.1,81.9,389,81.9,353.4z"/>
<path style="fill:#333334;" d="M81.9,460.4c-1.2-0.1-2.4-0.2-3.6-0.3"/>
<path style="fill:#333334;" d="M96.4,10.1h-3.6v451.5c1.2,0.2,2.4,0.3,3.6,0.5V10.1z"/>
<path style="fill:#333334;" d="M96.4,462.2c-1.2-0.2-2.4-0.4-3.6-0.5"/>
<path style="fill:#333334;" d="M106.3,10.1h-3.6v453.1c1.2,0.2,2.4,0.4,3.6,0.7V10.1z"/>
<path style="fill:#333334;" d="M106.3,463.9c-1.2-0.2-2.4-0.5-3.6-0.7"/>
<path style="fill:#333334;" d="M118.5,343.1c0-0.3,0-0.5,0-0.8c-0.3-12.8-0.3-25.3,0-38c0-0.3,0-0.5,0-0.8c0-73.3,0-142.1,0-194.5
	c0-0.3,0-0.5,0-0.8c0-10.5,0-20.8,0-31.2c0-0.5,0-0.8,0-1.3c0-40.9,0-65.7,0-65.7h-3.6c0,0,0,30.3,0,78.7c0,1,0,1.7,0,2.7
	c0,1,0,1.7,0,2.7c0,1,0,1.7,0,2.7c0,54.8,0,130.5,0,211.6c0,0.3,0,0.5,0,0.8c0,9.5,0,18.8,0,28.4c0,0.3,0,0.5,0,0.8
	c0,42.3,0,85.5,0,127.4c1.2,0.3,2.4,0.6,3.6,0.9C118.5,426,118.5,384.2,118.5,343.1z"/>
<path style="fill:#333334;" d="M118.5,466.6c-1.2-0.3-2.4-0.6-3.6-0.9"/>
<path style="fill:#333334;" d="M131.9,348.5c0-0.3,0-0.5,0-0.8c0.3-7.4-3.6-13.9-4.3-21.2c-0.6-9.8,4-18.5,4.3-28.2
	c0-0.3,0-0.5,0-0.8c0-65.6,0-127.2,0-176.6c0-0.3,0-0.5,0-0.8c0.3-2.1,0-4.6-0.6-6.7c-4.9-16.2-2.1-31.8,0.6-47.5c0-0.3,0-0.8,0-1.1
	c0-35,0-55.9,0-55.9h-3.6c0,0,0,21.5,0,57.2c0,0.3,0,0.8,0,1.1c-2.7,17.3-2.1,34.1,0,51.5c0,0.3,0,0.5,0,0.8c0,49.6,0,112,0,178.2
	c0,0.3,0,0.5,0,0.8c-0.3,10.5-4.6,20.3-3,30.9c1.1,6,3,12.2,3,18.4c0,0.3,0,0.5,0,0.8c0,40.2,0,81,0,120.7c1.2,0.3,2.4,0.7,3.6,1
	C131.9,430.2,131.9,389,131.9,348.5z"/>
<path style="fill:#333334;" d="M131.9,470.2c-1.2-0.4-2.4-0.7-3.6-1"/>
<path style="fill:#333334;" d="M69.7,366.9c0-0.3,0-0.5,0-0.8c-0.3-2.4,0-4.9,0.6-7c3.6-13.3,0-26.5-0.6-39.4c0-0.3,0-0.5,0-0.8
	c0-163.6,0-308.7,0-308.7H66c0,0,0,144,0,307.1c0,0.3,0,0.5,0,0.8c-0.3,7.1,2.4,13.9,3.3,21.2c1,7.8-1.4,14.7-3,22.3
	c-0.3,1.9-0.6,3.6-0.3,5.4c0,0.3,0,0.5,0,0.8c0,30.6,0,61.5,0,91.8c1.2,0,2.4,0.1,3.6,0.1C69.7,429,69.7,397.8,69.7,366.9z"/>
<path style="fill:#333334;" d="M69.7,459.7c-1.2,0-2.4-0.1-3.6-0.1"/>
<path style="fill:#333334;" d="M58.7,459.6c-1.2,0-2.4,0.1-3.6,0.1"/>
<path style="fill:#333334;" d="M58.7,367c0-7.1,4-13.6,4.9-20.6c0.6-7.8-2.7-14.7-4.3-22.3c-0.3-2.4-0.6-4.6-0.6-6.8
	c0-0.3,0-0.5,0-0.8c0-161.7,0-304,0-304h-3.6c0,0,0,142.7,0,304.8c0,0.3,0,0.5,0,0.8c0,7,2.7,13.5,4,20.4c0.3,2.7,0.6,5.9,0.3,8.6
	c-1,6.7-4.6,12.8-4.3,20c0,0.3,0,0.5,0,0.8c0,30.7,0,61.5,0,91.9c1.2,0,2.4-0.1,3.6-0.1c0-30.3,0-61.1,0-91.8
	C58.7,367.5,58.7,367.3,58.7,367z"/>
<path style="fill:#333334;" d="M138.6,347.4c0-0.3,0-0.5,0-0.8c0-1.4,0.3-3.2-0.3-4.8c-7.1-15-1.3-29.6,0.3-44.5c0-0.3,0-0.5,0-0.8
	c0-65.1,0-126.1,0-174.6c0-0.3,0-0.5,0-0.8c-0.2-1.4-0.2-2.5-0.2-3.8c-2.2-10.9-8.2-20.4-5.5-31.7c1.4-7.6,6-13.9,5.5-22
	c0-0.3,0-0.8,0-1.1c0-30.4,0-48.3,0-48.3h-3.6c0,0,0,18.4,0,49.4c0,0.3,0,0.8,0,1.1c0.2,5.1-1.6,10.3-3.2,15.2
	c-3.6,11.6-0.3,22.8,2.7,34.4c0.2,2.1,0.2,4.6,0.3,6.8c0,0.3,0,0.5,0,0.8c0,48.5,0,109.5,0,174.6c0,0.3,0,0.5,0,0.8
	c0,8.7-3.6,16.9-4.6,25.8c-0.6,6.7,2.7,12.5,4.3,18.8c0.2,1.7,0.5,3.3,0.3,5.2c0,0.3,0,0.5,0,0.8c0,40.9,0,82.5,0,123
	c1.3,0.4,2.6,0.8,4,1.2C138.6,431.1,138.6,388.9,138.6,347.4z"/>
<path style="fill:#333334;" d="M138.6,472.2c-1.3-0.4-2.6-0.8-4-1.2"/>
<g>
	<path style="fill:#1C1B1C;" d="M199.2-60.2c0.8,0.3,1.7,0.5,2.6,0.7c0.1-0.1,0.2-0.1,0.3-0.1C200.9-59.2,200.3-60.5,199.2-60.2z"/>
	<path style="fill:#1C1B1C;" d="M289,465.7l65.7,19C332.9,478,311.5,470.2,289,465.7z"/>
	<path style="fill:#1C1B1C;" d="M378.9,251.2c-0.2-0.6-1.9,0-2.9,1c-6.3,5.9-11.2,20-18.4,15.7c-1.9-1-3.2-7.8-3-12.7
		c0-0.2,0-0.5,0-0.6c0-167.9,0-311.7,0-311.7h-65.6c0,0,0,21.1,0,56.4c0,0.2,0,0.3,0,0.5C289,1,289,2.4,288.8,4c0,0.3,0,0.6,0,1
		c0,3.6-2.2,5.5-4.3,4.9c-0.6-0.2-1.1-0.3-1.6-0.5c-0.2,0-0.3-0.2-0.5-0.2c-1.9-1.3-2.9-2.9-4.3-4.4c-4.3-6.8-8.2-12.8-13.1-18.7
		c-1.7-1.9-3.3-4-5.1-5.9c-0.2-0.2-0.3-0.3-0.5-0.6c-6.5-6.8-12.2-16-18.5-22.7c-0.2-0.2-0.3-0.3-0.5-0.5c-1-1-1.7-2.1-2.7-3.3
		c-0.2-0.3-0.3-0.5-0.5-0.8c-1.4-1.9-2.5-3.5-3.8-5.5c-0.8-0.8-1.4-1.6-2.2-2.4c-0.2-0.2-0.3-0.3-0.5-0.5c-0.2-0.2-0.3-0.3-0.5-0.5
		c-0.2-0.2-0.3-0.3-0.5-0.3c-1.1-0.5-2.2-0.8-3.3-1.1c-0.2,0-0.3-0.2-0.5-0.2c-4-0.8-7.8-0.8-11.7-0.6c-0.3,0-0.6,0-1.1,0
		c-3.9,0.4-7.7,0.2-11.5-0.7c-0.2,0.1-0.5,0.3-0.5,0.5c0.8,3.8,4.3,3.8,6.5,4.6c0.3,0,0.6,0.2,1,0.2c1.7,0.3,3.3,0.8,4.8,2.1
		c0.2,0.2,0.3,0.2,0.5,0.3c2.5,1.4,4.8,3.3,6.7,5.9c0.2,0.2,0.3,0.5,0.5,0.6c5.7,5.2,10.6,11.6,14.7,19c0.2,0.3,0.3,0.6,0.5,0.8
		c5.2,9.5,12.5,15.5,14.9,28c0.2,1.9,1.3,3.5,2.4,5.2c0.2,0.3,0.3,0.5,0.5,0.8c1.3,1.9,2.5,3.6,4,5.2c0.2,0.2,0.3,0.3,0.5,0.5
		c3.3,3.5,6.5,7.1,9.5,11.1c0.2,0.2,0.3,0.5,0.5,0.6s0.3,0.5,0.5,0.6c1.9,3.2,3.6,6.2,4.9,9.8c0.2,0.3,0.2,0.6,0.3,0.8
		c0.5,1.4,1,2.7,1.6,4.1c4,8.7,7.9,16,10.3,25.7c0,0.3,0.2,0.6,0.2,0.8c2.4,10,2.9,20.6,2.9,31.4c0,0.2,0,0.5,0,0.6
		c0,40.6,0,86.5,0,134.8c0,0.2,0,0.5,0,0.6c-0.5,4,1,8.4-1.4,10.9c-1.1,1.3-2.2-1-2.9-1.9c-5.4-9-10.6-23.1-18.8-22.8
		c-1.6,0-1.3,4.1-0.5,6.5c1.9,4.8,4.8,8.4,6.3,12.8c5.2,16,9.3,31.2,16.6,45.9c0.6,1.3,0.6,3.2,0.5,5.1c0,0.3,0,0.5,0,0.8
		c0.1,57.6,0.1,116.8,0.2,173.1c22.5,4.4,43.9,12.3,65.7,19c0-50.8,0-104.4,0-157.3c0-0.3,0-0.5,0-0.8c-0.2-4.4,0.5-8.7,1.9-12.5
		c3-8.4,4.1-17.7,6.5-26C366.6,275.3,381.6,266,378.9,251.2z"/>
	<path style="fill:#333334;" d="M334,318.7c0-0.3,0-0.6,0-0.8c0-11.2,0-22.2,0-33.6c0-0.3,0-0.6,0-0.8c0-176.5,0-334.9,0-334.9h-2.5
		c0,0,0,161.1,0,339.1c0,1.1,0,2.2,0,3.5c0,5.9,0,11.2,0,17.3c0,1.1,0,2.2,0,3.5c0,55.5,0,112,0,165.2c0.8,0.3,1.7,0.5,2.5,0.8
		C334,426.7,334,372.3,334,318.7z"/>
	<path style="fill:#333334;" d="M334,478.1c-0.8-0.3-1.7-0.5-2.5-0.8"/>
	<path style="fill:#333334;" d="M323.5-50.2H321V474c0.8,0.3,1.7,0.5,2.5,0.8V-50.2z"/>
	<path style="fill:#333334;" d="M323.5,474.8c-0.8-0.3-1.7-0.5-2.5-0.8"/>
	<path style="fill:#333334;" d="M316.7-50.2h-2.5V472c0.8,0.2,1.7,0.5,2.5,0.7V-50.2z"/>
	<path style="fill:#333334;" d="M316.7,472.7c-0.8-0.3-1.7-0.5-2.5-0.7"/>
	<path style="fill:#333334;" d="M308,470.2c-0.8-0.2-1.7-0.5-2.5-0.7"/>
	<path style="fill:#333334;" d="M308,295.7c0-0.3,0-0.6,0-0.8c0-10,0-20,0-29.8c0-0.3,0-0.6,0-0.8c0-85.4,0-165.2,0-223
		c0-1,0-1.9,0-2.9c0-1,0-1.9,0-2.9s0-1.9,0-2.7c0-51,0-83,0-83h-2.5c0,0,0,26.3,0,69.4c0,0.5,0,0.8,0,1.3c0,10.9,0,21.9,0,32.9
		c0,0.3,0,0.5,0,0.8c0,55.3,0,127.8,0,205.1c0,0.3,0,0.6,0,0.8c0.2,13.5,0.2,26.6,0,40.1c0,0.3,0,0.6,0,0.8c0,56.3,0,113.9,0,168.4
		c0.8,0.2,1.7,0.5,2.5,0.7C308,413.8,308,353.9,308,295.7z"/>
	<path style="fill:#333334;" d="M295.9,65.6c0,0.3,0,0.5,0,0.8c0,52.1,0,117.1,0,186.3c0,0.3,0,0.6,0,0.8c0.2,10.1,3.5,19.5,3,29.8
		c-0.5,7.8-3.2,14.4-3,22.3c0,0.3,0,0.6,0,0.8c0,53.9,0,108.8,0,160.8c0.8,0.2,1.7,0.4,2.5,0.6c0-52.2,0-107.3,0-161.3
		c0-0.3,0-0.6,0-0.8c0-6.5,1.3-13,2.2-19.5c1.1-11.2-1.9-21.5-2.2-32.6c0-0.3,0-0.6,0-0.8c0-69.9,0-135.4,0-187.9c0-0.3,0-0.5,0-0.8
		c1.6-18.4,1.9-36,0-54.3c0-0.5,0-0.8,0-1.3c0-37.5,0-60.2,0-60.2h-2.5c0,0,0,22.2,0,58.9c0,0.5,0,0.8,0,1.3
		c1.9,16.6,4,32.9,0.5,50.1C295.9,60.8,295.8,63.4,295.9,65.6z"/>
	<path style="fill:#333334;" d="M298.5,467.8c-0.8-0.2-1.7-0.4-2.5-0.6"/>
	<path style="fill:#333334;" d="M342.7,326.8c0-0.3,0-0.6,0-0.8c0.2-1.7,0-3.6-0.2-5.7c-1.1-8.1-2.9-15.4-2.2-23.4
		c0.6-7.8,2.5-14.7,2.4-22.5c0-0.3,0-0.6,0-0.8c0-171.9,0-323.8,0-323.8h-2.5c0,0,0,152.9,0,325.5c0,0.3,0,0.6,0,0.8
		c-0.5,13.6-3,27.6-0.5,41.7c0.5,2.2,0.6,4.8,0.5,7.3c0,0.3,0,0.6,0,0.8c0,52,0,104.6,0,154.3c0.8,0.3,1.7,0.5,2.5,0.8
		C342.7,431.3,342.7,378.7,342.7,326.8z"/>
	<path style="fill:#333334;" d="M342.7,480.9c-0.8-0.3-1.7-0.5-2.5-0.8"/>
	<path style="fill:#333334;" d="M350.4,326.8c0-0.3,0-0.6,0-0.8c0.2-7.6-2.4-13.9-3-21.1c-0.2-2.9,0-6.2,0.2-9
		c0.8-7.4,2.9-14.1,2.9-21.4c0-0.3,0-0.6,0-0.8c0-170.8,0-321.2,0-321.2h-2.5c0,0,0,149.8,0,320.3c0,0.3,0,0.6,0,0.8
		c0,2.4-0.2,4.6-0.5,7.1c-1.1,8.1-3.5,15.4-3,23.4c0.6,7.4,3.5,14.1,3.5,21.7c0,0.3,0,0.6,0,0.8c0,52.5,0,105.7,0,156
		c0.8,0.3,1.7,0.5,2.5,0.8C350.4,432.9,350.4,379.5,350.4,326.8z"/>
	<path style="fill:#333334;" d="M350.4,483.4c-0.8-0.3-1.7-0.5-2.5-0.8"/>
	<path style="fill:#333334;" d="M291.7,63.2c0,1.3,0,2.5,0,4c0,0.3,0,0.5,0,0.8c0,51.2,0,115.3,0,184.1c0,0.3,0,0.6,0,0.8
		c1.1,15.7,5.2,31,0.3,46.9c-0.5,1.6-0.2,3.5-0.3,5.1c0,0.3,0,0.6,0,0.8c0,53.6,0,108.5,0,160.7c0.8,0.2,1.7,0.4,2.5,0.6
		c0-52.2,0-107,0-160.6c0-0.3,0-0.6,0-0.8c-0.2-2.1,0-3.6,0.3-5.5c1.1-6.8,3.5-12.8,3-20c-0.6-9.3-3.2-18.1-3.3-27.2
		c0-0.3,0-0.6,0-0.8c0-68.7,0-132.9,0-184.1c0-0.3,0-0.5,0-0.8c0-2.4,0-4.9,0.3-7.1c2.2-12.2,4.6-24.1,1.9-36.3
		c-1.1-5.1-2.4-10.6-2.2-16c0-0.3,0-0.8,0-1.1c0-32.6,0-52,0-52h-2.5c0,0,0,18.8,0,50.8c0,0.3,0,0.8,0,1.1c-0.3,8.6,2.9,15.2,4,23.3
		C297.5,41.7,293.2,51.6,291.7,63.2z"/>
	<path style="fill:#333334;" d="M294.2,466.8c-0.8-0.2-1.7-0.4-2.5-0.6"/>
</g>
<g>
	<path style="fill:#1C1B1C;" d="M496.5,518.7c-22-3.2-43.6-5-65.7-4"/>
	<path style="fill:#1C1B1C;" d="M583.4,72.1c0.1,0,0.2,0,0.3,0.1c0.9-0.2,1.7-0.4,2.6-0.7C585.1,71.1,584.5,72.4,583.4,72.1z"/>
	<path style="fill:#1C1B1C;" d="M583.7,72.2c-3.8,0.9-7.7,1.1-11.5,0.7c-0.5,0-0.8,0-1.1,0c-4-0.2-7.8-0.2-11.7,0.6
		c-0.2,0-0.3,0.2-0.5,0.2c-1.1,0.3-2.2,0.6-3.3,1.1c-0.2,0-0.3,0.2-0.5,0.3c-0.2,0.2-0.3,0.3-0.5,0.5c-0.2,0.2-0.3,0.3-0.5,0.5
		c-0.8,0.8-1.4,1.6-2.2,2.4c-1.3,2.1-2.4,3.6-3.8,5.5c-0.2,0.3-0.3,0.5-0.5,0.8c-1,1.3-1.7,2.4-2.7,3.3c-0.2,0.2-0.3,0.3-0.5,0.5
		c-6.3,6.7-12,15.8-18.5,22.7c-0.2,0.3-0.3,0.5-0.5,0.6c-1.7,1.9-3.3,4-5.1,5.9c-4.9,5.9-8.9,11.9-13.1,18.7
		c-1.3,1.6-2.4,3.2-4.1,4.1c-0.2,0-0.3,0.2-0.5,0.2c-0.5,0.2-1,0.3-1.6,0.5c-2.1,0.6-4.3-1.3-4.3-4.9c0-0.3,0-0.6,0-1
		c-0.2-1.6-0.2-3-0.3-4.3c0-0.2,0-0.3,0-0.5c0-35.3-1.7-141.9-1.7-141.9h-65.6c0,0,1.7,229.5,1.7,397.4c0,0.2,0,0.5,0,0.6
		c0.2,4.9-1.1,11.7-3,12.7c-7.1,4.3-12-9.8-18.4-15.7c-1-1-2.7-1.6-2.9-1c-2.7,14.7,12.4,24.1,15.8,36.9c2.4,8.2,3.5,17.6,6.5,26
		c1.4,3.8,2.1,8.1,1.9,12.5c0,0.3,0,0.5,0,0.8c0,18.6,0,37.2,0,55.8c22.1-1,43.7,0.8,65.7,4c0-31.5,0-63.2,0.1-94.5
		c0-0.3,0-0.5,0-0.8c-0.2-1.9-0.2-3.8,0.5-5.1c7.3-14.7,11.4-29.9,16.6-45.9c1.6-4.4,4.4-8.1,6.3-12.8c0.8-2.4,1.1-6.5-0.5-6.5
		c-8.2-0.3-13.5,13.8-18.8,22.8c-0.6,1-1.7,3.2-2.9,1.9c-2.4-2.5-1-7-1.4-10.9c0-0.2,0-0.5,0-0.6c0-48.3,0-94.2,0-134.8
		c0-0.2,0-0.5,0-0.6c0-10.8,0.5-21.4,2.9-31.4c0-0.2,0.2-0.5,0.2-0.8c2.4-9.7,6.3-16.9,10.3-25.7c0.6-1.4,1.1-2.7,1.6-4.1
		c0.2-0.2,0.2-0.5,0.3-0.8c1.3-3.6,3-6.7,4.9-9.8c0.2-0.2,0.3-0.5,0.5-0.6c0.2-0.2,0.3-0.5,0.5-0.6c3-4,6.2-7.6,9.5-11.1
		c0.2-0.2,0.3-0.3,0.5-0.5c1.4-1.6,2.7-3.3,4-5.2c0.2-0.3,0.3-0.5,0.5-0.8c1.1-1.7,2.2-3.3,2.4-5.2c2.4-12.5,9.7-18.5,14.9-28
		c0.2-0.2,0.3-0.5,0.5-0.8c4.1-7.4,9-13.8,14.7-19c0.2-0.2,0.3-0.5,0.5-0.6c1.9-2.5,4.1-4.4,6.7-5.9c0.2-0.2,0.3-0.2,0.5-0.3
		c1.4-1.3,3-1.7,4.8-2.1c0.3,0,0.6-0.2,1-0.2c2.2-0.8,5.7-0.8,6.5-4.6C584.2,72.5,583.9,72.3,583.7,72.2z"/>
	<path style="fill:#333334;" d="M454.1,443.7c0-1.3,0-2.4,0-3.5c0-6,0-11.4,0-17.3c0-1.3,0-2.4,0-3.5c0-178.2-1.7-424.8-1.7-424.8
		h-2.5c0,0,1.7,243.9,1.7,420.4c0,0.2,0,0.5,0,0.8c0,11.4,0,22.3,0,33.6c0,0.2,0,0.5,0,0.8c0,21.4,0,42.9,0,64.3
		c0.8,0,1.7,0.1,2.5,0.1C454.1,491,454.1,467.2,454.1,443.7z"/>
	<path style="fill:#333334;" d="M454.1,514.6c-0.8,0-1.7-0.1-2.5-0.1"/>
	<path style="fill:#333334;" d="M462.8-4.4h-2.5l0.9,519.3c0.9,0.1,1.8,0.1,2.6,0.2L462.8-4.4z"/>
	<path style="fill:#333334;" d="M463.8,515.1c-0.9-0.1-1.8-0.1-2.6-0.2"/>
	<path style="fill:#333334;" d="M470.7,515.6c-0.9-0.1-1.7-0.2-2.6-0.2"/>
	<path style="fill:#333334;" d="M469.8-4.4h-2.7l1,519.8c0.9,0.1,1.7,0.1,2.6,0.2L469.8-4.4z"/>
	<path style="fill:#333334;" d="M480.1,432.6c0-0.2,0-0.5,0-0.8c-0.2-13.5-0.2-26.6,0-40.1c0-0.2,0-0.5,0-0.8
		c0-77.3,0-149.8,0-205.1c0-0.3,0-0.5,0-0.8c0-11.1,0-22,0-32.9c0-0.5,0-0.8,0-1.3c0-43.1-1.7-154.9-1.7-154.9h-2.5
		c0,0,1.7,117.5,1.7,168.5c0,0.8,0,1.7,0,2.7c0,1,0,1.9,0,2.9c0,1,0,1.9,0,2.9c0,57.8,0,137.6,0,223c0,0.2,0,0.5,0,0.8
		c0,9.8,0,19.8,0,29.8c0,0.2,0,0.5,0,0.8c0,29.5,0,59.4,0,89.1c0.8,0.1,1.7,0.2,2.5,0.3C480.1,488.6,480.1,460.4,480.1,432.6z"/>
	<path style="fill:#333334;" d="M480.1,516.5c-0.8-0.1-1.7-0.2-2.5-0.3"/>
	<path style="fill:#333334;" d="M489.6,437.8c0-0.2,0-0.5,0-0.8c0.2-7.9-2.5-14.6-3-22.3c-0.5-10.3,2.9-19.6,3-29.8
		c0-0.2,0-0.5,0-0.8c0-69.2,0-134.2,0-186.3c0-0.3,0-0.5,0-0.8c0.2-2.2,0-4.8-0.5-7c-3.5-17.1-1.4-33.4,0.5-50.1c0-0.5,0-0.8,0-1.3
		c0-36.9-1.7-144.6-1.7-144.6h-2.5c0,0,1.7,108.3,1.7,145.9c0,0.5,0,0.8,0,1.3c-1.9,18.4-1.6,36,0,54.3c0,0.3,0,0.5,0,0.8
		c0,52.4,0,118,0,187.9c0,0.2,0,0.5,0,0.8c-0.3,11.1-3.3,21.4-2.2,32.6c1,6.5,2.2,13,2.2,19.5c0,0.2,0,0.5,0,0.8c0,26.4,0,53,0,79.4
		c0.8,0.1,1.7,0.2,2.5,0.3C489.6,491.1,489.6,464.3,489.6,437.8z"/>
	<path style="fill:#333334;" d="M489.6,517.7c-0.8-0.1-1.7-0.2-2.5-0.3"/>
	<path style="fill:#333334;" d="M445.6,457.3c0-0.2,0-0.5,0-0.8c-0.2-2.5,0-5.1,0.5-7.3c2.5-14.1,0-28-0.5-41.7c0-0.2,0-0.5,0-0.8
		c0-172.5-1.7-411-1.7-411h-2.5c0,0,1.7,237.4,1.7,409.3c0,0.2,0,0.5,0,0.8c-0.2,7.8,1.7,14.7,2.4,22.5c0.6,8.1-1.1,15.4-2.2,23.4
		c-0.2,2.1-0.3,4-0.2,5.7c0,0.2,0,0.5,0,0.8c0,18.7,0,37.5,0,56.1c0.8,0,1.7,0,2.5,0C445.6,495.4,445.6,476.3,445.6,457.3z"/>
	<path style="fill:#333334;" d="M445.6,514.4c-0.8,0-1.7,0-2.5,0"/>
	<path style="fill:#333334;" d="M437.8,514.4c-0.9,0-1.8,0-2.7,0.1"/>
	<path style="fill:#333334;" d="M437.8,457.1c0-7.6,2.9-14.3,3.5-21.7c0.5-8.1-1.9-15.4-3-23.4c-0.3-2.5-0.5-4.8-0.5-7.1
		c0-0.2,0-0.5,0-0.8c0-170.4-1.7-406-1.7-406h-2.5c0,0,1.6,236,1.6,407.1c0,0.2,0,0.5,0,0.8c0,7.3,2.1,13.9,2.9,21.4
		c0.2,2.9,0.3,6.2,0.2,9c-0.6,7.1-3.2,13.5-3,21.1c0,0.2,0,0.5,0,0.8c0,18.7,0,37.5,0,56.3c0.9,0,1.8,0,2.7-0.1
		c0-18.8,0-37.7,0-56.5C437.8,457.8,437.8,457.5,437.8,457.1z"/>
	<path style="fill:#333334;" d="M494,437c0-0.2,0-0.5,0-0.8c-0.2-1.6,0.2-3.5-0.3-5.1c-4.9-15.8-0.8-31.2,0.3-46.9
		c0-0.2,0-0.5,0-0.8c0-68.7,0-132.9,0-184.1c0-0.3,0-0.5,0-0.8c0-1.4,0-2.7,0-4c-1.6-11.6-5.9-21.5-4-33.4c1.1-8.1,4.3-14.7,4-23.3
		c0-0.3,0-0.8,0-1.1c0-32-1.7-136.5-1.7-136.5h-2.5c0,0,1.7,105,1.7,137.6c0,0.3,0,0.8,0,1.1c0.2,5.4-1.1,10.9-2.2,16
		c-2.7,12.2-0.3,24.1,1.9,36.3c0.3,2.2,0.3,4.8,0.3,7.1c0,0.3,0,0.5,0,0.8c0,51.2,0,115.3,0,184.1c0,0.2,0,0.5,0,0.8
		c-0.2,9.2-2.7,17.9-3.3,27.2c-0.5,7.1,1.9,13.1,3,20c0.3,1.9,0.5,3.5,0.3,5.5c0,0.2,0,0.5,0,0.8c0,26.6,0,53.5,0,80.3
		c0.8,0.1,1.7,0.2,2.5,0.4C494,491.2,494,464,494,437z"/>
	<path style="fill:#333334;" d="M494,518.3c-0.8-0.1-1.7-0.2-2.5-0.4"/>
</g>
</svg>
